%TF.GenerationSoftware,KiCad,Pcbnew,9.0.7-1.fc43*%
%TF.CreationDate,2026-03-15T02:47:28+01:00*%
%TF.ProjectId,homemon,686f6d65-6d6f-46e2-9e6b-696361645f70,rev?*%
%TF.SameCoordinates,Original*%
%TF.FileFunction,Copper,L2,Bot*%
%TF.FilePolarity,Positive*%
%FSLAX46Y46*%
G04 Gerber Fmt 4.6, Leading zero omitted, Abs format (unit mm)*
G04 Created by KiCad (PCBNEW 9.0.7-1.fc43) date 2026-03-15 02:47:28*
%MOMM*%
%LPD*%
G01*
G04 APERTURE LIST*
G04 Aperture macros list*
%AMRoundRect*
0 Rectangle with rounded corners*
0 $1 Rounding radius*
0 $2 $3 $4 $5 $6 $7 $8 $9 X,Y pos of 4 corners*
0 Add a 4 corners polygon primitive as box body*
4,1,4,$2,$3,$4,$5,$6,$7,$8,$9,$2,$3,0*
0 Add four circle primitives for the rounded corners*
1,1,$1+$1,$2,$3*
1,1,$1+$1,$4,$5*
1,1,$1+$1,$6,$7*
1,1,$1+$1,$8,$9*
0 Add four rect primitives between the rounded corners*
20,1,$1+$1,$2,$3,$4,$5,0*
20,1,$1+$1,$4,$5,$6,$7,0*
20,1,$1+$1,$6,$7,$8,$9,0*
20,1,$1+$1,$8,$9,$2,$3,0*%
%AMFreePoly0*
4,1,37,0.603843,0.796157,0.639018,0.796157,0.711114,0.766294,0.766294,0.711114,0.796157,0.639018,0.796157,0.603843,0.800000,0.600000,0.800000,-0.600000,0.796157,-0.603843,0.796157,-0.639018,0.766294,-0.711114,0.711114,-0.766294,0.639018,-0.796157,0.603843,-0.796157,0.600000,-0.800000,0.000000,-0.800000,0.000000,-0.796148,-0.078414,-0.796148,-0.232228,-0.765552,-0.377117,-0.705537,
-0.507515,-0.618408,-0.618408,-0.507515,-0.705537,-0.377117,-0.765552,-0.232228,-0.796148,-0.078414,-0.796148,0.078414,-0.765552,0.232228,-0.705537,0.377117,-0.618408,0.507515,-0.507515,0.618408,-0.377117,0.705537,-0.232228,0.765552,-0.078414,0.796148,0.000000,0.796148,0.000000,0.800000,0.600000,0.800000,0.603843,0.796157,0.603843,0.796157,$1*%
%AMFreePoly1*
4,1,37,0.000000,0.796148,0.078414,0.796148,0.232228,0.765552,0.377117,0.705537,0.507515,0.618408,0.618408,0.507515,0.705537,0.377117,0.765552,0.232228,0.796148,0.078414,0.796148,-0.078414,0.765552,-0.232228,0.705537,-0.377117,0.618408,-0.507515,0.507515,-0.618408,0.377117,-0.705537,0.232228,-0.765552,0.078414,-0.796148,0.000000,-0.796148,0.000000,-0.800000,-0.600000,-0.800000,
-0.603843,-0.796157,-0.639018,-0.796157,-0.711114,-0.766294,-0.766294,-0.711114,-0.796157,-0.639018,-0.796157,-0.603843,-0.800000,-0.600000,-0.800000,0.600000,-0.796157,0.603843,-0.796157,0.639018,-0.766294,0.711114,-0.711114,0.766294,-0.639018,0.796157,-0.603843,0.796157,-0.600000,0.800000,0.000000,0.800000,0.000000,0.796148,0.000000,0.796148,$1*%
G04 Aperture macros list end*
%TA.AperFunction,ComponentPad*%
%ADD10C,1.700000*%
%TD*%
%TA.AperFunction,ComponentPad*%
%ADD11R,1.700000X1.700000*%
%TD*%
%TA.AperFunction,ComponentPad*%
%ADD12C,3.000000*%
%TD*%
%TA.AperFunction,ComponentPad*%
%ADD13R,1.800000X2.600000*%
%TD*%
%TA.AperFunction,ComponentPad*%
%ADD14O,1.800000X2.600000*%
%TD*%
%TA.AperFunction,ComponentPad*%
%ADD15C,1.600000*%
%TD*%
%TA.AperFunction,ComponentPad*%
%ADD16RoundRect,0.200000X0.600000X-0.600000X0.600000X0.600000X-0.600000X0.600000X-0.600000X-0.600000X0*%
%TD*%
%TA.AperFunction,ComponentPad*%
%ADD17FreePoly0,90.000000*%
%TD*%
%TA.AperFunction,ComponentPad*%
%ADD18FreePoly1,90.000000*%
%TD*%
%TA.AperFunction,Conductor*%
%ADD19C,0.200000*%
%TD*%
G04 APERTURE END LIST*
D10*
%TO.P,U1,2,DATA*%
%TO.N,Net-(A1-GPIO22)*%
X111250000Y-71750000D03*
%TO.P,U1,1,VDD*%
%TO.N,+3V3*%
X108710000Y-71750000D03*
D11*
%TO.P,U1,4,GND*%
%TO.N,GND*%
X106170000Y-71750000D03*
%TD*%
D12*
%TO.P,DS1,*%
%TO.N,*%
X84480900Y-108600000D03*
X84480900Y-139600700D03*
X159479480Y-139600700D03*
X159480000Y-108600000D03*
D13*
%TO.P,DS1,1,VSS*%
%TO.N,+3V3*%
X89980000Y-108600000D03*
D14*
%TO.P,DS1,2,VDD*%
%TO.N,GND*%
X92520000Y-108600000D03*
%TO.P,DS1,3,VO*%
%TO.N,Net-(DS1-VO)*%
X95060000Y-108600000D03*
%TO.P,DS1,4,RS*%
%TO.N,Net-(A1-GPIO2)*%
X97600000Y-108600000D03*
%TO.P,DS1,5,R/W*%
%TO.N,GND*%
X100140000Y-108600000D03*
%TO.P,DS1,6,E*%
%TO.N,Net-(A1-GPIO3)*%
X102680000Y-108600000D03*
%TO.P,DS1,7,D0*%
%TO.N,unconnected-(DS1-D0-Pad7)*%
X105220000Y-108600000D03*
%TO.P,DS1,8,D1*%
%TO.N,unconnected-(DS1-D1-Pad8)*%
X107760000Y-108600000D03*
%TO.P,DS1,9,D2*%
%TO.N,unconnected-(DS1-D2-Pad9)*%
X110300000Y-108600000D03*
%TO.P,DS1,10,D3*%
%TO.N,unconnected-(DS1-D3-Pad10)*%
X112840000Y-108600000D03*
%TO.P,DS1,11,D4*%
%TO.N,/D4*%
X115380000Y-108600000D03*
%TO.P,DS1,12,D5*%
%TO.N,/D5*%
X117920000Y-108600000D03*
%TO.P,DS1,13,D6*%
%TO.N,/D6*%
X120460000Y-108600000D03*
%TO.P,DS1,14,D7*%
%TO.N,/D7*%
X123000000Y-108600000D03*
%TO.P,DS1,15,LED(+)*%
%TO.N,Net-(DS1-LED(+))*%
X125540000Y-108600000D03*
%TO.P,DS1,16,LED(-)*%
%TO.N,GND*%
X128080000Y-108600000D03*
%TD*%
D10*
%TO.P,U2,1,VCC*%
%TO.N,+3V3*%
X138000000Y-90480000D03*
%TO.P,U2,2,DO*%
%TO.N,Net-(A1-GPIO14)*%
X138000000Y-87940000D03*
D11*
%TO.P,U2,3,GND*%
%TO.N,GND*%
X138000000Y-85400000D03*
%TD*%
D15*
%TO.P,R2,2*%
%TO.N,/BACKLIGHT*%
X142410000Y-108750000D03*
%TO.P,R2,1*%
%TO.N,Net-(DS1-LED(+))*%
X132250000Y-108750000D03*
%TD*%
%TO.P,R1,2*%
%TO.N,GND*%
X105160000Y-114000000D03*
%TO.P,R1,1*%
%TO.N,Net-(DS1-VO)*%
X95000000Y-114000000D03*
%TD*%
D11*
%TO.P,U3,2,DO*%
%TO.N,Net-(A1-GPIO16)*%
X133000000Y-72000000D03*
D10*
%TO.P,U3,3,GND*%
%TO.N,GND*%
X130460000Y-72000000D03*
%TO.P,U3,1,VCC*%
%TO.N,+3V3*%
X127920000Y-72000000D03*
%TD*%
D16*
%TO.P,A1,1,GPIO0*%
%TO.N,unconnected-(A1-GPIO0-Pad1)*%
X83440000Y-101500000D03*
D15*
%TO.P,A1,2,GPIO1*%
%TO.N,unconnected-(A1-GPIO1-Pad2)*%
X85980000Y-101500000D03*
D17*
%TO.P,A1,3,GND*%
%TO.N,GND*%
X88520000Y-101500000D03*
D15*
%TO.P,A1,4,GPIO2*%
%TO.N,Net-(A1-GPIO2)*%
X91060000Y-101500000D03*
%TO.P,A1,5,GPIO3*%
%TO.N,Net-(A1-GPIO3)*%
X93600000Y-101500000D03*
%TO.P,A1,6,GPIO4*%
%TO.N,/D4*%
X96140000Y-101500000D03*
%TO.P,A1,7,GPIO5*%
%TO.N,/D5*%
X98680000Y-101500000D03*
D17*
%TO.P,A1,8,GND*%
%TO.N,GND*%
X101220000Y-101500000D03*
D15*
%TO.P,A1,9,GPIO6*%
%TO.N,/D6*%
X103760000Y-101500000D03*
%TO.P,A1,10,GPIO7*%
%TO.N,/D7*%
X106300000Y-101500000D03*
%TO.P,A1,11,GPIO8*%
%TO.N,unconnected-(A1-GPIO8-Pad11)*%
X108840000Y-101500000D03*
%TO.P,A1,12,GPIO9*%
%TO.N,unconnected-(A1-GPIO9-Pad12)*%
X111380000Y-101500000D03*
D17*
%TO.P,A1,13,GND*%
%TO.N,GND*%
X113920000Y-101500000D03*
D15*
%TO.P,A1,14,GPIO10*%
%TO.N,unconnected-(A1-GPIO10-Pad14)*%
X116460000Y-101500000D03*
%TO.P,A1,15,GPIO11*%
%TO.N,unconnected-(A1-GPIO11-Pad15)*%
X119000000Y-101500000D03*
%TO.P,A1,16,GPIO12*%
%TO.N,unconnected-(A1-GPIO12-Pad16)*%
X121540000Y-101500000D03*
%TO.P,A1,17,GPIO13*%
%TO.N,unconnected-(A1-GPIO13-Pad17)*%
X124080000Y-101500000D03*
D17*
%TO.P,A1,18,GND*%
%TO.N,GND*%
X126620000Y-101500000D03*
D15*
%TO.P,A1,19,GPIO14*%
%TO.N,Net-(A1-GPIO14)*%
X129160000Y-101500000D03*
%TO.P,A1,20,GPIO15*%
%TO.N,/BACKLIGHT*%
X131700000Y-101500000D03*
%TO.P,A1,21,GPIO16*%
%TO.N,Net-(A1-GPIO16)*%
X131700000Y-83720000D03*
%TO.P,A1,22,GPIO17*%
%TO.N,unconnected-(A1-GPIO17-Pad22)*%
X129160000Y-83720000D03*
D18*
%TO.P,A1,23,GND*%
%TO.N,GND*%
X126620000Y-83720000D03*
D15*
%TO.P,A1,24,GPIO18*%
%TO.N,unconnected-(A1-GPIO18-Pad24)*%
X124080000Y-83720000D03*
%TO.P,A1,25,GPIO19*%
%TO.N,unconnected-(A1-GPIO19-Pad25)*%
X121540000Y-83720000D03*
%TO.P,A1,26,GPIO20*%
%TO.N,unconnected-(A1-GPIO20-Pad26)*%
X119000000Y-83720000D03*
%TO.P,A1,27,GPIO21*%
%TO.N,unconnected-(A1-GPIO21-Pad27)*%
X116460000Y-83720000D03*
D18*
%TO.P,A1,28,GND*%
%TO.N,GND*%
X113920000Y-83720000D03*
D15*
%TO.P,A1,29,GPIO22*%
%TO.N,Net-(A1-GPIO22)*%
X111380000Y-83720000D03*
%TO.P,A1,30,RUN*%
%TO.N,unconnected-(A1-RUN-Pad30)*%
X108840000Y-83720000D03*
%TO.P,A1,31,GPIO26_ADC0*%
%TO.N,unconnected-(A1-GPIO26_ADC0-Pad31)*%
X106300000Y-83720000D03*
%TO.P,A1,32,GPIO27_ADC1*%
%TO.N,unconnected-(A1-GPIO27_ADC1-Pad32)*%
X103760000Y-83720000D03*
D18*
%TO.P,A1,33,AGND*%
%TO.N,unconnected-(A1-AGND-Pad33)*%
X101220000Y-83720000D03*
D15*
%TO.P,A1,34,GPIO28_ADC2*%
%TO.N,unconnected-(A1-GPIO28_ADC2-Pad34)*%
X98680000Y-83720000D03*
%TO.P,A1,35,ADC_VREF*%
%TO.N,unconnected-(A1-ADC_VREF-Pad35)*%
X96140000Y-83720000D03*
%TO.P,A1,36,3V3*%
%TO.N,+3V3*%
X93600000Y-83720000D03*
%TO.P,A1,37,3V3_EN*%
%TO.N,unconnected-(A1-3V3_EN-Pad37)*%
X91060000Y-83720000D03*
D18*
%TO.P,A1,38,GND*%
%TO.N,GND*%
X88520000Y-83720000D03*
D15*
%TO.P,A1,39,VSYS*%
%TO.N,unconnected-(A1-VSYS-Pad39)*%
X85980000Y-83720000D03*
%TO.P,A1,40,VBUS*%
%TO.N,unconnected-(A1-VBUS-Pad40)*%
X83440000Y-83720000D03*
%TD*%
D19*
%TO.N,Net-(A1-GPIO16)*%
X133000000Y-72000000D02*
X133000000Y-73000000D01*
X133000000Y-73000000D02*
X131700000Y-74300000D01*
X131700000Y-74300000D02*
X131700000Y-83720000D01*
%TO.N,Net-(A1-GPIO22)*%
X111250000Y-71750000D02*
X111250000Y-74000000D01*
X111250000Y-74000000D02*
X111380000Y-74130000D01*
X111380000Y-74130000D02*
X111380000Y-83720000D01*
%TD*%
%TA.AperFunction,Conductor*%
%TO.N,GND*%
G36*
X144943039Y-69520185D02*
G01*
X144988794Y-69572989D01*
X145000000Y-69624500D01*
X145000000Y-116376455D01*
X144980315Y-116443494D01*
X144927511Y-116489249D01*
X144876456Y-116500454D01*
X78624956Y-116744024D01*
X78557844Y-116724586D01*
X78511896Y-116671951D01*
X78500500Y-116620025D01*
X78500500Y-113897648D01*
X93699500Y-113897648D01*
X93699500Y-114102351D01*
X93731522Y-114304534D01*
X93794781Y-114499223D01*
X93858691Y-114624653D01*
X93887585Y-114681359D01*
X93887715Y-114681613D01*
X94008028Y-114847213D01*
X94152786Y-114991971D01*
X94273226Y-115079474D01*
X94318390Y-115112287D01*
X94434607Y-115171503D01*
X94500776Y-115205218D01*
X94500778Y-115205218D01*
X94500781Y-115205220D01*
X94605137Y-115239127D01*
X94695465Y-115268477D01*
X94796557Y-115284488D01*
X94897648Y-115300500D01*
X94897649Y-115300500D01*
X95102351Y-115300500D01*
X95102352Y-115300500D01*
X95304534Y-115268477D01*
X95499219Y-115205220D01*
X95681610Y-115112287D01*
X95774590Y-115044732D01*
X95847213Y-114991971D01*
X95847215Y-114991968D01*
X95847219Y-114991966D01*
X95991966Y-114847219D01*
X95991968Y-114847215D01*
X95991971Y-114847213D01*
X96044732Y-114774590D01*
X96112287Y-114681610D01*
X96205220Y-114499219D01*
X96268477Y-114304534D01*
X96300500Y-114102352D01*
X96300500Y-113897682D01*
X103860000Y-113897682D01*
X103860000Y-114102317D01*
X103892009Y-114304417D01*
X103955244Y-114499031D01*
X104048141Y-114681350D01*
X104048147Y-114681359D01*
X104080523Y-114725921D01*
X104080524Y-114725922D01*
X104760000Y-114046446D01*
X104760000Y-114052661D01*
X104787259Y-114154394D01*
X104839920Y-114245606D01*
X104914394Y-114320080D01*
X105005606Y-114372741D01*
X105107339Y-114400000D01*
X105113553Y-114400000D01*
X104434076Y-115079474D01*
X104478650Y-115111859D01*
X104660968Y-115204755D01*
X104855582Y-115267990D01*
X105057683Y-115300000D01*
X105262317Y-115300000D01*
X105464417Y-115267990D01*
X105659031Y-115204755D01*
X105841349Y-115111859D01*
X105885921Y-115079474D01*
X105206447Y-114400000D01*
X105212661Y-114400000D01*
X105314394Y-114372741D01*
X105405606Y-114320080D01*
X105480080Y-114245606D01*
X105532741Y-114154394D01*
X105560000Y-114052661D01*
X105560000Y-114046447D01*
X106239474Y-114725921D01*
X106271859Y-114681349D01*
X106364755Y-114499031D01*
X106427990Y-114304417D01*
X106460000Y-114102317D01*
X106460000Y-113897682D01*
X106427990Y-113695582D01*
X106364755Y-113500968D01*
X106271859Y-113318650D01*
X106239474Y-113274077D01*
X106239474Y-113274076D01*
X105560000Y-113953551D01*
X105560000Y-113947339D01*
X105532741Y-113845606D01*
X105480080Y-113754394D01*
X105405606Y-113679920D01*
X105314394Y-113627259D01*
X105212661Y-113600000D01*
X105206446Y-113600000D01*
X105885922Y-112920524D01*
X105885921Y-112920523D01*
X105841359Y-112888147D01*
X105841350Y-112888141D01*
X105659031Y-112795244D01*
X105464417Y-112732009D01*
X105262317Y-112700000D01*
X105057683Y-112700000D01*
X104855582Y-112732009D01*
X104660968Y-112795244D01*
X104478644Y-112888143D01*
X104434077Y-112920523D01*
X104434077Y-112920524D01*
X105113554Y-113600000D01*
X105107339Y-113600000D01*
X105005606Y-113627259D01*
X104914394Y-113679920D01*
X104839920Y-113754394D01*
X104787259Y-113845606D01*
X104760000Y-113947339D01*
X104760000Y-113953553D01*
X104080524Y-113274077D01*
X104080523Y-113274077D01*
X104048143Y-113318644D01*
X103955244Y-113500968D01*
X103892009Y-113695582D01*
X103860000Y-113897682D01*
X96300500Y-113897682D01*
X96300500Y-113897648D01*
X96292257Y-113845606D01*
X96268477Y-113695465D01*
X96237458Y-113600000D01*
X96205220Y-113500781D01*
X96205218Y-113500778D01*
X96205218Y-113500776D01*
X96112419Y-113318650D01*
X96112287Y-113318390D01*
X96080092Y-113274077D01*
X95991971Y-113152786D01*
X95847213Y-113008028D01*
X95681613Y-112887715D01*
X95681612Y-112887714D01*
X95681610Y-112887713D01*
X95624653Y-112858691D01*
X95499223Y-112794781D01*
X95304534Y-112731522D01*
X95129995Y-112703878D01*
X95102352Y-112699500D01*
X94897648Y-112699500D01*
X94873329Y-112703351D01*
X94695465Y-112731522D01*
X94500776Y-112794781D01*
X94318386Y-112887715D01*
X94152786Y-113008028D01*
X94008028Y-113152786D01*
X93887715Y-113318386D01*
X93794781Y-113500776D01*
X93731522Y-113695465D01*
X93699500Y-113897648D01*
X78500500Y-113897648D01*
X78500500Y-108468872D01*
X82480400Y-108468872D01*
X82480400Y-108731127D01*
X82496361Y-108852352D01*
X82514630Y-108991116D01*
X82559644Y-109159111D01*
X82582502Y-109244418D01*
X82582505Y-109244428D01*
X82682853Y-109486690D01*
X82682858Y-109486700D01*
X82813975Y-109713803D01*
X82973618Y-109921851D01*
X82973626Y-109921860D01*
X83159040Y-110107274D01*
X83159048Y-110107281D01*
X83367096Y-110266924D01*
X83594199Y-110398041D01*
X83594209Y-110398046D01*
X83836471Y-110498394D01*
X83836481Y-110498398D01*
X84089784Y-110566270D01*
X84349780Y-110600500D01*
X84349787Y-110600500D01*
X84612013Y-110600500D01*
X84612020Y-110600500D01*
X84872016Y-110566270D01*
X85125319Y-110498398D01*
X85302240Y-110425114D01*
X85367590Y-110398046D01*
X85367591Y-110398045D01*
X85367597Y-110398043D01*
X85594703Y-110266924D01*
X85802751Y-110107282D01*
X85802755Y-110107277D01*
X85802760Y-110107274D01*
X85988174Y-109921860D01*
X85988177Y-109921855D01*
X85988182Y-109921851D01*
X86147824Y-109713803D01*
X86278943Y-109486697D01*
X86379298Y-109244419D01*
X86447170Y-108991116D01*
X86481400Y-108731120D01*
X86481400Y-108468880D01*
X86447170Y-108208884D01*
X86379298Y-107955581D01*
X86357430Y-107902786D01*
X86278946Y-107713309D01*
X86278941Y-107713299D01*
X86147824Y-107486196D01*
X86023590Y-107324293D01*
X85995713Y-107287964D01*
X85988182Y-107278149D01*
X85988181Y-107278148D01*
X85988174Y-107278140D01*
X85962169Y-107252135D01*
X88579500Y-107252135D01*
X88579500Y-109947870D01*
X88579501Y-109947876D01*
X88585908Y-110007483D01*
X88636202Y-110142328D01*
X88636206Y-110142335D01*
X88722452Y-110257544D01*
X88722455Y-110257547D01*
X88837664Y-110343793D01*
X88837671Y-110343797D01*
X88972517Y-110394091D01*
X88972516Y-110394091D01*
X88979444Y-110394835D01*
X89032127Y-110400500D01*
X90927872Y-110400499D01*
X90987483Y-110394091D01*
X91122331Y-110343796D01*
X91237546Y-110257546D01*
X91323796Y-110142331D01*
X91353793Y-110061903D01*
X91395663Y-110005970D01*
X91461127Y-109981552D01*
X91529400Y-109996403D01*
X91557656Y-110017555D01*
X91607958Y-110067857D01*
X91786239Y-110197386D01*
X91982589Y-110297432D01*
X92192163Y-110365526D01*
X92269999Y-110377854D01*
X92270000Y-110377854D01*
X92270000Y-109148482D01*
X92288409Y-109159111D01*
X92441009Y-109200000D01*
X92598991Y-109200000D01*
X92751591Y-109159111D01*
X92770000Y-109148482D01*
X92770000Y-110377854D01*
X92847834Y-110365526D01*
X92847837Y-110365526D01*
X93057410Y-110297432D01*
X93253760Y-110197386D01*
X93432041Y-110067857D01*
X93587857Y-109912041D01*
X93587862Y-109912035D01*
X93689372Y-109772319D01*
X93744702Y-109729653D01*
X93814315Y-109723674D01*
X93876110Y-109756279D01*
X93890008Y-109772319D01*
X93991752Y-109912358D01*
X93991756Y-109912363D01*
X94147636Y-110068243D01*
X94147641Y-110068247D01*
X94201369Y-110107282D01*
X94325978Y-110197815D01*
X94454375Y-110263237D01*
X94522393Y-110297895D01*
X94522396Y-110297896D01*
X94627221Y-110331955D01*
X94732049Y-110366015D01*
X94949778Y-110400500D01*
X94949779Y-110400500D01*
X95170221Y-110400500D01*
X95170222Y-110400500D01*
X95387951Y-110366015D01*
X95597606Y-110297895D01*
X95794022Y-110197815D01*
X95972365Y-110068242D01*
X96128242Y-109912365D01*
X96164628Y-109862284D01*
X96229682Y-109772745D01*
X96285011Y-109730079D01*
X96354625Y-109724100D01*
X96416420Y-109756705D01*
X96430318Y-109772745D01*
X96531752Y-109912358D01*
X96531756Y-109912363D01*
X96687636Y-110068243D01*
X96687641Y-110068247D01*
X96741369Y-110107282D01*
X96865978Y-110197815D01*
X96994375Y-110263237D01*
X97062393Y-110297895D01*
X97062396Y-110297896D01*
X97167221Y-110331955D01*
X97272049Y-110366015D01*
X97489778Y-110400500D01*
X97489779Y-110400500D01*
X97710221Y-110400500D01*
X97710222Y-110400500D01*
X97927951Y-110366015D01*
X98137606Y-110297895D01*
X98334022Y-110197815D01*
X98512365Y-110068242D01*
X98668242Y-109912365D01*
X98769991Y-109772317D01*
X98825320Y-109729653D01*
X98894933Y-109723674D01*
X98956729Y-109756279D01*
X98970627Y-109772318D01*
X99072142Y-109912041D01*
X99227958Y-110067857D01*
X99406239Y-110197386D01*
X99602589Y-110297432D01*
X99812163Y-110365526D01*
X99890000Y-110377854D01*
X99890000Y-109148482D01*
X99908409Y-109159111D01*
X100061009Y-109200000D01*
X100218991Y-109200000D01*
X100371591Y-109159111D01*
X100390000Y-109148482D01*
X100390000Y-110377854D01*
X100467834Y-110365526D01*
X100467837Y-110365526D01*
X100677410Y-110297432D01*
X100873760Y-110197386D01*
X101052041Y-110067857D01*
X101207857Y-109912041D01*
X101207862Y-109912035D01*
X101309372Y-109772319D01*
X101364702Y-109729653D01*
X101434315Y-109723674D01*
X101496110Y-109756279D01*
X101510008Y-109772319D01*
X101611752Y-109912358D01*
X101611756Y-109912363D01*
X101767636Y-110068243D01*
X101767641Y-110068247D01*
X101821369Y-110107282D01*
X101945978Y-110197815D01*
X102074375Y-110263237D01*
X102142393Y-110297895D01*
X102142396Y-110297896D01*
X102247221Y-110331955D01*
X102352049Y-110366015D01*
X102569778Y-110400500D01*
X102569779Y-110400500D01*
X102790221Y-110400500D01*
X102790222Y-110400500D01*
X103007951Y-110366015D01*
X103217606Y-110297895D01*
X103414022Y-110197815D01*
X103592365Y-110068242D01*
X103748242Y-109912365D01*
X103784628Y-109862284D01*
X103849682Y-109772745D01*
X103905011Y-109730079D01*
X103974625Y-109724100D01*
X104036420Y-109756705D01*
X104050318Y-109772745D01*
X104151752Y-109912358D01*
X104151756Y-109912363D01*
X104307636Y-110068243D01*
X104307641Y-110068247D01*
X104361369Y-110107282D01*
X104485978Y-110197815D01*
X104614375Y-110263237D01*
X104682393Y-110297895D01*
X104682396Y-110297896D01*
X104787221Y-110331955D01*
X104892049Y-110366015D01*
X105109778Y-110400500D01*
X105109779Y-110400500D01*
X105330221Y-110400500D01*
X105330222Y-110400500D01*
X105547951Y-110366015D01*
X105757606Y-110297895D01*
X105954022Y-110197815D01*
X106132365Y-110068242D01*
X106288242Y-109912365D01*
X106324628Y-109862284D01*
X106389682Y-109772745D01*
X106445011Y-109730079D01*
X106514625Y-109724100D01*
X106576420Y-109756705D01*
X106590318Y-109772745D01*
X106691752Y-109912358D01*
X106691756Y-109912363D01*
X106847636Y-110068243D01*
X106847641Y-110068247D01*
X106901369Y-110107282D01*
X107025978Y-110197815D01*
X107154375Y-110263237D01*
X107222393Y-110297895D01*
X107222396Y-110297896D01*
X107327221Y-110331955D01*
X107432049Y-110366015D01*
X107649778Y-110400500D01*
X107649779Y-110400500D01*
X107870221Y-110400500D01*
X107870222Y-110400500D01*
X108087951Y-110366015D01*
X108297606Y-110297895D01*
X108494022Y-110197815D01*
X108672365Y-110068242D01*
X108828242Y-109912365D01*
X108864628Y-109862284D01*
X108929682Y-109772745D01*
X108985011Y-109730079D01*
X109054625Y-109724100D01*
X109116420Y-109756705D01*
X109130318Y-109772745D01*
X109231752Y-109912358D01*
X109231756Y-109912363D01*
X109387636Y-110068243D01*
X109387641Y-110068247D01*
X109441369Y-110107282D01*
X109565978Y-110197815D01*
X109694375Y-110263237D01*
X109762393Y-110297895D01*
X109762396Y-110297896D01*
X109867221Y-110331955D01*
X109972049Y-110366015D01*
X110189778Y-110400500D01*
X110189779Y-110400500D01*
X110410221Y-110400500D01*
X110410222Y-110400500D01*
X110627951Y-110366015D01*
X110837606Y-110297895D01*
X111034022Y-110197815D01*
X111212365Y-110068242D01*
X111368242Y-109912365D01*
X111404628Y-109862284D01*
X111469682Y-109772745D01*
X111525011Y-109730079D01*
X111594625Y-109724100D01*
X111656420Y-109756705D01*
X111670318Y-109772745D01*
X111771752Y-109912358D01*
X111771756Y-109912363D01*
X111927636Y-110068243D01*
X111927641Y-110068247D01*
X111981369Y-110107282D01*
X112105978Y-110197815D01*
X112234375Y-110263237D01*
X112302393Y-110297895D01*
X112302396Y-110297896D01*
X112407221Y-110331955D01*
X112512049Y-110366015D01*
X112729778Y-110400500D01*
X112729779Y-110400500D01*
X112950221Y-110400500D01*
X112950222Y-110400500D01*
X113167951Y-110366015D01*
X113377606Y-110297895D01*
X113574022Y-110197815D01*
X113752365Y-110068242D01*
X113908242Y-109912365D01*
X113944628Y-109862284D01*
X114009682Y-109772745D01*
X114065011Y-109730079D01*
X114134625Y-109724100D01*
X114196420Y-109756705D01*
X114210318Y-109772745D01*
X114311752Y-109912358D01*
X114311756Y-109912363D01*
X114467636Y-110068243D01*
X114467641Y-110068247D01*
X114521369Y-110107282D01*
X114645978Y-110197815D01*
X114774375Y-110263237D01*
X114842393Y-110297895D01*
X114842396Y-110297896D01*
X114947221Y-110331955D01*
X115052049Y-110366015D01*
X115269778Y-110400500D01*
X115269779Y-110400500D01*
X115490221Y-110400500D01*
X115490222Y-110400500D01*
X115707951Y-110366015D01*
X115917606Y-110297895D01*
X116114022Y-110197815D01*
X116292365Y-110068242D01*
X116448242Y-109912365D01*
X116484628Y-109862284D01*
X116549682Y-109772745D01*
X116605011Y-109730079D01*
X116674625Y-109724100D01*
X116736420Y-109756705D01*
X116750318Y-109772745D01*
X116851752Y-109912358D01*
X116851756Y-109912363D01*
X117007636Y-110068243D01*
X117007641Y-110068247D01*
X117061369Y-110107282D01*
X117185978Y-110197815D01*
X117314375Y-110263237D01*
X117382393Y-110297895D01*
X117382396Y-110297896D01*
X117487221Y-110331955D01*
X117592049Y-110366015D01*
X117809778Y-110400500D01*
X117809779Y-110400500D01*
X118030221Y-110400500D01*
X118030222Y-110400500D01*
X118247951Y-110366015D01*
X118457606Y-110297895D01*
X118654022Y-110197815D01*
X118832365Y-110068242D01*
X118988242Y-109912365D01*
X119024628Y-109862284D01*
X119089682Y-109772745D01*
X119145011Y-109730079D01*
X119214625Y-109724100D01*
X119276420Y-109756705D01*
X119290318Y-109772745D01*
X119391752Y-109912358D01*
X119391756Y-109912363D01*
X119547636Y-110068243D01*
X119547641Y-110068247D01*
X119601369Y-110107282D01*
X119725978Y-110197815D01*
X119854375Y-110263237D01*
X119922393Y-110297895D01*
X119922396Y-110297896D01*
X120027221Y-110331955D01*
X120132049Y-110366015D01*
X120349778Y-110400500D01*
X120349779Y-110400500D01*
X120570221Y-110400500D01*
X120570222Y-110400500D01*
X120787951Y-110366015D01*
X120997606Y-110297895D01*
X121194022Y-110197815D01*
X121372365Y-110068242D01*
X121528242Y-109912365D01*
X121564628Y-109862284D01*
X121629682Y-109772745D01*
X121685011Y-109730079D01*
X121754625Y-109724100D01*
X121816420Y-109756705D01*
X121830318Y-109772745D01*
X121931752Y-109912358D01*
X121931756Y-109912363D01*
X122087636Y-110068243D01*
X122087641Y-110068247D01*
X122141369Y-110107282D01*
X122265978Y-110197815D01*
X122394375Y-110263237D01*
X122462393Y-110297895D01*
X122462396Y-110297896D01*
X122567221Y-110331955D01*
X122672049Y-110366015D01*
X122889778Y-110400500D01*
X122889779Y-110400500D01*
X123110221Y-110400500D01*
X123110222Y-110400500D01*
X123327951Y-110366015D01*
X123537606Y-110297895D01*
X123734022Y-110197815D01*
X123912365Y-110068242D01*
X124068242Y-109912365D01*
X124104628Y-109862284D01*
X124169682Y-109772745D01*
X124225011Y-109730079D01*
X124294625Y-109724100D01*
X124356420Y-109756705D01*
X124370318Y-109772745D01*
X124471752Y-109912358D01*
X124471756Y-109912363D01*
X124627636Y-110068243D01*
X124627641Y-110068247D01*
X124681369Y-110107282D01*
X124805978Y-110197815D01*
X124934375Y-110263237D01*
X125002393Y-110297895D01*
X125002396Y-110297896D01*
X125107221Y-110331955D01*
X125212049Y-110366015D01*
X125429778Y-110400500D01*
X125429779Y-110400500D01*
X125650221Y-110400500D01*
X125650222Y-110400500D01*
X125867951Y-110366015D01*
X126077606Y-110297895D01*
X126274022Y-110197815D01*
X126452365Y-110068242D01*
X126608242Y-109912365D01*
X126709991Y-109772317D01*
X126765320Y-109729653D01*
X126834933Y-109723674D01*
X126896729Y-109756279D01*
X126910627Y-109772318D01*
X127012142Y-109912041D01*
X127167958Y-110067857D01*
X127346239Y-110197386D01*
X127542589Y-110297432D01*
X127752163Y-110365526D01*
X127829999Y-110377854D01*
X127830000Y-110377854D01*
X127830000Y-109148482D01*
X127848409Y-109159111D01*
X128001009Y-109200000D01*
X128158991Y-109200000D01*
X128311591Y-109159111D01*
X128330000Y-109148482D01*
X128330000Y-110377854D01*
X128407834Y-110365526D01*
X128407837Y-110365526D01*
X128617410Y-110297432D01*
X128813760Y-110197386D01*
X128992041Y-110067857D01*
X129147857Y-109912041D01*
X129277386Y-109733760D01*
X129377432Y-109537410D01*
X129445526Y-109327835D01*
X129480000Y-109110181D01*
X129480000Y-108850000D01*
X128628482Y-108850000D01*
X128639111Y-108831591D01*
X128680000Y-108678991D01*
X128680000Y-108647648D01*
X130949500Y-108647648D01*
X130949500Y-108852351D01*
X130981522Y-109054534D01*
X131044781Y-109249223D01*
X131137715Y-109431613D01*
X131258028Y-109597213D01*
X131402786Y-109741971D01*
X131557749Y-109854556D01*
X131568390Y-109862287D01*
X131684607Y-109921503D01*
X131750776Y-109955218D01*
X131750778Y-109955218D01*
X131750781Y-109955220D01*
X131831823Y-109981552D01*
X131945465Y-110018477D01*
X132046557Y-110034488D01*
X132147648Y-110050500D01*
X132147649Y-110050500D01*
X132352351Y-110050500D01*
X132352352Y-110050500D01*
X132554534Y-110018477D01*
X132749219Y-109955220D01*
X132931610Y-109862287D01*
X133054855Y-109772745D01*
X133097213Y-109741971D01*
X133097215Y-109741968D01*
X133097219Y-109741966D01*
X133241966Y-109597219D01*
X133241968Y-109597215D01*
X133241971Y-109597213D01*
X133322269Y-109486690D01*
X133362287Y-109431610D01*
X133455220Y-109249219D01*
X133518477Y-109054534D01*
X133550500Y-108852352D01*
X133550500Y-108647648D01*
X141109500Y-108647648D01*
X141109500Y-108852351D01*
X141141522Y-109054534D01*
X141204781Y-109249223D01*
X141297715Y-109431613D01*
X141418028Y-109597213D01*
X141562786Y-109741971D01*
X141717749Y-109854556D01*
X141728390Y-109862287D01*
X141844607Y-109921503D01*
X141910776Y-109955218D01*
X141910778Y-109955218D01*
X141910781Y-109955220D01*
X141991823Y-109981552D01*
X142105465Y-110018477D01*
X142206557Y-110034488D01*
X142307648Y-110050500D01*
X142307649Y-110050500D01*
X142512351Y-110050500D01*
X142512352Y-110050500D01*
X142714534Y-110018477D01*
X142909219Y-109955220D01*
X143091610Y-109862287D01*
X143214855Y-109772745D01*
X143257213Y-109741971D01*
X143257215Y-109741968D01*
X143257219Y-109741966D01*
X143401966Y-109597219D01*
X143401968Y-109597215D01*
X143401971Y-109597213D01*
X143482269Y-109486690D01*
X143522287Y-109431610D01*
X143615220Y-109249219D01*
X143678477Y-109054534D01*
X143710500Y-108852352D01*
X143710500Y-108647648D01*
X143690442Y-108521009D01*
X143678477Y-108445465D01*
X143615218Y-108250776D01*
X143581503Y-108184607D01*
X143522287Y-108068390D01*
X143502307Y-108040889D01*
X143401971Y-107902786D01*
X143257213Y-107758028D01*
X143091613Y-107637715D01*
X143091612Y-107637714D01*
X143091610Y-107637713D01*
X143032602Y-107607647D01*
X142909223Y-107544781D01*
X142714534Y-107481522D01*
X142539995Y-107453878D01*
X142512352Y-107449500D01*
X142307648Y-107449500D01*
X142283329Y-107453351D01*
X142105465Y-107481522D01*
X141910776Y-107544781D01*
X141728386Y-107637715D01*
X141562786Y-107758028D01*
X141418028Y-107902786D01*
X141297715Y-108068386D01*
X141204781Y-108250776D01*
X141141522Y-108445465D01*
X141109500Y-108647648D01*
X133550500Y-108647648D01*
X133530442Y-108521009D01*
X133518477Y-108445465D01*
X133455218Y-108250776D01*
X133421503Y-108184607D01*
X133362287Y-108068390D01*
X133342307Y-108040889D01*
X133241971Y-107902786D01*
X133097213Y-107758028D01*
X132931613Y-107637715D01*
X132931612Y-107637714D01*
X132931610Y-107637713D01*
X132872602Y-107607647D01*
X132749223Y-107544781D01*
X132554534Y-107481522D01*
X132379995Y-107453878D01*
X132352352Y-107449500D01*
X132147648Y-107449500D01*
X132123329Y-107453351D01*
X131945465Y-107481522D01*
X131750776Y-107544781D01*
X131568386Y-107637715D01*
X131402786Y-107758028D01*
X131258028Y-107902786D01*
X131137715Y-108068386D01*
X131044781Y-108250776D01*
X130981522Y-108445465D01*
X130949500Y-108647648D01*
X128680000Y-108647648D01*
X128680000Y-108521009D01*
X128639111Y-108368409D01*
X128628482Y-108350000D01*
X129480000Y-108350000D01*
X129480000Y-108089818D01*
X129445526Y-107872164D01*
X129377432Y-107662589D01*
X129277386Y-107466239D01*
X129147857Y-107287958D01*
X128992041Y-107132142D01*
X128813760Y-107002613D01*
X128617410Y-106902567D01*
X128407836Y-106834473D01*
X128330000Y-106822144D01*
X128330000Y-108051517D01*
X128311591Y-108040889D01*
X128158991Y-108000000D01*
X128001009Y-108000000D01*
X127848409Y-108040889D01*
X127830000Y-108051517D01*
X127830000Y-106822144D01*
X127752164Y-106834473D01*
X127752161Y-106834473D01*
X127542589Y-106902567D01*
X127346239Y-107002613D01*
X127167958Y-107132142D01*
X127012142Y-107287958D01*
X127012142Y-107287959D01*
X126910627Y-107427681D01*
X126855297Y-107470346D01*
X126785683Y-107476325D01*
X126723888Y-107443719D01*
X126709991Y-107427680D01*
X126608247Y-107287641D01*
X126608243Y-107287636D01*
X126452363Y-107131756D01*
X126452358Y-107131752D01*
X126274025Y-107002187D01*
X126274024Y-107002186D01*
X126274022Y-107002185D01*
X126156791Y-106942452D01*
X126077606Y-106902104D01*
X126077603Y-106902103D01*
X125867952Y-106833985D01*
X125759086Y-106816742D01*
X125650222Y-106799500D01*
X125429778Y-106799500D01*
X125357201Y-106810995D01*
X125212047Y-106833985D01*
X125002396Y-106902103D01*
X125002393Y-106902104D01*
X124805974Y-107002187D01*
X124627641Y-107131752D01*
X124627636Y-107131756D01*
X124471756Y-107287636D01*
X124471752Y-107287641D01*
X124370318Y-107427254D01*
X124314988Y-107469920D01*
X124245375Y-107475899D01*
X124183580Y-107443293D01*
X124169682Y-107427254D01*
X124068247Y-107287641D01*
X124068243Y-107287636D01*
X123912363Y-107131756D01*
X123912358Y-107131752D01*
X123734025Y-107002187D01*
X123734024Y-107002186D01*
X123734022Y-107002185D01*
X123616791Y-106942452D01*
X123537606Y-106902104D01*
X123537603Y-106902103D01*
X123327952Y-106833985D01*
X123219086Y-106816742D01*
X123110222Y-106799500D01*
X122889778Y-106799500D01*
X122817201Y-106810995D01*
X122672047Y-106833985D01*
X122462396Y-106902103D01*
X122462393Y-106902104D01*
X122265974Y-107002187D01*
X122087641Y-107131752D01*
X122087636Y-107131756D01*
X121931756Y-107287636D01*
X121931752Y-107287641D01*
X121830318Y-107427254D01*
X121774988Y-107469920D01*
X121705375Y-107475899D01*
X121643580Y-107443293D01*
X121629682Y-107427254D01*
X121528247Y-107287641D01*
X121528243Y-107287636D01*
X121372363Y-107131756D01*
X121372358Y-107131752D01*
X121194025Y-107002187D01*
X121194024Y-107002186D01*
X121194022Y-107002185D01*
X121076791Y-106942452D01*
X120997606Y-106902104D01*
X120997603Y-106902103D01*
X120787952Y-106833985D01*
X120679086Y-106816742D01*
X120570222Y-106799500D01*
X120349778Y-106799500D01*
X120277201Y-106810995D01*
X120132047Y-106833985D01*
X119922396Y-106902103D01*
X119922393Y-106902104D01*
X119725974Y-107002187D01*
X119547641Y-107131752D01*
X119547636Y-107131756D01*
X119391756Y-107287636D01*
X119391752Y-107287641D01*
X119290318Y-107427254D01*
X119234988Y-107469920D01*
X119165375Y-107475899D01*
X119103580Y-107443293D01*
X119089682Y-107427254D01*
X118988247Y-107287641D01*
X118988243Y-107287636D01*
X118832363Y-107131756D01*
X118832358Y-107131752D01*
X118654025Y-107002187D01*
X118654024Y-107002186D01*
X118654022Y-107002185D01*
X118536791Y-106942452D01*
X118457606Y-106902104D01*
X118457603Y-106902103D01*
X118247952Y-106833985D01*
X118139086Y-106816742D01*
X118030222Y-106799500D01*
X117809778Y-106799500D01*
X117737201Y-106810995D01*
X117592047Y-106833985D01*
X117382396Y-106902103D01*
X117382393Y-106902104D01*
X117185974Y-107002187D01*
X117007641Y-107131752D01*
X117007636Y-107131756D01*
X116851756Y-107287636D01*
X116851752Y-107287641D01*
X116750318Y-107427254D01*
X116694988Y-107469920D01*
X116625375Y-107475899D01*
X116563580Y-107443293D01*
X116549682Y-107427254D01*
X116448247Y-107287641D01*
X116448243Y-107287636D01*
X116292363Y-107131756D01*
X116292358Y-107131752D01*
X116114025Y-107002187D01*
X116114024Y-107002186D01*
X116114022Y-107002185D01*
X115996791Y-106942452D01*
X115917606Y-106902104D01*
X115917603Y-106902103D01*
X115707952Y-106833985D01*
X115599086Y-106816742D01*
X115490222Y-106799500D01*
X115269778Y-106799500D01*
X115197201Y-106810995D01*
X115052047Y-106833985D01*
X114842396Y-106902103D01*
X114842393Y-106902104D01*
X114645974Y-107002187D01*
X114467641Y-107131752D01*
X114467636Y-107131756D01*
X114311756Y-107287636D01*
X114311752Y-107287641D01*
X114210318Y-107427254D01*
X114154988Y-107469920D01*
X114085375Y-107475899D01*
X114023580Y-107443293D01*
X114009682Y-107427254D01*
X113908247Y-107287641D01*
X113908243Y-107287636D01*
X113752363Y-107131756D01*
X113752358Y-107131752D01*
X113574025Y-107002187D01*
X113574024Y-107002186D01*
X113574022Y-107002185D01*
X113456791Y-106942452D01*
X113377606Y-106902104D01*
X113377603Y-106902103D01*
X113167952Y-106833985D01*
X113059086Y-106816742D01*
X112950222Y-106799500D01*
X112729778Y-106799500D01*
X112657201Y-106810995D01*
X112512047Y-106833985D01*
X112302396Y-106902103D01*
X112302393Y-106902104D01*
X112105974Y-107002187D01*
X111927641Y-107131752D01*
X111927636Y-107131756D01*
X111771756Y-107287636D01*
X111771752Y-107287641D01*
X111670318Y-107427254D01*
X111614988Y-107469920D01*
X111545375Y-107475899D01*
X111483580Y-107443293D01*
X111469682Y-107427254D01*
X111368247Y-107287641D01*
X111368243Y-107287636D01*
X111212363Y-107131756D01*
X111212358Y-107131752D01*
X111034025Y-107002187D01*
X111034024Y-107002186D01*
X111034022Y-107002185D01*
X110916791Y-106942452D01*
X110837606Y-106902104D01*
X110837603Y-106902103D01*
X110627952Y-106833985D01*
X110519086Y-106816742D01*
X110410222Y-106799500D01*
X110189778Y-106799500D01*
X110117201Y-106810995D01*
X109972047Y-106833985D01*
X109762396Y-106902103D01*
X109762393Y-106902104D01*
X109565974Y-107002187D01*
X109387641Y-107131752D01*
X109387636Y-107131756D01*
X109231756Y-107287636D01*
X109231752Y-107287641D01*
X109130318Y-107427254D01*
X109074988Y-107469920D01*
X109005375Y-107475899D01*
X108943580Y-107443293D01*
X108929682Y-107427254D01*
X108828247Y-107287641D01*
X108828243Y-107287636D01*
X108672363Y-107131756D01*
X108672358Y-107131752D01*
X108494025Y-107002187D01*
X108494024Y-107002186D01*
X108494022Y-107002185D01*
X108376791Y-106942452D01*
X108297606Y-106902104D01*
X108297603Y-106902103D01*
X108087952Y-106833985D01*
X107979086Y-106816742D01*
X107870222Y-106799500D01*
X107649778Y-106799500D01*
X107577201Y-106810995D01*
X107432047Y-106833985D01*
X107222396Y-106902103D01*
X107222393Y-106902104D01*
X107025974Y-107002187D01*
X106847641Y-107131752D01*
X106847636Y-107131756D01*
X106691756Y-107287636D01*
X106691752Y-107287641D01*
X106590318Y-107427254D01*
X106534988Y-107469920D01*
X106465375Y-107475899D01*
X106403580Y-107443293D01*
X106389682Y-107427254D01*
X106288247Y-107287641D01*
X106288243Y-107287636D01*
X106132363Y-107131756D01*
X106132358Y-107131752D01*
X105954025Y-107002187D01*
X105954024Y-107002186D01*
X105954022Y-107002185D01*
X105836791Y-106942452D01*
X105757606Y-106902104D01*
X105757603Y-106902103D01*
X105547952Y-106833985D01*
X105439086Y-106816742D01*
X105330222Y-106799500D01*
X105109778Y-106799500D01*
X105037201Y-106810995D01*
X104892047Y-106833985D01*
X104682396Y-106902103D01*
X104682393Y-106902104D01*
X104485974Y-107002187D01*
X104307641Y-107131752D01*
X104307636Y-107131756D01*
X104151756Y-107287636D01*
X104151752Y-107287641D01*
X104050318Y-107427254D01*
X103994988Y-107469920D01*
X103925375Y-107475899D01*
X103863580Y-107443293D01*
X103849682Y-107427254D01*
X103748247Y-107287641D01*
X103748243Y-107287636D01*
X103592363Y-107131756D01*
X103592358Y-107131752D01*
X103414025Y-107002187D01*
X103414024Y-107002186D01*
X103414022Y-107002185D01*
X103296791Y-106942452D01*
X103217606Y-106902104D01*
X103217603Y-106902103D01*
X103007952Y-106833985D01*
X102899086Y-106816742D01*
X102790222Y-106799500D01*
X102569778Y-106799500D01*
X102497201Y-106810995D01*
X102352047Y-106833985D01*
X102142396Y-106902103D01*
X102142393Y-106902104D01*
X101945974Y-107002187D01*
X101767641Y-107131752D01*
X101767636Y-107131756D01*
X101611756Y-107287636D01*
X101510008Y-107427681D01*
X101454678Y-107470346D01*
X101385065Y-107476325D01*
X101323270Y-107443719D01*
X101309372Y-107427680D01*
X101207862Y-107287964D01*
X101207857Y-107287958D01*
X101052041Y-107132142D01*
X100873760Y-107002613D01*
X100677410Y-106902567D01*
X100467836Y-106834473D01*
X100390000Y-106822144D01*
X100390000Y-108051517D01*
X100371591Y-108040889D01*
X100218991Y-108000000D01*
X100061009Y-108000000D01*
X99908409Y-108040889D01*
X99890000Y-108051517D01*
X99890000Y-106822144D01*
X99812164Y-106834473D01*
X99812161Y-106834473D01*
X99602589Y-106902567D01*
X99406239Y-107002613D01*
X99227958Y-107132142D01*
X99072142Y-107287958D01*
X99072142Y-107287959D01*
X98970627Y-107427681D01*
X98915297Y-107470346D01*
X98845683Y-107476325D01*
X98783888Y-107443719D01*
X98769991Y-107427680D01*
X98668247Y-107287641D01*
X98668243Y-107287636D01*
X98512363Y-107131756D01*
X98512358Y-107131752D01*
X98334025Y-107002187D01*
X98334024Y-107002186D01*
X98334022Y-107002185D01*
X98216791Y-106942452D01*
X98137606Y-106902104D01*
X98137603Y-106902103D01*
X97927952Y-106833985D01*
X97819086Y-106816742D01*
X97710222Y-106799500D01*
X97489778Y-106799500D01*
X97417201Y-106810995D01*
X97272047Y-106833985D01*
X97062396Y-106902103D01*
X97062393Y-106902104D01*
X96865974Y-107002187D01*
X96687641Y-107131752D01*
X96687636Y-107131756D01*
X96531756Y-107287636D01*
X96531752Y-107287641D01*
X96430318Y-107427254D01*
X96374988Y-107469920D01*
X96305375Y-107475899D01*
X96243580Y-107443293D01*
X96229682Y-107427254D01*
X96128247Y-107287641D01*
X96128243Y-107287636D01*
X95972363Y-107131756D01*
X95972358Y-107131752D01*
X95794025Y-107002187D01*
X95794024Y-107002186D01*
X95794022Y-107002185D01*
X95676791Y-106942452D01*
X95597606Y-106902104D01*
X95597603Y-106902103D01*
X95387952Y-106833985D01*
X95279086Y-106816742D01*
X95170222Y-106799500D01*
X94949778Y-106799500D01*
X94877201Y-106810995D01*
X94732047Y-106833985D01*
X94522396Y-106902103D01*
X94522393Y-106902104D01*
X94325974Y-107002187D01*
X94147641Y-107131752D01*
X94147636Y-107131756D01*
X93991756Y-107287636D01*
X93890008Y-107427681D01*
X93834678Y-107470346D01*
X93765065Y-107476325D01*
X93703270Y-107443719D01*
X93689372Y-107427680D01*
X93587862Y-107287964D01*
X93587857Y-107287958D01*
X93432041Y-107132142D01*
X93253760Y-107002613D01*
X93057410Y-106902567D01*
X92847836Y-106834473D01*
X92770000Y-106822144D01*
X92770000Y-108051517D01*
X92751591Y-108040889D01*
X92598991Y-108000000D01*
X92441009Y-108000000D01*
X92288409Y-108040889D01*
X92270000Y-108051517D01*
X92270000Y-106822144D01*
X92192164Y-106834473D01*
X92192161Y-106834473D01*
X91982589Y-106902567D01*
X91786239Y-107002613D01*
X91607958Y-107132142D01*
X91557655Y-107182445D01*
X91496332Y-107215929D01*
X91426640Y-107210944D01*
X91370707Y-107169073D01*
X91353793Y-107138095D01*
X91323798Y-107057673D01*
X91323793Y-107057664D01*
X91237547Y-106942455D01*
X91237544Y-106942452D01*
X91122335Y-106856206D01*
X91122328Y-106856202D01*
X90987482Y-106805908D01*
X90987483Y-106805908D01*
X90927883Y-106799501D01*
X90927881Y-106799500D01*
X90927873Y-106799500D01*
X90927864Y-106799500D01*
X89032129Y-106799500D01*
X89032123Y-106799501D01*
X88972516Y-106805908D01*
X88837671Y-106856202D01*
X88837664Y-106856206D01*
X88722455Y-106942452D01*
X88722452Y-106942455D01*
X88636206Y-107057664D01*
X88636202Y-107057671D01*
X88585908Y-107192517D01*
X88579501Y-107252116D01*
X88579500Y-107252135D01*
X85962169Y-107252135D01*
X85802760Y-107092726D01*
X85802751Y-107092718D01*
X85594703Y-106933075D01*
X85367600Y-106801958D01*
X85367590Y-106801953D01*
X85125328Y-106701605D01*
X85125321Y-106701603D01*
X85125319Y-106701602D01*
X84872016Y-106633730D01*
X84814239Y-106626123D01*
X84612027Y-106599500D01*
X84612020Y-106599500D01*
X84349780Y-106599500D01*
X84349772Y-106599500D01*
X84118672Y-106629926D01*
X84089784Y-106633730D01*
X83836481Y-106701602D01*
X83836471Y-106701605D01*
X83594209Y-106801953D01*
X83594199Y-106801958D01*
X83367096Y-106933075D01*
X83159048Y-107092718D01*
X82973618Y-107278148D01*
X82813975Y-107486196D01*
X82682858Y-107713299D01*
X82682853Y-107713309D01*
X82582505Y-107955571D01*
X82582502Y-107955581D01*
X82546534Y-108089818D01*
X82514630Y-108208885D01*
X82480400Y-108468872D01*
X78500500Y-108468872D01*
X78500500Y-100843384D01*
X82139500Y-100843384D01*
X82139500Y-102156616D01*
X82141423Y-102177778D01*
X82145913Y-102227192D01*
X82196522Y-102389606D01*
X82284530Y-102535188D01*
X82404811Y-102655469D01*
X82404813Y-102655470D01*
X82404815Y-102655472D01*
X82550394Y-102743478D01*
X82712804Y-102794086D01*
X82783384Y-102800500D01*
X82783387Y-102800500D01*
X84096613Y-102800500D01*
X84096616Y-102800500D01*
X84167196Y-102794086D01*
X84329606Y-102743478D01*
X84475185Y-102655472D01*
X84595472Y-102535185D01*
X84683478Y-102389606D01*
X84710641Y-102302433D01*
X84749377Y-102244288D01*
X84813402Y-102216313D01*
X84882388Y-102227394D01*
X84929344Y-102266440D01*
X84988028Y-102347212D01*
X84988032Y-102347217D01*
X85132786Y-102491971D01*
X85257343Y-102582465D01*
X85298390Y-102612287D01*
X85414607Y-102671503D01*
X85480776Y-102705218D01*
X85480778Y-102705218D01*
X85480781Y-102705220D01*
X85574940Y-102735814D01*
X85675465Y-102768477D01*
X85776557Y-102784488D01*
X85877648Y-102800500D01*
X85877649Y-102800500D01*
X86082351Y-102800500D01*
X86082352Y-102800500D01*
X86284534Y-102768477D01*
X86479219Y-102705220D01*
X86661610Y-102612287D01*
X86767733Y-102535185D01*
X86827213Y-102491971D01*
X86827215Y-102491968D01*
X86827219Y-102491966D01*
X86971966Y-102347219D01*
X86971968Y-102347215D01*
X86971971Y-102347213D01*
X87092286Y-102181611D01*
X87092287Y-102181610D01*
X87136058Y-102095703D01*
X87184030Y-102044909D01*
X87251851Y-102028113D01*
X87317986Y-102050650D01*
X87355900Y-102093545D01*
X87391155Y-102159500D01*
X87391161Y-102159511D01*
X87437534Y-102228912D01*
X88037037Y-101629410D01*
X88054075Y-101692993D01*
X88119901Y-101807007D01*
X88212993Y-101900099D01*
X88327007Y-101965925D01*
X88390589Y-101982962D01*
X87791085Y-102582465D01*
X87860488Y-102628838D01*
X87860498Y-102628844D01*
X87947801Y-102675509D01*
X88093387Y-102735814D01*
X88188135Y-102764555D01*
X88342699Y-102795298D01*
X88441210Y-102805000D01*
X88598790Y-102805000D01*
X88697299Y-102795298D01*
X88697302Y-102795298D01*
X88851864Y-102764555D01*
X88946612Y-102735814D01*
X89092198Y-102675509D01*
X89179511Y-102628838D01*
X89179515Y-102628837D01*
X89248913Y-102582465D01*
X88649410Y-101982962D01*
X88712993Y-101965925D01*
X88827007Y-101900099D01*
X88920099Y-101807007D01*
X88985925Y-101692993D01*
X89002962Y-101629410D01*
X89602464Y-102228913D01*
X89602465Y-102228913D01*
X89648837Y-102159515D01*
X89648843Y-102159503D01*
X89684099Y-102093546D01*
X89733061Y-102043702D01*
X89801199Y-102028241D01*
X89866879Y-102052073D01*
X89903941Y-102095702D01*
X89934976Y-102156613D01*
X89947715Y-102181614D01*
X90068028Y-102347213D01*
X90212786Y-102491971D01*
X90337343Y-102582465D01*
X90378390Y-102612287D01*
X90494607Y-102671503D01*
X90560776Y-102705218D01*
X90560778Y-102705218D01*
X90560781Y-102705220D01*
X90654940Y-102735814D01*
X90755465Y-102768477D01*
X90856557Y-102784488D01*
X90957648Y-102800500D01*
X90957649Y-102800500D01*
X91162351Y-102800500D01*
X91162352Y-102800500D01*
X91364534Y-102768477D01*
X91559219Y-102705220D01*
X91741610Y-102612287D01*
X91847733Y-102535185D01*
X91907213Y-102491971D01*
X91907215Y-102491968D01*
X91907219Y-102491966D01*
X92051966Y-102347219D01*
X92051968Y-102347215D01*
X92051971Y-102347213D01*
X92172284Y-102181614D01*
X92172286Y-102181611D01*
X92172287Y-102181610D01*
X92219516Y-102088917D01*
X92267489Y-102038123D01*
X92335310Y-102021328D01*
X92401445Y-102043865D01*
X92440483Y-102088917D01*
X92474976Y-102156613D01*
X92487715Y-102181614D01*
X92608028Y-102347213D01*
X92752786Y-102491971D01*
X92877343Y-102582465D01*
X92918390Y-102612287D01*
X93034607Y-102671503D01*
X93100776Y-102705218D01*
X93100778Y-102705218D01*
X93100781Y-102705220D01*
X93194940Y-102735814D01*
X93295465Y-102768477D01*
X93396557Y-102784488D01*
X93497648Y-102800500D01*
X93497649Y-102800500D01*
X93702351Y-102800500D01*
X93702352Y-102800500D01*
X93904534Y-102768477D01*
X94099219Y-102705220D01*
X94281610Y-102612287D01*
X94387733Y-102535185D01*
X94447213Y-102491971D01*
X94447215Y-102491968D01*
X94447219Y-102491966D01*
X94591966Y-102347219D01*
X94591968Y-102347215D01*
X94591971Y-102347213D01*
X94712284Y-102181614D01*
X94712286Y-102181611D01*
X94712287Y-102181610D01*
X94759516Y-102088917D01*
X94807489Y-102038123D01*
X94875310Y-102021328D01*
X94941445Y-102043865D01*
X94980483Y-102088917D01*
X95014976Y-102156613D01*
X95027715Y-102181614D01*
X95148028Y-102347213D01*
X95292786Y-102491971D01*
X95417343Y-102582465D01*
X95458390Y-102612287D01*
X95574607Y-102671503D01*
X95640776Y-102705218D01*
X95640778Y-102705218D01*
X95640781Y-102705220D01*
X95734940Y-102735814D01*
X95835465Y-102768477D01*
X95936557Y-102784488D01*
X96037648Y-102800500D01*
X96037649Y-102800500D01*
X96242351Y-102800500D01*
X96242352Y-102800500D01*
X96444534Y-102768477D01*
X96639219Y-102705220D01*
X96821610Y-102612287D01*
X96927733Y-102535185D01*
X96987213Y-102491971D01*
X96987215Y-102491968D01*
X96987219Y-102491966D01*
X97131966Y-102347219D01*
X97131968Y-102347215D01*
X97131971Y-102347213D01*
X97252284Y-102181614D01*
X97252286Y-102181611D01*
X97252287Y-102181610D01*
X97299516Y-102088917D01*
X97347489Y-102038123D01*
X97415310Y-102021328D01*
X97481445Y-102043865D01*
X97520483Y-102088917D01*
X97554976Y-102156613D01*
X97567715Y-102181614D01*
X97688028Y-102347213D01*
X97832786Y-102491971D01*
X97957343Y-102582465D01*
X97998390Y-102612287D01*
X98114607Y-102671503D01*
X98180776Y-102705218D01*
X98180778Y-102705218D01*
X98180781Y-102705220D01*
X98274940Y-102735814D01*
X98375465Y-102768477D01*
X98476557Y-102784488D01*
X98577648Y-102800500D01*
X98577649Y-102800500D01*
X98782351Y-102800500D01*
X98782352Y-102800500D01*
X98984534Y-102768477D01*
X99179219Y-102705220D01*
X99361610Y-102612287D01*
X99467733Y-102535185D01*
X99527213Y-102491971D01*
X99527215Y-102491968D01*
X99527219Y-102491966D01*
X99671966Y-102347219D01*
X99671968Y-102347215D01*
X99671971Y-102347213D01*
X99792286Y-102181611D01*
X99792287Y-102181610D01*
X99836058Y-102095703D01*
X99884030Y-102044909D01*
X99951851Y-102028113D01*
X100017986Y-102050650D01*
X100055900Y-102093545D01*
X100091155Y-102159500D01*
X100091161Y-102159511D01*
X100137534Y-102228912D01*
X100737037Y-101629410D01*
X100754075Y-101692993D01*
X100819901Y-101807007D01*
X100912993Y-101900099D01*
X101027007Y-101965925D01*
X101090589Y-101982962D01*
X100491085Y-102582465D01*
X100560488Y-102628838D01*
X100560498Y-102628844D01*
X100647801Y-102675509D01*
X100793387Y-102735814D01*
X100888135Y-102764555D01*
X101042699Y-102795298D01*
X101141210Y-102805000D01*
X101298790Y-102805000D01*
X101397299Y-102795298D01*
X101397302Y-102795298D01*
X101551864Y-102764555D01*
X101646612Y-102735814D01*
X101792198Y-102675509D01*
X101879511Y-102628838D01*
X101879515Y-102628837D01*
X101948913Y-102582465D01*
X101349410Y-101982962D01*
X101412993Y-101965925D01*
X101527007Y-101900099D01*
X101620099Y-101807007D01*
X101685925Y-101692993D01*
X101702962Y-101629410D01*
X102302464Y-102228913D01*
X102302465Y-102228913D01*
X102348837Y-102159515D01*
X102348843Y-102159503D01*
X102384099Y-102093546D01*
X102433061Y-102043702D01*
X102501199Y-102028241D01*
X102566879Y-102052073D01*
X102603941Y-102095702D01*
X102634976Y-102156613D01*
X102647715Y-102181614D01*
X102768028Y-102347213D01*
X102912786Y-102491971D01*
X103037343Y-102582465D01*
X103078390Y-102612287D01*
X103194607Y-102671503D01*
X103260776Y-102705218D01*
X103260778Y-102705218D01*
X103260781Y-102705220D01*
X103354940Y-102735814D01*
X103455465Y-102768477D01*
X103556557Y-102784488D01*
X103657648Y-102800500D01*
X103657649Y-102800500D01*
X103862351Y-102800500D01*
X103862352Y-102800500D01*
X104064534Y-102768477D01*
X104259219Y-102705220D01*
X104441610Y-102612287D01*
X104547733Y-102535185D01*
X104607213Y-102491971D01*
X104607215Y-102491968D01*
X104607219Y-102491966D01*
X104751966Y-102347219D01*
X104751968Y-102347215D01*
X104751971Y-102347213D01*
X104872284Y-102181614D01*
X104872286Y-102181611D01*
X104872287Y-102181610D01*
X104919516Y-102088917D01*
X104967489Y-102038123D01*
X105035310Y-102021328D01*
X105101445Y-102043865D01*
X105140483Y-102088917D01*
X105174976Y-102156613D01*
X105187715Y-102181614D01*
X105308028Y-102347213D01*
X105452786Y-102491971D01*
X105577343Y-102582465D01*
X105618390Y-102612287D01*
X105734607Y-102671503D01*
X105800776Y-102705218D01*
X105800778Y-102705218D01*
X105800781Y-102705220D01*
X105894940Y-102735814D01*
X105995465Y-102768477D01*
X106096557Y-102784488D01*
X106197648Y-102800500D01*
X106197649Y-102800500D01*
X106402351Y-102800500D01*
X106402352Y-102800500D01*
X106604534Y-102768477D01*
X106799219Y-102705220D01*
X106981610Y-102612287D01*
X107087733Y-102535185D01*
X107147213Y-102491971D01*
X107147215Y-102491968D01*
X107147219Y-102491966D01*
X107291966Y-102347219D01*
X107291968Y-102347215D01*
X107291971Y-102347213D01*
X107412284Y-102181614D01*
X107412286Y-102181611D01*
X107412287Y-102181610D01*
X107459516Y-102088917D01*
X107507489Y-102038123D01*
X107575310Y-102021328D01*
X107641445Y-102043865D01*
X107680483Y-102088917D01*
X107714976Y-102156613D01*
X107727715Y-102181614D01*
X107848028Y-102347213D01*
X107992786Y-102491971D01*
X108117343Y-102582465D01*
X108158390Y-102612287D01*
X108274607Y-102671503D01*
X108340776Y-102705218D01*
X108340778Y-102705218D01*
X108340781Y-102705220D01*
X108434940Y-102735814D01*
X108535465Y-102768477D01*
X108636557Y-102784488D01*
X108737648Y-102800500D01*
X108737649Y-102800500D01*
X108942351Y-102800500D01*
X108942352Y-102800500D01*
X109144534Y-102768477D01*
X109339219Y-102705220D01*
X109521610Y-102612287D01*
X109627733Y-102535185D01*
X109687213Y-102491971D01*
X109687215Y-102491968D01*
X109687219Y-102491966D01*
X109831966Y-102347219D01*
X109831968Y-102347215D01*
X109831971Y-102347213D01*
X109952284Y-102181614D01*
X109952286Y-102181611D01*
X109952287Y-102181610D01*
X109999516Y-102088917D01*
X110047489Y-102038123D01*
X110115310Y-102021328D01*
X110181445Y-102043865D01*
X110220483Y-102088917D01*
X110254976Y-102156613D01*
X110267715Y-102181614D01*
X110388028Y-102347213D01*
X110532786Y-102491971D01*
X110657343Y-102582465D01*
X110698390Y-102612287D01*
X110814607Y-102671503D01*
X110880776Y-102705218D01*
X110880778Y-102705218D01*
X110880781Y-102705220D01*
X110974940Y-102735814D01*
X111075465Y-102768477D01*
X111176557Y-102784488D01*
X111277648Y-102800500D01*
X111277649Y-102800500D01*
X111482351Y-102800500D01*
X111482352Y-102800500D01*
X111684534Y-102768477D01*
X111879219Y-102705220D01*
X112061610Y-102612287D01*
X112167733Y-102535185D01*
X112227213Y-102491971D01*
X112227215Y-102491968D01*
X112227219Y-102491966D01*
X112371966Y-102347219D01*
X112371968Y-102347215D01*
X112371971Y-102347213D01*
X112492286Y-102181611D01*
X112492287Y-102181610D01*
X112536058Y-102095703D01*
X112584030Y-102044909D01*
X112651851Y-102028113D01*
X112717986Y-102050650D01*
X112755900Y-102093545D01*
X112791155Y-102159500D01*
X112791161Y-102159511D01*
X112837534Y-102228912D01*
X113437037Y-101629410D01*
X113454075Y-101692993D01*
X113519901Y-101807007D01*
X113612993Y-101900099D01*
X113727007Y-101965925D01*
X113790589Y-101982962D01*
X113191085Y-102582465D01*
X113260488Y-102628838D01*
X113260498Y-102628844D01*
X113347801Y-102675509D01*
X113493387Y-102735814D01*
X113588135Y-102764555D01*
X113742699Y-102795298D01*
X113841210Y-102805000D01*
X113998790Y-102805000D01*
X114097299Y-102795298D01*
X114097302Y-102795298D01*
X114251864Y-102764555D01*
X114346612Y-102735814D01*
X114492198Y-102675509D01*
X114579511Y-102628838D01*
X114579515Y-102628837D01*
X114648913Y-102582465D01*
X114049410Y-101982962D01*
X114112993Y-101965925D01*
X114227007Y-101900099D01*
X114320099Y-101807007D01*
X114385925Y-101692993D01*
X114402962Y-101629410D01*
X115002464Y-102228913D01*
X115002465Y-102228913D01*
X115048837Y-102159515D01*
X115048843Y-102159503D01*
X115084099Y-102093546D01*
X115133061Y-102043702D01*
X115201199Y-102028241D01*
X115266879Y-102052073D01*
X115303941Y-102095702D01*
X115334976Y-102156613D01*
X115347715Y-102181614D01*
X115468028Y-102347213D01*
X115612786Y-102491971D01*
X115737343Y-102582465D01*
X115778390Y-102612287D01*
X115894607Y-102671503D01*
X115960776Y-102705218D01*
X115960778Y-102705218D01*
X115960781Y-102705220D01*
X116054940Y-102735814D01*
X116155465Y-102768477D01*
X116256557Y-102784488D01*
X116357648Y-102800500D01*
X116357649Y-102800500D01*
X116562351Y-102800500D01*
X116562352Y-102800500D01*
X116764534Y-102768477D01*
X116959219Y-102705220D01*
X117141610Y-102612287D01*
X117247733Y-102535185D01*
X117307213Y-102491971D01*
X117307215Y-102491968D01*
X117307219Y-102491966D01*
X117451966Y-102347219D01*
X117451968Y-102347215D01*
X117451971Y-102347213D01*
X117572284Y-102181614D01*
X117572286Y-102181611D01*
X117572287Y-102181610D01*
X117619516Y-102088917D01*
X117667489Y-102038123D01*
X117735310Y-102021328D01*
X117801445Y-102043865D01*
X117840483Y-102088917D01*
X117874976Y-102156613D01*
X117887715Y-102181614D01*
X118008028Y-102347213D01*
X118152786Y-102491971D01*
X118277343Y-102582465D01*
X118318390Y-102612287D01*
X118434607Y-102671503D01*
X118500776Y-102705218D01*
X118500778Y-102705218D01*
X118500781Y-102705220D01*
X118594940Y-102735814D01*
X118695465Y-102768477D01*
X118796557Y-102784488D01*
X118897648Y-102800500D01*
X118897649Y-102800500D01*
X119102351Y-102800500D01*
X119102352Y-102800500D01*
X119304534Y-102768477D01*
X119499219Y-102705220D01*
X119681610Y-102612287D01*
X119787733Y-102535185D01*
X119847213Y-102491971D01*
X119847215Y-102491968D01*
X119847219Y-102491966D01*
X119991966Y-102347219D01*
X119991968Y-102347215D01*
X119991971Y-102347213D01*
X120112284Y-102181614D01*
X120112286Y-102181611D01*
X120112287Y-102181610D01*
X120159516Y-102088917D01*
X120207489Y-102038123D01*
X120275310Y-102021328D01*
X120341445Y-102043865D01*
X120380483Y-102088917D01*
X120414976Y-102156613D01*
X120427715Y-102181614D01*
X120548028Y-102347213D01*
X120692786Y-102491971D01*
X120817343Y-102582465D01*
X120858390Y-102612287D01*
X120974607Y-102671503D01*
X121040776Y-102705218D01*
X121040778Y-102705218D01*
X121040781Y-102705220D01*
X121134940Y-102735814D01*
X121235465Y-102768477D01*
X121336557Y-102784488D01*
X121437648Y-102800500D01*
X121437649Y-102800500D01*
X121642351Y-102800500D01*
X121642352Y-102800500D01*
X121844534Y-102768477D01*
X122039219Y-102705220D01*
X122221610Y-102612287D01*
X122327733Y-102535185D01*
X122387213Y-102491971D01*
X122387215Y-102491968D01*
X122387219Y-102491966D01*
X122531966Y-102347219D01*
X122531968Y-102347215D01*
X122531971Y-102347213D01*
X122652284Y-102181614D01*
X122652286Y-102181611D01*
X122652287Y-102181610D01*
X122699516Y-102088917D01*
X122747489Y-102038123D01*
X122815310Y-102021328D01*
X122881445Y-102043865D01*
X122920483Y-102088917D01*
X122954976Y-102156613D01*
X122967715Y-102181614D01*
X123088028Y-102347213D01*
X123232786Y-102491971D01*
X123357343Y-102582465D01*
X123398390Y-102612287D01*
X123514607Y-102671503D01*
X123580776Y-102705218D01*
X123580778Y-102705218D01*
X123580781Y-102705220D01*
X123674940Y-102735814D01*
X123775465Y-102768477D01*
X123876557Y-102784488D01*
X123977648Y-102800500D01*
X123977649Y-102800500D01*
X124182351Y-102800500D01*
X124182352Y-102800500D01*
X124384534Y-102768477D01*
X124579219Y-102705220D01*
X124761610Y-102612287D01*
X124867733Y-102535185D01*
X124927213Y-102491971D01*
X124927215Y-102491968D01*
X124927219Y-102491966D01*
X125071966Y-102347219D01*
X125071968Y-102347215D01*
X125071971Y-102347213D01*
X125192286Y-102181611D01*
X125192287Y-102181610D01*
X125236058Y-102095703D01*
X125284030Y-102044909D01*
X125351851Y-102028113D01*
X125417986Y-102050650D01*
X125455900Y-102093545D01*
X125491155Y-102159500D01*
X125491161Y-102159511D01*
X125537534Y-102228912D01*
X126137037Y-101629410D01*
X126154075Y-101692993D01*
X126219901Y-101807007D01*
X126312993Y-101900099D01*
X126427007Y-101965925D01*
X126490589Y-101982962D01*
X125891085Y-102582465D01*
X125960488Y-102628838D01*
X125960498Y-102628844D01*
X126047801Y-102675509D01*
X126193387Y-102735814D01*
X126288135Y-102764555D01*
X126442699Y-102795298D01*
X126541210Y-102805000D01*
X126698790Y-102805000D01*
X126797299Y-102795298D01*
X126797302Y-102795298D01*
X126951864Y-102764555D01*
X127046612Y-102735814D01*
X127192198Y-102675509D01*
X127279511Y-102628838D01*
X127279515Y-102628837D01*
X127348913Y-102582465D01*
X126749410Y-101982962D01*
X126812993Y-101965925D01*
X126927007Y-101900099D01*
X127020099Y-101807007D01*
X127085925Y-101692993D01*
X127102962Y-101629410D01*
X127702464Y-102228913D01*
X127702465Y-102228913D01*
X127748837Y-102159515D01*
X127748843Y-102159503D01*
X127784099Y-102093546D01*
X127833061Y-102043702D01*
X127901199Y-102028241D01*
X127966879Y-102052073D01*
X128003941Y-102095702D01*
X128034976Y-102156613D01*
X128047715Y-102181614D01*
X128168028Y-102347213D01*
X128312786Y-102491971D01*
X128437343Y-102582465D01*
X128478390Y-102612287D01*
X128594607Y-102671503D01*
X128660776Y-102705218D01*
X128660778Y-102705218D01*
X128660781Y-102705220D01*
X128754940Y-102735814D01*
X128855465Y-102768477D01*
X128956557Y-102784488D01*
X129057648Y-102800500D01*
X129057649Y-102800500D01*
X129262351Y-102800500D01*
X129262352Y-102800500D01*
X129464534Y-102768477D01*
X129659219Y-102705220D01*
X129841610Y-102612287D01*
X129947733Y-102535185D01*
X130007213Y-102491971D01*
X130007215Y-102491968D01*
X130007219Y-102491966D01*
X130151966Y-102347219D01*
X130151968Y-102347215D01*
X130151971Y-102347213D01*
X130272284Y-102181614D01*
X130272286Y-102181611D01*
X130272287Y-102181610D01*
X130319516Y-102088917D01*
X130367489Y-102038123D01*
X130435310Y-102021328D01*
X130501445Y-102043865D01*
X130540483Y-102088917D01*
X130574976Y-102156613D01*
X130587715Y-102181614D01*
X130708028Y-102347213D01*
X130852786Y-102491971D01*
X130977343Y-102582465D01*
X131018390Y-102612287D01*
X131134607Y-102671503D01*
X131200776Y-102705218D01*
X131200778Y-102705218D01*
X131200781Y-102705220D01*
X131294940Y-102735814D01*
X131395465Y-102768477D01*
X131496557Y-102784488D01*
X131597648Y-102800500D01*
X131597649Y-102800500D01*
X131802351Y-102800500D01*
X131802352Y-102800500D01*
X132004534Y-102768477D01*
X132199219Y-102705220D01*
X132381610Y-102612287D01*
X132487733Y-102535185D01*
X132547213Y-102491971D01*
X132547215Y-102491968D01*
X132547219Y-102491966D01*
X132691966Y-102347219D01*
X132691968Y-102347215D01*
X132691971Y-102347213D01*
X132766749Y-102244288D01*
X132812287Y-102181610D01*
X132905220Y-101999219D01*
X132968477Y-101804534D01*
X133000500Y-101602352D01*
X133000500Y-101397648D01*
X132968477Y-101195466D01*
X132967673Y-101192993D01*
X132905218Y-101000776D01*
X132859515Y-100911080D01*
X132812287Y-100818390D01*
X132781653Y-100776225D01*
X132691971Y-100652786D01*
X132547213Y-100508028D01*
X132381613Y-100387715D01*
X132381612Y-100387714D01*
X132381610Y-100387713D01*
X132296855Y-100344528D01*
X132199223Y-100294781D01*
X132004534Y-100231522D01*
X131829995Y-100203878D01*
X131802352Y-100199500D01*
X131597648Y-100199500D01*
X131573329Y-100203351D01*
X131395465Y-100231522D01*
X131200776Y-100294781D01*
X131018386Y-100387715D01*
X130852786Y-100508028D01*
X130708028Y-100652786D01*
X130587715Y-100818386D01*
X130540485Y-100911080D01*
X130492510Y-100961876D01*
X130424689Y-100978671D01*
X130358554Y-100956134D01*
X130319515Y-100911080D01*
X130318883Y-100909840D01*
X130272287Y-100818390D01*
X130241653Y-100776225D01*
X130151971Y-100652786D01*
X130007213Y-100508028D01*
X129841613Y-100387715D01*
X129841612Y-100387714D01*
X129841610Y-100387713D01*
X129756855Y-100344528D01*
X129659223Y-100294781D01*
X129464534Y-100231522D01*
X129289995Y-100203878D01*
X129262352Y-100199500D01*
X129057648Y-100199500D01*
X129033329Y-100203351D01*
X128855465Y-100231522D01*
X128660776Y-100294781D01*
X128478386Y-100387715D01*
X128312786Y-100508028D01*
X128168032Y-100652782D01*
X128168026Y-100652789D01*
X128112231Y-100729584D01*
X128056901Y-100772250D01*
X127987288Y-100778228D01*
X127925493Y-100745622D01*
X127891765Y-100687361D01*
X127886559Y-100666965D01*
X127886559Y-100666962D01*
X127863135Y-100610414D01*
X127102962Y-101370588D01*
X127085925Y-101307007D01*
X127020099Y-101192993D01*
X126927007Y-101099901D01*
X126812993Y-101034075D01*
X126749410Y-101017037D01*
X127509584Y-100256862D01*
X127453059Y-100233449D01*
X127402053Y-100215455D01*
X127259780Y-100195000D01*
X125980214Y-100195000D01*
X125926237Y-100197893D01*
X125926235Y-100197893D01*
X125786976Y-100233436D01*
X125786962Y-100233441D01*
X125730415Y-100256863D01*
X126490589Y-101017037D01*
X126427007Y-101034075D01*
X126312993Y-101099901D01*
X126219901Y-101192993D01*
X126154075Y-101307007D01*
X126137037Y-101370589D01*
X125376863Y-100610415D01*
X125376862Y-100610415D01*
X125353446Y-100666947D01*
X125353439Y-100666965D01*
X125343330Y-100695623D01*
X125302464Y-100752295D01*
X125237446Y-100777876D01*
X125168918Y-100764246D01*
X125126075Y-100727255D01*
X125071971Y-100652786D01*
X124927213Y-100508028D01*
X124775763Y-100397995D01*
X124761613Y-100387715D01*
X124761612Y-100387714D01*
X124761610Y-100387713D01*
X124676855Y-100344528D01*
X124579223Y-100294781D01*
X124384534Y-100231522D01*
X124209995Y-100203878D01*
X124182352Y-100199500D01*
X123977648Y-100199500D01*
X123953329Y-100203351D01*
X123775465Y-100231522D01*
X123580776Y-100294781D01*
X123398386Y-100387715D01*
X123232786Y-100508028D01*
X123088028Y-100652786D01*
X122967715Y-100818386D01*
X122920485Y-100911080D01*
X122872510Y-100961876D01*
X122804689Y-100978671D01*
X122738554Y-100956134D01*
X122699515Y-100911080D01*
X122698883Y-100909840D01*
X122652287Y-100818390D01*
X122621653Y-100776225D01*
X122531971Y-100652786D01*
X122387213Y-100508028D01*
X122221613Y-100387715D01*
X122221612Y-100387714D01*
X122221610Y-100387713D01*
X122136855Y-100344528D01*
X122039223Y-100294781D01*
X121844534Y-100231522D01*
X121669995Y-100203878D01*
X121642352Y-100199500D01*
X121437648Y-100199500D01*
X121413329Y-100203351D01*
X121235465Y-100231522D01*
X121040776Y-100294781D01*
X120858386Y-100387715D01*
X120692786Y-100508028D01*
X120548028Y-100652786D01*
X120427715Y-100818386D01*
X120380485Y-100911080D01*
X120332510Y-100961876D01*
X120264689Y-100978671D01*
X120198554Y-100956134D01*
X120159515Y-100911080D01*
X120158883Y-100909840D01*
X120112287Y-100818390D01*
X120081653Y-100776225D01*
X119991971Y-100652786D01*
X119847213Y-100508028D01*
X119681613Y-100387715D01*
X119681612Y-100387714D01*
X119681610Y-100387713D01*
X119596855Y-100344528D01*
X119499223Y-100294781D01*
X119304534Y-100231522D01*
X119129995Y-100203878D01*
X119102352Y-100199500D01*
X118897648Y-100199500D01*
X118873329Y-100203351D01*
X118695465Y-100231522D01*
X118500776Y-100294781D01*
X118318386Y-100387715D01*
X118152786Y-100508028D01*
X118008028Y-100652786D01*
X117887715Y-100818386D01*
X117840485Y-100911080D01*
X117792510Y-100961876D01*
X117724689Y-100978671D01*
X117658554Y-100956134D01*
X117619515Y-100911080D01*
X117618883Y-100909840D01*
X117572287Y-100818390D01*
X117541653Y-100776225D01*
X117451971Y-100652786D01*
X117307213Y-100508028D01*
X117141613Y-100387715D01*
X117141612Y-100387714D01*
X117141610Y-100387713D01*
X117056855Y-100344528D01*
X116959223Y-100294781D01*
X116764534Y-100231522D01*
X116589995Y-100203878D01*
X116562352Y-100199500D01*
X116357648Y-100199500D01*
X116333329Y-100203351D01*
X116155465Y-100231522D01*
X115960776Y-100294781D01*
X115778386Y-100387715D01*
X115612786Y-100508028D01*
X115468032Y-100652782D01*
X115468026Y-100652789D01*
X115412231Y-100729584D01*
X115356901Y-100772250D01*
X115287288Y-100778228D01*
X115225493Y-100745622D01*
X115191765Y-100687361D01*
X115186559Y-100666965D01*
X115186559Y-100666962D01*
X115163135Y-100610414D01*
X114402962Y-101370588D01*
X114385925Y-101307007D01*
X114320099Y-101192993D01*
X114227007Y-101099901D01*
X114112993Y-101034075D01*
X114049410Y-101017037D01*
X114809584Y-100256862D01*
X114753059Y-100233449D01*
X114702053Y-100215455D01*
X114559780Y-100195000D01*
X113280214Y-100195000D01*
X113226237Y-100197893D01*
X113226235Y-100197893D01*
X113086976Y-100233436D01*
X113086962Y-100233441D01*
X113030415Y-100256863D01*
X113790589Y-101017037D01*
X113727007Y-101034075D01*
X113612993Y-101099901D01*
X113519901Y-101192993D01*
X113454075Y-101307007D01*
X113437037Y-101370589D01*
X112676863Y-100610415D01*
X112676862Y-100610415D01*
X112653446Y-100666947D01*
X112653439Y-100666965D01*
X112643330Y-100695623D01*
X112602464Y-100752295D01*
X112537446Y-100777876D01*
X112468918Y-100764246D01*
X112426075Y-100727255D01*
X112371971Y-100652786D01*
X112227213Y-100508028D01*
X112075763Y-100397995D01*
X112061613Y-100387715D01*
X112061612Y-100387714D01*
X112061610Y-100387713D01*
X111976855Y-100344528D01*
X111879223Y-100294781D01*
X111684534Y-100231522D01*
X111509995Y-100203878D01*
X111482352Y-100199500D01*
X111277648Y-100199500D01*
X111253329Y-100203351D01*
X111075465Y-100231522D01*
X110880776Y-100294781D01*
X110698386Y-100387715D01*
X110532786Y-100508028D01*
X110388028Y-100652786D01*
X110267715Y-100818386D01*
X110220485Y-100911080D01*
X110172510Y-100961876D01*
X110104689Y-100978671D01*
X110038554Y-100956134D01*
X109999515Y-100911080D01*
X109998883Y-100909840D01*
X109952287Y-100818390D01*
X109921653Y-100776225D01*
X109831971Y-100652786D01*
X109687213Y-100508028D01*
X109521613Y-100387715D01*
X109521612Y-100387714D01*
X109521610Y-100387713D01*
X109436855Y-100344528D01*
X109339223Y-100294781D01*
X109144534Y-100231522D01*
X108969995Y-100203878D01*
X108942352Y-100199500D01*
X108737648Y-100199500D01*
X108713329Y-100203351D01*
X108535465Y-100231522D01*
X108340776Y-100294781D01*
X108158386Y-100387715D01*
X107992786Y-100508028D01*
X107848028Y-100652786D01*
X107727715Y-100818386D01*
X107680485Y-100911080D01*
X107632510Y-100961876D01*
X107564689Y-100978671D01*
X107498554Y-100956134D01*
X107459515Y-100911080D01*
X107458883Y-100909840D01*
X107412287Y-100818390D01*
X107381653Y-100776225D01*
X107291971Y-100652786D01*
X107147213Y-100508028D01*
X106981613Y-100387715D01*
X106981612Y-100387714D01*
X106981610Y-100387713D01*
X106896855Y-100344528D01*
X106799223Y-100294781D01*
X106604534Y-100231522D01*
X106429995Y-100203878D01*
X106402352Y-100199500D01*
X106197648Y-100199500D01*
X106173329Y-100203351D01*
X105995465Y-100231522D01*
X105800776Y-100294781D01*
X105618386Y-100387715D01*
X105452786Y-100508028D01*
X105308028Y-100652786D01*
X105187715Y-100818386D01*
X105140485Y-100911080D01*
X105092510Y-100961876D01*
X105024689Y-100978671D01*
X104958554Y-100956134D01*
X104919515Y-100911080D01*
X104918883Y-100909840D01*
X104872287Y-100818390D01*
X104841653Y-100776225D01*
X104751971Y-100652786D01*
X104607213Y-100508028D01*
X104441613Y-100387715D01*
X104441612Y-100387714D01*
X104441610Y-100387713D01*
X104356855Y-100344528D01*
X104259223Y-100294781D01*
X104064534Y-100231522D01*
X103889995Y-100203878D01*
X103862352Y-100199500D01*
X103657648Y-100199500D01*
X103633329Y-100203351D01*
X103455465Y-100231522D01*
X103260776Y-100294781D01*
X103078386Y-100387715D01*
X102912786Y-100508028D01*
X102768032Y-100652782D01*
X102768026Y-100652789D01*
X102712231Y-100729584D01*
X102656901Y-100772250D01*
X102587288Y-100778228D01*
X102525493Y-100745622D01*
X102491765Y-100687361D01*
X102486559Y-100666965D01*
X102486559Y-100666962D01*
X102463135Y-100610414D01*
X101702962Y-101370588D01*
X101685925Y-101307007D01*
X101620099Y-101192993D01*
X101527007Y-101099901D01*
X101412993Y-101034075D01*
X101349410Y-101017037D01*
X102109584Y-100256862D01*
X102053059Y-100233449D01*
X102002053Y-100215455D01*
X101859780Y-100195000D01*
X100580214Y-100195000D01*
X100526237Y-100197893D01*
X100526235Y-100197893D01*
X100386976Y-100233436D01*
X100386962Y-100233441D01*
X100330415Y-100256863D01*
X101090589Y-101017037D01*
X101027007Y-101034075D01*
X100912993Y-101099901D01*
X100819901Y-101192993D01*
X100754075Y-101307007D01*
X100737037Y-101370589D01*
X99976863Y-100610415D01*
X99976862Y-100610415D01*
X99953446Y-100666947D01*
X99953439Y-100666965D01*
X99943330Y-100695623D01*
X99902464Y-100752295D01*
X99837446Y-100777876D01*
X99768918Y-100764246D01*
X99726075Y-100727255D01*
X99671971Y-100652786D01*
X99527213Y-100508028D01*
X99375763Y-100397995D01*
X99361613Y-100387715D01*
X99361612Y-100387714D01*
X99361610Y-100387713D01*
X99276855Y-100344528D01*
X99179223Y-100294781D01*
X98984534Y-100231522D01*
X98809995Y-100203878D01*
X98782352Y-100199500D01*
X98577648Y-100199500D01*
X98553329Y-100203351D01*
X98375465Y-100231522D01*
X98180776Y-100294781D01*
X97998386Y-100387715D01*
X97832786Y-100508028D01*
X97688028Y-100652786D01*
X97567715Y-100818386D01*
X97520485Y-100911080D01*
X97472510Y-100961876D01*
X97404689Y-100978671D01*
X97338554Y-100956134D01*
X97299515Y-100911080D01*
X97298883Y-100909840D01*
X97252287Y-100818390D01*
X97221653Y-100776225D01*
X97131971Y-100652786D01*
X96987213Y-100508028D01*
X96821613Y-100387715D01*
X96821612Y-100387714D01*
X96821610Y-100387713D01*
X96736855Y-100344528D01*
X96639223Y-100294781D01*
X96444534Y-100231522D01*
X96269995Y-100203878D01*
X96242352Y-100199500D01*
X96037648Y-100199500D01*
X96013329Y-100203351D01*
X95835465Y-100231522D01*
X95640776Y-100294781D01*
X95458386Y-100387715D01*
X95292786Y-100508028D01*
X95148028Y-100652786D01*
X95027715Y-100818386D01*
X94980485Y-100911080D01*
X94932510Y-100961876D01*
X94864689Y-100978671D01*
X94798554Y-100956134D01*
X94759515Y-100911080D01*
X94758883Y-100909840D01*
X94712287Y-100818390D01*
X94681653Y-100776225D01*
X94591971Y-100652786D01*
X94447213Y-100508028D01*
X94281613Y-100387715D01*
X94281612Y-100387714D01*
X94281610Y-100387713D01*
X94196855Y-100344528D01*
X94099223Y-100294781D01*
X93904534Y-100231522D01*
X93729995Y-100203878D01*
X93702352Y-100199500D01*
X93497648Y-100199500D01*
X93473329Y-100203351D01*
X93295465Y-100231522D01*
X93100776Y-100294781D01*
X92918386Y-100387715D01*
X92752786Y-100508028D01*
X92608028Y-100652786D01*
X92487715Y-100818386D01*
X92440485Y-100911080D01*
X92392510Y-100961876D01*
X92324689Y-100978671D01*
X92258554Y-100956134D01*
X92219515Y-100911080D01*
X92218883Y-100909840D01*
X92172287Y-100818390D01*
X92141653Y-100776225D01*
X92051971Y-100652786D01*
X91907213Y-100508028D01*
X91741613Y-100387715D01*
X91741612Y-100387714D01*
X91741610Y-100387713D01*
X91656855Y-100344528D01*
X91559223Y-100294781D01*
X91364534Y-100231522D01*
X91189995Y-100203878D01*
X91162352Y-100199500D01*
X90957648Y-100199500D01*
X90933329Y-100203351D01*
X90755465Y-100231522D01*
X90560776Y-100294781D01*
X90378386Y-100387715D01*
X90212786Y-100508028D01*
X90068032Y-100652782D01*
X90068026Y-100652789D01*
X90012231Y-100729584D01*
X89956901Y-100772250D01*
X89887288Y-100778228D01*
X89825493Y-100745622D01*
X89791765Y-100687361D01*
X89786559Y-100666965D01*
X89786559Y-100666962D01*
X89763135Y-100610414D01*
X89002962Y-101370588D01*
X88985925Y-101307007D01*
X88920099Y-101192993D01*
X88827007Y-101099901D01*
X88712993Y-101034075D01*
X88649410Y-101017037D01*
X89409584Y-100256862D01*
X89353059Y-100233449D01*
X89302053Y-100215455D01*
X89159780Y-100195000D01*
X87880214Y-100195000D01*
X87826237Y-100197893D01*
X87826235Y-100197893D01*
X87686976Y-100233436D01*
X87686962Y-100233441D01*
X87630415Y-100256863D01*
X88390589Y-101017037D01*
X88327007Y-101034075D01*
X88212993Y-101099901D01*
X88119901Y-101192993D01*
X88054075Y-101307007D01*
X88037037Y-101370589D01*
X87276863Y-100610415D01*
X87276862Y-100610415D01*
X87253446Y-100666947D01*
X87253439Y-100666965D01*
X87243330Y-100695623D01*
X87202464Y-100752295D01*
X87137446Y-100777876D01*
X87068918Y-100764246D01*
X87026075Y-100727255D01*
X86971971Y-100652786D01*
X86827213Y-100508028D01*
X86675763Y-100397995D01*
X86661613Y-100387715D01*
X86661612Y-100387714D01*
X86661610Y-100387713D01*
X86576855Y-100344528D01*
X86479223Y-100294781D01*
X86284534Y-100231522D01*
X86109995Y-100203878D01*
X86082352Y-100199500D01*
X85877648Y-100199500D01*
X85853329Y-100203351D01*
X85675465Y-100231522D01*
X85480776Y-100294781D01*
X85298386Y-100387715D01*
X85132786Y-100508028D01*
X84988032Y-100652782D01*
X84929344Y-100733560D01*
X84874014Y-100776225D01*
X84804400Y-100782204D01*
X84742606Y-100749598D01*
X84710641Y-100697566D01*
X84683478Y-100610394D01*
X84595472Y-100464815D01*
X84595470Y-100464813D01*
X84595469Y-100464811D01*
X84475188Y-100344530D01*
X84329606Y-100256522D01*
X84167196Y-100205914D01*
X84167194Y-100205913D01*
X84167192Y-100205913D01*
X84117778Y-100201423D01*
X84096616Y-100199500D01*
X82783384Y-100199500D01*
X82764145Y-100201248D01*
X82712807Y-100205913D01*
X82550393Y-100256522D01*
X82404811Y-100344530D01*
X82284530Y-100464811D01*
X82196522Y-100610393D01*
X82145913Y-100772807D01*
X82141772Y-100818386D01*
X82139500Y-100843384D01*
X78500500Y-100843384D01*
X78500500Y-99742682D01*
X136299500Y-99742682D01*
X136299500Y-103357317D01*
X136330044Y-103569764D01*
X136330047Y-103569774D01*
X136390517Y-103775715D01*
X136479672Y-103970938D01*
X136479679Y-103970951D01*
X136595720Y-104151514D01*
X136736275Y-104313724D01*
X136860277Y-104421172D01*
X136898487Y-104454281D01*
X137027531Y-104537211D01*
X137079048Y-104570320D01*
X137079061Y-104570327D01*
X137274284Y-104659482D01*
X137274288Y-104659483D01*
X137274290Y-104659484D01*
X137480231Y-104719954D01*
X137480232Y-104719954D01*
X137480235Y-104719955D01*
X137543584Y-104729062D01*
X137692682Y-104750500D01*
X137692683Y-104750500D01*
X141307317Y-104750500D01*
X141307318Y-104750500D01*
X141477851Y-104725980D01*
X141519764Y-104719955D01*
X141519765Y-104719954D01*
X141519769Y-104719954D01*
X141725710Y-104659484D01*
X141725713Y-104659482D01*
X141725715Y-104659482D01*
X141920938Y-104570327D01*
X141920944Y-104570323D01*
X141920950Y-104570321D01*
X142101513Y-104454281D01*
X142263724Y-104313724D01*
X142404281Y-104151513D01*
X142520321Y-103970950D01*
X142520323Y-103970944D01*
X142520327Y-103970938D01*
X142609482Y-103775715D01*
X142609482Y-103775713D01*
X142609484Y-103775710D01*
X142669954Y-103569769D01*
X142700500Y-103357318D01*
X142700500Y-103250000D01*
X142700500Y-103184108D01*
X142700500Y-99784108D01*
X142700500Y-99742682D01*
X142669954Y-99530231D01*
X142609484Y-99324290D01*
X142609483Y-99324288D01*
X142609482Y-99324284D01*
X142520327Y-99129061D01*
X142520320Y-99129048D01*
X142487211Y-99077531D01*
X142404281Y-98948487D01*
X142371172Y-98910277D01*
X142263724Y-98786275D01*
X142101514Y-98645720D01*
X142101513Y-98645719D01*
X142036991Y-98604253D01*
X141920951Y-98529679D01*
X141920938Y-98529672D01*
X141725715Y-98440517D01*
X141519774Y-98380047D01*
X141519764Y-98380044D01*
X141328754Y-98352582D01*
X141307318Y-98349500D01*
X141265892Y-98349500D01*
X137865892Y-98349500D01*
X137800000Y-98349500D01*
X137692682Y-98349500D01*
X137480235Y-98380044D01*
X137480225Y-98380047D01*
X137274284Y-98440517D01*
X137079061Y-98529672D01*
X137079048Y-98529679D01*
X136898485Y-98645720D01*
X136736275Y-98786275D01*
X136595720Y-98948485D01*
X136479679Y-99129048D01*
X136479672Y-99129061D01*
X136390517Y-99324284D01*
X136330047Y-99530225D01*
X136330044Y-99530235D01*
X136299500Y-99742682D01*
X78500500Y-99742682D01*
X78500500Y-99710000D01*
X124570000Y-99710000D01*
X128909895Y-99710000D01*
X132522662Y-95057944D01*
X132579328Y-95017069D01*
X132620598Y-95010000D01*
X133570000Y-95010000D01*
X133570000Y-90210000D01*
X132620598Y-90210000D01*
X132553559Y-90190315D01*
X132522662Y-90162056D01*
X130769762Y-87904897D01*
X130714481Y-87833713D01*
X136649500Y-87833713D01*
X136649500Y-88046286D01*
X136682753Y-88256239D01*
X136748444Y-88458414D01*
X136844951Y-88647820D01*
X136969890Y-88819786D01*
X137120213Y-88970109D01*
X137292182Y-89095050D01*
X137300946Y-89099516D01*
X137351742Y-89147491D01*
X137368536Y-89215312D01*
X137345998Y-89281447D01*
X137300946Y-89320484D01*
X137292182Y-89324949D01*
X137120213Y-89449890D01*
X136969890Y-89600213D01*
X136844951Y-89772179D01*
X136748444Y-89961585D01*
X136682753Y-90163760D01*
X136649500Y-90373713D01*
X136649500Y-90586286D01*
X136682753Y-90796239D01*
X136748444Y-90998414D01*
X136844951Y-91187820D01*
X136969890Y-91359786D01*
X137120213Y-91510109D01*
X137292179Y-91635048D01*
X137292181Y-91635049D01*
X137292184Y-91635051D01*
X137481588Y-91731557D01*
X137683757Y-91797246D01*
X137893713Y-91830500D01*
X137893714Y-91830500D01*
X138106286Y-91830500D01*
X138106287Y-91830500D01*
X138316243Y-91797246D01*
X138518412Y-91731557D01*
X138707816Y-91635051D01*
X138729789Y-91619086D01*
X138879786Y-91510109D01*
X138879788Y-91510106D01*
X138879792Y-91510104D01*
X139030104Y-91359792D01*
X139030106Y-91359788D01*
X139030109Y-91359786D01*
X139155048Y-91187820D01*
X139155047Y-91187820D01*
X139155051Y-91187816D01*
X139251557Y-90998412D01*
X139317246Y-90796243D01*
X139350500Y-90586287D01*
X139350500Y-90373713D01*
X139317246Y-90163757D01*
X139251557Y-89961588D01*
X139155051Y-89772184D01*
X139155049Y-89772181D01*
X139155048Y-89772179D01*
X139030109Y-89600213D01*
X138879786Y-89449890D01*
X138707820Y-89324951D01*
X138707115Y-89324591D01*
X138699054Y-89320485D01*
X138648259Y-89272512D01*
X138631463Y-89204692D01*
X138653999Y-89138556D01*
X138699054Y-89099515D01*
X138707816Y-89095051D01*
X138729789Y-89079086D01*
X138879786Y-88970109D01*
X138879788Y-88970106D01*
X138879792Y-88970104D01*
X139030104Y-88819792D01*
X139030106Y-88819788D01*
X139030109Y-88819786D01*
X139155048Y-88647820D01*
X139155047Y-88647820D01*
X139155051Y-88647816D01*
X139251557Y-88458412D01*
X139317246Y-88256243D01*
X139350500Y-88046287D01*
X139350500Y-87833713D01*
X139317246Y-87623757D01*
X139251557Y-87421588D01*
X139155051Y-87232184D01*
X139155049Y-87232181D01*
X139155048Y-87232179D01*
X139030109Y-87060213D01*
X138916181Y-86946285D01*
X138882696Y-86884962D01*
X138887680Y-86815270D01*
X138929552Y-86759337D01*
X138960529Y-86742422D01*
X139092086Y-86693354D01*
X139092093Y-86693350D01*
X139207187Y-86607190D01*
X139207190Y-86607187D01*
X139293350Y-86492093D01*
X139293354Y-86492086D01*
X139343596Y-86357379D01*
X139343598Y-86357372D01*
X139349999Y-86297844D01*
X139350000Y-86297827D01*
X139350000Y-85650000D01*
X138433012Y-85650000D01*
X138465925Y-85592993D01*
X138500000Y-85465826D01*
X138500000Y-85334174D01*
X138465925Y-85207007D01*
X138433012Y-85150000D01*
X139350000Y-85150000D01*
X139350000Y-84502172D01*
X139349999Y-84502155D01*
X139343598Y-84442627D01*
X139343596Y-84442620D01*
X139293354Y-84307913D01*
X139293350Y-84307906D01*
X139207190Y-84192812D01*
X139207187Y-84192809D01*
X139092093Y-84106649D01*
X139092086Y-84106645D01*
X138957379Y-84056403D01*
X138957372Y-84056401D01*
X138897844Y-84050000D01*
X138250000Y-84050000D01*
X138250000Y-84966988D01*
X138192993Y-84934075D01*
X138065826Y-84900000D01*
X137934174Y-84900000D01*
X137807007Y-84934075D01*
X137750000Y-84966988D01*
X137750000Y-84050000D01*
X137102155Y-84050000D01*
X137042627Y-84056401D01*
X137042620Y-84056403D01*
X136907913Y-84106645D01*
X136907906Y-84106649D01*
X136792812Y-84192809D01*
X136792809Y-84192812D01*
X136706649Y-84307906D01*
X136706645Y-84307913D01*
X136656403Y-84442620D01*
X136656401Y-84442627D01*
X136650000Y-84502155D01*
X136650000Y-85150000D01*
X137566988Y-85150000D01*
X137534075Y-85207007D01*
X137500000Y-85334174D01*
X137500000Y-85465826D01*
X137534075Y-85592993D01*
X137566988Y-85650000D01*
X136650000Y-85650000D01*
X136650000Y-86297844D01*
X136656401Y-86357372D01*
X136656403Y-86357379D01*
X136706645Y-86492086D01*
X136706649Y-86492093D01*
X136792809Y-86607187D01*
X136792812Y-86607190D01*
X136907906Y-86693350D01*
X136907913Y-86693354D01*
X137039470Y-86742422D01*
X137095404Y-86784293D01*
X137119821Y-86849758D01*
X137104969Y-86918031D01*
X137083819Y-86946285D01*
X136969889Y-87060215D01*
X136844951Y-87232179D01*
X136748444Y-87421585D01*
X136682753Y-87623760D01*
X136649500Y-87833713D01*
X130714481Y-87833713D01*
X128909895Y-85510000D01*
X124570000Y-85510000D01*
X124570000Y-99710000D01*
X78500500Y-99710000D01*
X78500500Y-83617648D01*
X82139500Y-83617648D01*
X82139500Y-83822351D01*
X82171522Y-84024534D01*
X82234781Y-84219223D01*
X82327715Y-84401613D01*
X82448028Y-84567213D01*
X82592786Y-84711971D01*
X82744232Y-84822001D01*
X82758390Y-84832287D01*
X82858226Y-84883156D01*
X82940776Y-84925218D01*
X82940778Y-84925218D01*
X82940781Y-84925220D01*
X83037260Y-84956568D01*
X83135465Y-84988477D01*
X83207593Y-84999901D01*
X83337648Y-85020500D01*
X83337649Y-85020500D01*
X83542351Y-85020500D01*
X83542352Y-85020500D01*
X83744534Y-84988477D01*
X83939219Y-84925220D01*
X84121610Y-84832287D01*
X84214590Y-84764732D01*
X84287213Y-84711971D01*
X84287215Y-84711968D01*
X84287219Y-84711966D01*
X84431966Y-84567219D01*
X84431968Y-84567215D01*
X84431971Y-84567213D01*
X84552284Y-84401614D01*
X84552285Y-84401613D01*
X84552287Y-84401610D01*
X84599516Y-84308917D01*
X84647489Y-84258123D01*
X84715310Y-84241328D01*
X84781445Y-84263865D01*
X84820485Y-84308919D01*
X84867715Y-84401614D01*
X84988028Y-84567213D01*
X85132786Y-84711971D01*
X85284232Y-84822001D01*
X85298390Y-84832287D01*
X85398226Y-84883156D01*
X85480776Y-84925218D01*
X85480778Y-84925218D01*
X85480781Y-84925220D01*
X85577260Y-84956568D01*
X85675465Y-84988477D01*
X85747593Y-84999901D01*
X85877648Y-85020500D01*
X85877649Y-85020500D01*
X86082351Y-85020500D01*
X86082352Y-85020500D01*
X86284534Y-84988477D01*
X86479219Y-84925220D01*
X86661610Y-84832287D01*
X86675768Y-84822001D01*
X86827213Y-84711971D01*
X86827215Y-84711968D01*
X86827219Y-84711966D01*
X86971966Y-84567219D01*
X87027766Y-84490415D01*
X87083096Y-84447750D01*
X87152710Y-84441771D01*
X87214505Y-84474376D01*
X87248233Y-84532635D01*
X87253438Y-84553030D01*
X87253442Y-84553043D01*
X87276862Y-84609584D01*
X88037037Y-83849410D01*
X88054075Y-83912993D01*
X88119901Y-84027007D01*
X88212993Y-84120099D01*
X88327007Y-84185925D01*
X88390589Y-84202962D01*
X87630414Y-84963135D01*
X87686960Y-84986557D01*
X87686964Y-84986559D01*
X87737946Y-85004544D01*
X87880219Y-85024999D01*
X87880221Y-85025000D01*
X89159786Y-85025000D01*
X89213762Y-85022106D01*
X89213764Y-85022106D01*
X89353039Y-84986558D01*
X89409584Y-84963136D01*
X89409584Y-84963135D01*
X88649410Y-84202962D01*
X88712993Y-84185925D01*
X88827007Y-84120099D01*
X88920099Y-84027007D01*
X88985925Y-83912993D01*
X89002962Y-83849410D01*
X89763136Y-84609584D01*
X89786553Y-84553052D01*
X89796668Y-84524379D01*
X89837533Y-84467706D01*
X89902551Y-84442123D01*
X89971078Y-84455752D01*
X90013924Y-84492744D01*
X90068028Y-84567212D01*
X90068032Y-84567217D01*
X90212786Y-84711971D01*
X90364232Y-84822001D01*
X90378390Y-84832287D01*
X90478226Y-84883156D01*
X90560776Y-84925218D01*
X90560778Y-84925218D01*
X90560781Y-84925220D01*
X90657260Y-84956568D01*
X90755465Y-84988477D01*
X90827593Y-84999901D01*
X90957648Y-85020500D01*
X90957649Y-85020500D01*
X91162351Y-85020500D01*
X91162352Y-85020500D01*
X91364534Y-84988477D01*
X91559219Y-84925220D01*
X91741610Y-84832287D01*
X91834590Y-84764732D01*
X91907213Y-84711971D01*
X91907215Y-84711968D01*
X91907219Y-84711966D01*
X92051966Y-84567219D01*
X92051968Y-84567215D01*
X92051971Y-84567213D01*
X92172284Y-84401614D01*
X92172285Y-84401613D01*
X92172287Y-84401610D01*
X92219516Y-84308917D01*
X92267489Y-84258123D01*
X92335310Y-84241328D01*
X92401445Y-84263865D01*
X92440485Y-84308919D01*
X92487715Y-84401614D01*
X92608028Y-84567213D01*
X92752786Y-84711971D01*
X92904232Y-84822001D01*
X92918390Y-84832287D01*
X93018226Y-84883156D01*
X93100776Y-84925218D01*
X93100778Y-84925218D01*
X93100781Y-84925220D01*
X93197260Y-84956568D01*
X93295465Y-84988477D01*
X93367593Y-84999901D01*
X93497648Y-85020500D01*
X93497649Y-85020500D01*
X93702351Y-85020500D01*
X93702352Y-85020500D01*
X93904534Y-84988477D01*
X94099219Y-84925220D01*
X94281610Y-84832287D01*
X94374590Y-84764732D01*
X94447213Y-84711971D01*
X94447215Y-84711968D01*
X94447219Y-84711966D01*
X94591966Y-84567219D01*
X94591968Y-84567215D01*
X94591971Y-84567213D01*
X94712284Y-84401614D01*
X94712285Y-84401613D01*
X94712287Y-84401610D01*
X94759516Y-84308917D01*
X94807489Y-84258123D01*
X94875310Y-84241328D01*
X94941445Y-84263865D01*
X94980485Y-84308919D01*
X95027715Y-84401614D01*
X95148028Y-84567213D01*
X95292786Y-84711971D01*
X95444232Y-84822001D01*
X95458390Y-84832287D01*
X95558226Y-84883156D01*
X95640776Y-84925218D01*
X95640778Y-84925218D01*
X95640781Y-84925220D01*
X95737260Y-84956568D01*
X95835465Y-84988477D01*
X95907593Y-84999901D01*
X96037648Y-85020500D01*
X96037649Y-85020500D01*
X96242351Y-85020500D01*
X96242352Y-85020500D01*
X96444534Y-84988477D01*
X96639219Y-84925220D01*
X96821610Y-84832287D01*
X96914590Y-84764732D01*
X96987213Y-84711971D01*
X96987215Y-84711968D01*
X96987219Y-84711966D01*
X97131966Y-84567219D01*
X97131968Y-84567215D01*
X97131971Y-84567213D01*
X97252284Y-84401614D01*
X97252285Y-84401613D01*
X97252287Y-84401610D01*
X97299516Y-84308917D01*
X97347489Y-84258123D01*
X97415310Y-84241328D01*
X97481445Y-84263865D01*
X97520485Y-84308919D01*
X97567715Y-84401614D01*
X97688028Y-84567213D01*
X97832786Y-84711971D01*
X97984232Y-84822001D01*
X97998390Y-84832287D01*
X98098226Y-84883156D01*
X98180776Y-84925218D01*
X98180778Y-84925218D01*
X98180781Y-84925220D01*
X98277260Y-84956568D01*
X98375465Y-84988477D01*
X98447593Y-84999901D01*
X98577648Y-85020500D01*
X98577649Y-85020500D01*
X98782351Y-85020500D01*
X98782352Y-85020500D01*
X98984534Y-84988477D01*
X99179219Y-84925220D01*
X99361610Y-84832287D01*
X99454590Y-84764732D01*
X99527213Y-84711971D01*
X99527215Y-84711968D01*
X99527219Y-84711966D01*
X99671966Y-84567219D01*
X99727388Y-84490935D01*
X99782718Y-84448270D01*
X99852331Y-84442291D01*
X99914127Y-84474896D01*
X99947855Y-84533155D01*
X99952976Y-84553221D01*
X99952980Y-84553233D01*
X99983419Y-84626719D01*
X99983431Y-84626747D01*
X100006779Y-84675548D01*
X100006781Y-84675551D01*
X100093006Y-84790733D01*
X100093010Y-84790737D01*
X100093015Y-84790743D01*
X100149252Y-84846980D01*
X100149261Y-84846988D01*
X100149267Y-84846994D01*
X100189524Y-84883156D01*
X100189532Y-84883162D01*
X100313263Y-84956573D01*
X100313262Y-84956573D01*
X100313279Y-84956580D01*
X100386774Y-84987022D01*
X100437802Y-85005024D01*
X100580218Y-85025500D01*
X100580221Y-85025500D01*
X101859784Y-85025500D01*
X101895804Y-85023569D01*
X101913815Y-85022604D01*
X102053226Y-84987022D01*
X102126735Y-84956574D01*
X102175551Y-84933219D01*
X102290733Y-84846994D01*
X102346994Y-84790733D01*
X102383157Y-84750475D01*
X102456574Y-84626735D01*
X102487022Y-84553226D01*
X102497027Y-84524865D01*
X102537893Y-84468195D01*
X102602911Y-84442614D01*
X102671438Y-84456245D01*
X102714281Y-84493235D01*
X102768028Y-84567213D01*
X102912786Y-84711971D01*
X103064232Y-84822001D01*
X103078390Y-84832287D01*
X103178226Y-84883156D01*
X103260776Y-84925218D01*
X103260778Y-84925218D01*
X103260781Y-84925220D01*
X103357260Y-84956568D01*
X103455465Y-84988477D01*
X103527593Y-84999901D01*
X103657648Y-85020500D01*
X103657649Y-85020500D01*
X103862351Y-85020500D01*
X103862352Y-85020500D01*
X104064534Y-84988477D01*
X104259219Y-84925220D01*
X104441610Y-84832287D01*
X104534590Y-84764732D01*
X104607213Y-84711971D01*
X104607215Y-84711968D01*
X104607219Y-84711966D01*
X104751966Y-84567219D01*
X104751968Y-84567215D01*
X104751971Y-84567213D01*
X104872284Y-84401614D01*
X104872285Y-84401613D01*
X104872287Y-84401610D01*
X104919516Y-84308917D01*
X104967489Y-84258123D01*
X105035310Y-84241328D01*
X105101445Y-84263865D01*
X105140485Y-84308919D01*
X105187715Y-84401614D01*
X105308028Y-84567213D01*
X105452786Y-84711971D01*
X105604232Y-84822001D01*
X105618390Y-84832287D01*
X105718226Y-84883156D01*
X105800776Y-84925218D01*
X105800778Y-84925218D01*
X105800781Y-84925220D01*
X105897260Y-84956568D01*
X105995465Y-84988477D01*
X106067593Y-84999901D01*
X106197648Y-85020500D01*
X106197649Y-85020500D01*
X106402351Y-85020500D01*
X106402352Y-85020500D01*
X106604534Y-84988477D01*
X106799219Y-84925220D01*
X106981610Y-84832287D01*
X107074590Y-84764732D01*
X107147213Y-84711971D01*
X107147215Y-84711968D01*
X107147219Y-84711966D01*
X107291966Y-84567219D01*
X107291968Y-84567215D01*
X107291971Y-84567213D01*
X107412284Y-84401614D01*
X107412285Y-84401613D01*
X107412287Y-84401610D01*
X107459516Y-84308917D01*
X107507489Y-84258123D01*
X107575310Y-84241328D01*
X107641445Y-84263865D01*
X107680485Y-84308919D01*
X107727715Y-84401614D01*
X107848028Y-84567213D01*
X107992786Y-84711971D01*
X108144232Y-84822001D01*
X108158390Y-84832287D01*
X108258226Y-84883156D01*
X108340776Y-84925218D01*
X108340778Y-84925218D01*
X108340781Y-84925220D01*
X108437260Y-84956568D01*
X108535465Y-84988477D01*
X108607593Y-84999901D01*
X108737648Y-85020500D01*
X108737649Y-85020500D01*
X108942351Y-85020500D01*
X108942352Y-85020500D01*
X109144534Y-84988477D01*
X109339219Y-84925220D01*
X109521610Y-84832287D01*
X109614590Y-84764732D01*
X109687213Y-84711971D01*
X109687215Y-84711968D01*
X109687219Y-84711966D01*
X109831966Y-84567219D01*
X109831968Y-84567215D01*
X109831971Y-84567213D01*
X109952284Y-84401614D01*
X109952285Y-84401613D01*
X109952287Y-84401610D01*
X109999516Y-84308917D01*
X110047489Y-84258123D01*
X110115310Y-84241328D01*
X110181445Y-84263865D01*
X110220485Y-84308919D01*
X110267715Y-84401614D01*
X110388028Y-84567213D01*
X110532786Y-84711971D01*
X110684232Y-84822001D01*
X110698390Y-84832287D01*
X110798226Y-84883156D01*
X110880776Y-84925218D01*
X110880778Y-84925218D01*
X110880781Y-84925220D01*
X110977260Y-84956568D01*
X111075465Y-84988477D01*
X111147593Y-84999901D01*
X111277648Y-85020500D01*
X111277649Y-85020500D01*
X111482351Y-85020500D01*
X111482352Y-85020500D01*
X111684534Y-84988477D01*
X111879219Y-84925220D01*
X112061610Y-84832287D01*
X112075768Y-84822001D01*
X112227213Y-84711971D01*
X112227215Y-84711968D01*
X112227219Y-84711966D01*
X112371966Y-84567219D01*
X112427766Y-84490415D01*
X112483096Y-84447750D01*
X112552710Y-84441771D01*
X112614505Y-84474376D01*
X112648233Y-84532635D01*
X112653438Y-84553030D01*
X112653442Y-84553043D01*
X112676862Y-84609584D01*
X113437037Y-83849410D01*
X113454075Y-83912993D01*
X113519901Y-84027007D01*
X113612993Y-84120099D01*
X113727007Y-84185925D01*
X113790589Y-84202962D01*
X113030414Y-84963135D01*
X113086960Y-84986557D01*
X113086964Y-84986559D01*
X113137946Y-85004544D01*
X113280219Y-85024999D01*
X113280221Y-85025000D01*
X114559786Y-85025000D01*
X114613762Y-85022106D01*
X114613764Y-85022106D01*
X114753039Y-84986558D01*
X114809584Y-84963136D01*
X114809584Y-84963135D01*
X114049410Y-84202962D01*
X114112993Y-84185925D01*
X114227007Y-84120099D01*
X114320099Y-84027007D01*
X114385925Y-83912993D01*
X114402962Y-83849410D01*
X115163135Y-84609584D01*
X115163136Y-84609584D01*
X115186553Y-84553052D01*
X115196668Y-84524379D01*
X115237533Y-84467706D01*
X115302551Y-84442123D01*
X115371078Y-84455752D01*
X115413924Y-84492744D01*
X115468028Y-84567212D01*
X115468032Y-84567217D01*
X115612786Y-84711971D01*
X115764232Y-84822001D01*
X115778390Y-84832287D01*
X115878226Y-84883156D01*
X115960776Y-84925218D01*
X115960778Y-84925218D01*
X115960781Y-84925220D01*
X116057260Y-84956568D01*
X116155465Y-84988477D01*
X116227593Y-84999901D01*
X116357648Y-85020500D01*
X116357649Y-85020500D01*
X116562351Y-85020500D01*
X116562352Y-85020500D01*
X116764534Y-84988477D01*
X116959219Y-84925220D01*
X117141610Y-84832287D01*
X117234590Y-84764732D01*
X117307213Y-84711971D01*
X117307215Y-84711968D01*
X117307219Y-84711966D01*
X117451966Y-84567219D01*
X117451968Y-84567215D01*
X117451971Y-84567213D01*
X117572284Y-84401614D01*
X117572285Y-84401613D01*
X117572287Y-84401610D01*
X117619516Y-84308917D01*
X117667489Y-84258123D01*
X117735310Y-84241328D01*
X117801445Y-84263865D01*
X117840485Y-84308919D01*
X117887715Y-84401614D01*
X118008028Y-84567213D01*
X118152786Y-84711971D01*
X118304232Y-84822001D01*
X118318390Y-84832287D01*
X118418226Y-84883156D01*
X118500776Y-84925218D01*
X118500778Y-84925218D01*
X118500781Y-84925220D01*
X118597260Y-84956568D01*
X118695465Y-84988477D01*
X118767593Y-84999901D01*
X118897648Y-85020500D01*
X118897649Y-85020500D01*
X119102351Y-85020500D01*
X119102352Y-85020500D01*
X119304534Y-84988477D01*
X119499219Y-84925220D01*
X119681610Y-84832287D01*
X119774590Y-84764732D01*
X119847213Y-84711971D01*
X119847215Y-84711968D01*
X119847219Y-84711966D01*
X119991966Y-84567219D01*
X119991968Y-84567215D01*
X119991971Y-84567213D01*
X120112284Y-84401614D01*
X120112285Y-84401613D01*
X120112287Y-84401610D01*
X120159516Y-84308917D01*
X120207489Y-84258123D01*
X120275310Y-84241328D01*
X120341445Y-84263865D01*
X120380485Y-84308919D01*
X120427715Y-84401614D01*
X120548028Y-84567213D01*
X120692786Y-84711971D01*
X120844232Y-84822001D01*
X120858390Y-84832287D01*
X120958226Y-84883156D01*
X121040776Y-84925218D01*
X121040778Y-84925218D01*
X121040781Y-84925220D01*
X121137260Y-84956568D01*
X121235465Y-84988477D01*
X121307593Y-84999901D01*
X121437648Y-85020500D01*
X121437649Y-85020500D01*
X121642351Y-85020500D01*
X121642352Y-85020500D01*
X121844534Y-84988477D01*
X122039219Y-84925220D01*
X122221610Y-84832287D01*
X122314590Y-84764732D01*
X122387213Y-84711971D01*
X122387215Y-84711968D01*
X122387219Y-84711966D01*
X122531966Y-84567219D01*
X122531968Y-84567215D01*
X122531971Y-84567213D01*
X122652284Y-84401614D01*
X122652285Y-84401613D01*
X122652287Y-84401610D01*
X122699516Y-84308917D01*
X122747489Y-84258123D01*
X122815310Y-84241328D01*
X122881445Y-84263865D01*
X122920485Y-84308919D01*
X122967715Y-84401614D01*
X123088028Y-84567213D01*
X123232786Y-84711971D01*
X123384232Y-84822001D01*
X123398390Y-84832287D01*
X123498226Y-84883156D01*
X123580776Y-84925218D01*
X123580778Y-84925218D01*
X123580781Y-84925220D01*
X123677260Y-84956568D01*
X123775465Y-84988477D01*
X123847593Y-84999901D01*
X123977648Y-85020500D01*
X123977649Y-85020500D01*
X124182351Y-85020500D01*
X124182352Y-85020500D01*
X124384534Y-84988477D01*
X124579219Y-84925220D01*
X124761610Y-84832287D01*
X124775768Y-84822001D01*
X124927213Y-84711971D01*
X124927215Y-84711968D01*
X124927219Y-84711966D01*
X125071966Y-84567219D01*
X125127766Y-84490415D01*
X125183096Y-84447750D01*
X125252710Y-84441771D01*
X125314505Y-84474376D01*
X125348233Y-84532635D01*
X125353438Y-84553030D01*
X125353442Y-84553043D01*
X125376862Y-84609584D01*
X126137037Y-83849410D01*
X126154075Y-83912993D01*
X126219901Y-84027007D01*
X126312993Y-84120099D01*
X126427007Y-84185925D01*
X126490589Y-84202962D01*
X125730414Y-84963135D01*
X125786960Y-84986557D01*
X125786964Y-84986559D01*
X125837946Y-85004544D01*
X125980219Y-85024999D01*
X125980221Y-85025000D01*
X127259786Y-85025000D01*
X127313762Y-85022106D01*
X127313764Y-85022106D01*
X127453039Y-84986558D01*
X127509584Y-84963136D01*
X127509584Y-84963135D01*
X126749410Y-84202962D01*
X126812993Y-84185925D01*
X126927007Y-84120099D01*
X127020099Y-84027007D01*
X127085925Y-83912993D01*
X127102962Y-83849411D01*
X127863135Y-84609584D01*
X127863136Y-84609584D01*
X127886553Y-84553052D01*
X127896668Y-84524379D01*
X127937533Y-84467706D01*
X128002551Y-84442123D01*
X128071078Y-84455752D01*
X128113924Y-84492744D01*
X128168028Y-84567212D01*
X128168032Y-84567217D01*
X128312786Y-84711971D01*
X128464232Y-84822001D01*
X128478390Y-84832287D01*
X128578226Y-84883156D01*
X128660776Y-84925218D01*
X128660778Y-84925218D01*
X128660781Y-84925220D01*
X128757260Y-84956568D01*
X128855465Y-84988477D01*
X128927593Y-84999901D01*
X129057648Y-85020500D01*
X129057649Y-85020500D01*
X129262351Y-85020500D01*
X129262352Y-85020500D01*
X129464534Y-84988477D01*
X129659219Y-84925220D01*
X129841610Y-84832287D01*
X129934590Y-84764732D01*
X130007213Y-84711971D01*
X130007215Y-84711968D01*
X130007219Y-84711966D01*
X130151966Y-84567219D01*
X130151968Y-84567215D01*
X130151971Y-84567213D01*
X130272284Y-84401614D01*
X130272285Y-84401613D01*
X130272287Y-84401610D01*
X130319516Y-84308917D01*
X130367489Y-84258123D01*
X130435310Y-84241328D01*
X130501445Y-84263865D01*
X130540485Y-84308919D01*
X130587715Y-84401614D01*
X130708028Y-84567213D01*
X130852786Y-84711971D01*
X131004232Y-84822001D01*
X131018390Y-84832287D01*
X131118226Y-84883156D01*
X131200776Y-84925218D01*
X131200778Y-84925218D01*
X131200781Y-84925220D01*
X131297260Y-84956568D01*
X131395465Y-84988477D01*
X131467593Y-84999901D01*
X131597648Y-85020500D01*
X131597649Y-85020500D01*
X131802351Y-85020500D01*
X131802352Y-85020500D01*
X132004534Y-84988477D01*
X132199219Y-84925220D01*
X132381610Y-84832287D01*
X132474590Y-84764732D01*
X132547213Y-84711971D01*
X132547215Y-84711968D01*
X132547219Y-84711966D01*
X132691966Y-84567219D01*
X132812287Y-84401610D01*
X132905220Y-84219219D01*
X132968477Y-84024534D01*
X133000500Y-83822352D01*
X133000500Y-83617648D01*
X132968477Y-83415466D01*
X132967673Y-83412993D01*
X132905218Y-83220776D01*
X132856057Y-83124294D01*
X132812287Y-83038390D01*
X132777919Y-82991086D01*
X132691971Y-82872786D01*
X132547213Y-82728028D01*
X132381610Y-82607712D01*
X132368200Y-82600879D01*
X132317406Y-82552903D01*
X132300500Y-82490397D01*
X132300500Y-74600097D01*
X132320185Y-74533058D01*
X132336819Y-74512416D01*
X133462419Y-73386818D01*
X133523742Y-73353333D01*
X133550100Y-73350499D01*
X133897871Y-73350499D01*
X133897872Y-73350499D01*
X133957483Y-73344091D01*
X134092331Y-73293796D01*
X134207546Y-73207546D01*
X134293796Y-73092331D01*
X134344091Y-72957483D01*
X134350500Y-72897873D01*
X134350500Y-72542682D01*
X136299500Y-72542682D01*
X136299500Y-76157317D01*
X136330044Y-76369764D01*
X136330047Y-76369774D01*
X136390517Y-76575715D01*
X136479672Y-76770938D01*
X136479679Y-76770951D01*
X136595720Y-76951514D01*
X136736275Y-77113724D01*
X136860277Y-77221172D01*
X136898487Y-77254281D01*
X137027531Y-77337211D01*
X137079048Y-77370320D01*
X137079061Y-77370327D01*
X137274284Y-77459482D01*
X137274288Y-77459483D01*
X137274290Y-77459484D01*
X137480231Y-77519954D01*
X137480232Y-77519954D01*
X137480235Y-77519955D01*
X137543584Y-77529062D01*
X137692682Y-77550500D01*
X137692683Y-77550500D01*
X141307317Y-77550500D01*
X141307318Y-77550500D01*
X141477851Y-77525980D01*
X141519764Y-77519955D01*
X141519765Y-77519954D01*
X141519769Y-77519954D01*
X141725710Y-77459484D01*
X141725713Y-77459482D01*
X141725715Y-77459482D01*
X141920938Y-77370327D01*
X141920944Y-77370323D01*
X141920950Y-77370321D01*
X142101513Y-77254281D01*
X142263724Y-77113724D01*
X142404281Y-76951513D01*
X142520321Y-76770950D01*
X142520323Y-76770944D01*
X142520327Y-76770938D01*
X142609482Y-76575715D01*
X142609482Y-76575713D01*
X142609484Y-76575710D01*
X142669954Y-76369769D01*
X142700500Y-76157318D01*
X142700500Y-76050000D01*
X142700500Y-75984108D01*
X142700500Y-72584108D01*
X142700500Y-72542682D01*
X142677320Y-72381463D01*
X142669955Y-72330235D01*
X142669952Y-72330225D01*
X142665847Y-72316243D01*
X142609484Y-72124290D01*
X142609483Y-72124288D01*
X142609482Y-72124284D01*
X142520327Y-71929061D01*
X142520320Y-71929048D01*
X142482014Y-71869443D01*
X142404281Y-71748487D01*
X142356195Y-71692993D01*
X142263724Y-71586275D01*
X142101514Y-71445720D01*
X142101513Y-71445719D01*
X142036991Y-71404253D01*
X141920951Y-71329679D01*
X141920938Y-71329672D01*
X141725715Y-71240517D01*
X141519774Y-71180047D01*
X141519764Y-71180044D01*
X141328754Y-71152582D01*
X141307318Y-71149500D01*
X141265892Y-71149500D01*
X137865892Y-71149500D01*
X137800000Y-71149500D01*
X137692682Y-71149500D01*
X137480235Y-71180044D01*
X137480225Y-71180047D01*
X137274284Y-71240517D01*
X137079061Y-71329672D01*
X137079048Y-71329679D01*
X136898485Y-71445720D01*
X136736275Y-71586275D01*
X136595720Y-71748485D01*
X136479679Y-71929048D01*
X136479672Y-71929061D01*
X136390517Y-72124284D01*
X136330047Y-72330225D01*
X136330044Y-72330235D01*
X136299500Y-72542682D01*
X134350500Y-72542682D01*
X134350499Y-72000000D01*
X134350499Y-71102129D01*
X134350498Y-71102123D01*
X134350497Y-71102116D01*
X134344091Y-71042517D01*
X134293796Y-70907669D01*
X134293795Y-70907668D01*
X134293793Y-70907664D01*
X134207547Y-70792455D01*
X134207544Y-70792452D01*
X134092335Y-70706206D01*
X134092328Y-70706202D01*
X133957482Y-70655908D01*
X133957483Y-70655908D01*
X133897883Y-70649501D01*
X133897881Y-70649500D01*
X133897873Y-70649500D01*
X133897864Y-70649500D01*
X132102129Y-70649500D01*
X132102123Y-70649501D01*
X132042516Y-70655908D01*
X131907671Y-70706202D01*
X131907664Y-70706206D01*
X131792455Y-70792452D01*
X131792452Y-70792455D01*
X131706206Y-70907664D01*
X131706202Y-70907671D01*
X131655908Y-71042517D01*
X131650159Y-71095998D01*
X131649501Y-71102123D01*
X131649500Y-71102135D01*
X131649500Y-71112690D01*
X131629815Y-71179729D01*
X131613181Y-71200371D01*
X130942962Y-71870590D01*
X130925925Y-71807007D01*
X130860099Y-71692993D01*
X130767007Y-71599901D01*
X130652993Y-71534075D01*
X130589409Y-71517037D01*
X131221716Y-70884728D01*
X131167550Y-70845375D01*
X130978217Y-70748904D01*
X130776129Y-70683242D01*
X130566246Y-70650000D01*
X130353754Y-70650000D01*
X130143872Y-70683242D01*
X130143869Y-70683242D01*
X129941782Y-70748904D01*
X129752439Y-70845380D01*
X129698282Y-70884727D01*
X129698282Y-70884728D01*
X130330591Y-71517037D01*
X130267007Y-71534075D01*
X130152993Y-71599901D01*
X130059901Y-71692993D01*
X129994075Y-71807007D01*
X129977037Y-71870591D01*
X129344728Y-71238282D01*
X129344727Y-71238282D01*
X129305380Y-71292440D01*
X129305376Y-71292446D01*
X129300760Y-71301505D01*
X129252781Y-71352297D01*
X129184959Y-71369087D01*
X129118826Y-71346543D01*
X129079794Y-71301493D01*
X129075051Y-71292184D01*
X129075049Y-71292181D01*
X129075048Y-71292179D01*
X128950109Y-71120213D01*
X128799786Y-70969890D01*
X128627820Y-70844951D01*
X128438414Y-70748444D01*
X128438413Y-70748443D01*
X128438412Y-70748443D01*
X128236243Y-70682754D01*
X128236241Y-70682753D01*
X128236240Y-70682753D01*
X128074957Y-70657208D01*
X128026287Y-70649500D01*
X127813713Y-70649500D01*
X127765042Y-70657208D01*
X127603760Y-70682753D01*
X127401585Y-70748444D01*
X127212179Y-70844951D01*
X127040213Y-70969890D01*
X126889890Y-71120213D01*
X126764951Y-71292179D01*
X126668444Y-71481585D01*
X126602753Y-71683760D01*
X126583233Y-71807007D01*
X126569500Y-71893713D01*
X126569500Y-72106287D01*
X126576439Y-72150099D01*
X126595178Y-72268414D01*
X126602754Y-72316243D01*
X126648755Y-72457820D01*
X126668444Y-72518414D01*
X126764951Y-72707820D01*
X126889890Y-72879786D01*
X127040213Y-73030109D01*
X127212179Y-73155048D01*
X127212181Y-73155049D01*
X127212184Y-73155051D01*
X127401588Y-73251557D01*
X127603757Y-73317246D01*
X127813713Y-73350500D01*
X127813714Y-73350500D01*
X128026286Y-73350500D01*
X128026287Y-73350500D01*
X128236243Y-73317246D01*
X128438412Y-73251557D01*
X128627816Y-73155051D01*
X128703589Y-73099999D01*
X128799786Y-73030109D01*
X128799788Y-73030106D01*
X128799792Y-73030104D01*
X128950104Y-72879792D01*
X128950106Y-72879788D01*
X128950109Y-72879786D01*
X129022531Y-72780104D01*
X129075051Y-72707816D01*
X129079793Y-72698508D01*
X129127763Y-72647711D01*
X129195583Y-72630911D01*
X129261719Y-72653445D01*
X129300763Y-72698500D01*
X129305373Y-72707547D01*
X129344728Y-72761716D01*
X129977037Y-72129408D01*
X129994075Y-72192993D01*
X130059901Y-72307007D01*
X130152993Y-72400099D01*
X130267007Y-72465925D01*
X130330590Y-72482962D01*
X129698282Y-73115269D01*
X129698282Y-73115270D01*
X129752449Y-73154624D01*
X129941782Y-73251095D01*
X130143870Y-73316757D01*
X130353754Y-73350000D01*
X130566246Y-73350000D01*
X130776127Y-73316757D01*
X130776130Y-73316757D01*
X130978217Y-73251095D01*
X131167554Y-73154622D01*
X131221716Y-73115270D01*
X131221717Y-73115270D01*
X130589408Y-72482962D01*
X130652993Y-72465925D01*
X130767007Y-72400099D01*
X130860099Y-72307007D01*
X130925925Y-72192993D01*
X130942962Y-72129408D01*
X131613181Y-72799628D01*
X131646666Y-72860951D01*
X131649500Y-72887300D01*
X131649500Y-72897865D01*
X131649501Y-72897876D01*
X131655908Y-72957483D01*
X131706202Y-73092328D01*
X131706203Y-73092330D01*
X131792607Y-73207750D01*
X131817024Y-73273214D01*
X131802173Y-73341487D01*
X131781021Y-73369742D01*
X131331286Y-73819478D01*
X131219481Y-73931282D01*
X131219479Y-73931285D01*
X131169361Y-74018094D01*
X131169359Y-74018096D01*
X131140425Y-74068209D01*
X131140424Y-74068210D01*
X131137518Y-74079057D01*
X131099499Y-74220943D01*
X131099499Y-74220945D01*
X131099499Y-74389046D01*
X131099500Y-74389059D01*
X131099500Y-82490397D01*
X131079815Y-82557436D01*
X131031800Y-82600879D01*
X131018389Y-82607712D01*
X130852786Y-82728028D01*
X130708028Y-82872786D01*
X130587715Y-83038386D01*
X130540485Y-83131080D01*
X130492510Y-83181876D01*
X130424689Y-83198671D01*
X130358554Y-83176134D01*
X130319515Y-83131080D01*
X130315782Y-83123754D01*
X130272287Y-83038390D01*
X130237919Y-82991086D01*
X130151971Y-82872786D01*
X130007213Y-82728028D01*
X129841613Y-82607715D01*
X129841612Y-82607714D01*
X129841610Y-82607713D01*
X129784653Y-82578691D01*
X129659223Y-82514781D01*
X129464534Y-82451522D01*
X129289995Y-82423878D01*
X129262352Y-82419500D01*
X129057648Y-82419500D01*
X129033329Y-82423351D01*
X128855465Y-82451522D01*
X128660776Y-82514781D01*
X128478386Y-82607715D01*
X128312786Y-82728028D01*
X128168028Y-82872786D01*
X128047715Y-83038386D01*
X128003942Y-83124295D01*
X127955967Y-83175091D01*
X127888146Y-83191886D01*
X127822011Y-83169348D01*
X127784099Y-83126454D01*
X127748844Y-83060498D01*
X127748838Y-83060488D01*
X127702465Y-82991085D01*
X127102962Y-83590588D01*
X127085925Y-83527007D01*
X127020099Y-83412993D01*
X126927007Y-83319901D01*
X126812993Y-83254075D01*
X126749410Y-83237037D01*
X127348912Y-82637534D01*
X127279511Y-82591161D01*
X127279501Y-82591155D01*
X127192198Y-82544490D01*
X127046612Y-82484185D01*
X126951864Y-82455444D01*
X126797300Y-82424701D01*
X126698790Y-82415000D01*
X126541210Y-82415000D01*
X126442700Y-82424701D01*
X126442697Y-82424701D01*
X126288135Y-82455444D01*
X126193387Y-82484185D01*
X126047801Y-82544490D01*
X125960493Y-82591158D01*
X125891086Y-82637534D01*
X125891085Y-82637534D01*
X126490589Y-83237037D01*
X126427007Y-83254075D01*
X126312993Y-83319901D01*
X126219901Y-83412993D01*
X126154075Y-83527007D01*
X126137037Y-83590588D01*
X125537534Y-82991085D01*
X125537534Y-82991086D01*
X125491155Y-83060497D01*
X125455899Y-83126455D01*
X125406936Y-83176299D01*
X125338798Y-83191758D01*
X125273119Y-83167925D01*
X125236057Y-83124294D01*
X125235782Y-83123755D01*
X125192287Y-83038390D01*
X125192286Y-83038388D01*
X125071971Y-82872786D01*
X124927213Y-82728028D01*
X124761613Y-82607715D01*
X124761612Y-82607714D01*
X124761610Y-82607713D01*
X124704653Y-82578691D01*
X124579223Y-82514781D01*
X124384534Y-82451522D01*
X124209995Y-82423878D01*
X124182352Y-82419500D01*
X123977648Y-82419500D01*
X123953329Y-82423351D01*
X123775465Y-82451522D01*
X123580776Y-82514781D01*
X123398386Y-82607715D01*
X123232786Y-82728028D01*
X123088028Y-82872786D01*
X122967715Y-83038386D01*
X122920485Y-83131080D01*
X122872510Y-83181876D01*
X122804689Y-83198671D01*
X122738554Y-83176134D01*
X122699515Y-83131080D01*
X122695782Y-83123754D01*
X122652287Y-83038390D01*
X122617919Y-82991086D01*
X122531971Y-82872786D01*
X122387213Y-82728028D01*
X122221613Y-82607715D01*
X122221612Y-82607714D01*
X122221610Y-82607713D01*
X122164653Y-82578691D01*
X122039223Y-82514781D01*
X121844534Y-82451522D01*
X121669995Y-82423878D01*
X121642352Y-82419500D01*
X121437648Y-82419500D01*
X121413329Y-82423351D01*
X121235465Y-82451522D01*
X121040776Y-82514781D01*
X120858386Y-82607715D01*
X120692786Y-82728028D01*
X120548028Y-82872786D01*
X120427715Y-83038386D01*
X120380485Y-83131080D01*
X120332510Y-83181876D01*
X120264689Y-83198671D01*
X120198554Y-83176134D01*
X120159515Y-83131080D01*
X120155782Y-83123754D01*
X120112287Y-83038390D01*
X120077919Y-82991086D01*
X119991971Y-82872786D01*
X119847213Y-82728028D01*
X119681613Y-82607715D01*
X119681612Y-82607714D01*
X119681610Y-82607713D01*
X119624653Y-82578691D01*
X119499223Y-82514781D01*
X119304534Y-82451522D01*
X119129995Y-82423878D01*
X119102352Y-82419500D01*
X118897648Y-82419500D01*
X118873329Y-82423351D01*
X118695465Y-82451522D01*
X118500776Y-82514781D01*
X118318386Y-82607715D01*
X118152786Y-82728028D01*
X118008028Y-82872786D01*
X117887715Y-83038386D01*
X117840485Y-83131080D01*
X117792510Y-83181876D01*
X117724689Y-83198671D01*
X117658554Y-83176134D01*
X117619515Y-83131080D01*
X117615782Y-83123754D01*
X117572287Y-83038390D01*
X117537919Y-82991086D01*
X117451971Y-82872786D01*
X117307213Y-82728028D01*
X117141613Y-82607715D01*
X117141612Y-82607714D01*
X117141610Y-82607713D01*
X117084653Y-82578691D01*
X116959223Y-82514781D01*
X116764534Y-82451522D01*
X116589995Y-82423878D01*
X116562352Y-82419500D01*
X116357648Y-82419500D01*
X116333329Y-82423351D01*
X116155465Y-82451522D01*
X115960776Y-82514781D01*
X115778386Y-82607715D01*
X115612786Y-82728028D01*
X115468028Y-82872786D01*
X115347715Y-83038386D01*
X115303942Y-83124295D01*
X115255967Y-83175091D01*
X115188146Y-83191886D01*
X115122011Y-83169348D01*
X115084099Y-83126454D01*
X115048844Y-83060498D01*
X115048838Y-83060488D01*
X115002465Y-82991085D01*
X114402962Y-83590588D01*
X114385925Y-83527007D01*
X114320099Y-83412993D01*
X114227007Y-83319901D01*
X114112993Y-83254075D01*
X114049410Y-83237037D01*
X114648912Y-82637534D01*
X114579511Y-82591161D01*
X114579501Y-82591155D01*
X114492198Y-82544490D01*
X114346612Y-82484185D01*
X114251864Y-82455444D01*
X114097300Y-82424701D01*
X113998790Y-82415000D01*
X113841210Y-82415000D01*
X113742700Y-82424701D01*
X113742697Y-82424701D01*
X113588135Y-82455444D01*
X113493387Y-82484185D01*
X113347801Y-82544490D01*
X113260493Y-82591158D01*
X113191086Y-82637534D01*
X113191085Y-82637534D01*
X113790589Y-83237037D01*
X113727007Y-83254075D01*
X113612993Y-83319901D01*
X113519901Y-83412993D01*
X113454075Y-83527007D01*
X113437037Y-83590588D01*
X112837534Y-82991085D01*
X112837534Y-82991086D01*
X112791155Y-83060497D01*
X112755899Y-83126455D01*
X112706936Y-83176299D01*
X112638798Y-83191758D01*
X112573119Y-83167925D01*
X112536057Y-83124294D01*
X112535782Y-83123755D01*
X112492287Y-83038390D01*
X112492286Y-83038388D01*
X112371971Y-82872786D01*
X112227213Y-82728028D01*
X112061610Y-82607712D01*
X112048200Y-82600879D01*
X111997406Y-82552903D01*
X111980500Y-82490397D01*
X111980500Y-74219060D01*
X111980501Y-74219047D01*
X111980501Y-74050944D01*
X111971699Y-74018094D01*
X111939577Y-73898216D01*
X111867112Y-73772701D01*
X111850500Y-73710702D01*
X111850500Y-73035718D01*
X111870185Y-72968679D01*
X111918207Y-72925233D01*
X111957815Y-72905052D01*
X111957815Y-72905051D01*
X111957816Y-72905051D01*
X112049193Y-72838661D01*
X112129786Y-72780109D01*
X112129788Y-72780106D01*
X112129792Y-72780104D01*
X112280104Y-72629792D01*
X112280106Y-72629788D01*
X112280109Y-72629786D01*
X112389086Y-72479789D01*
X112405051Y-72457816D01*
X112501557Y-72268412D01*
X112567246Y-72066243D01*
X112600500Y-71856287D01*
X112600500Y-71643713D01*
X112567246Y-71433757D01*
X112501557Y-71231588D01*
X112405051Y-71042184D01*
X112405049Y-71042181D01*
X112405048Y-71042179D01*
X112280109Y-70870213D01*
X112129786Y-70719890D01*
X111957820Y-70594951D01*
X111768414Y-70498444D01*
X111768413Y-70498443D01*
X111768412Y-70498443D01*
X111566243Y-70432754D01*
X111566241Y-70432753D01*
X111566240Y-70432753D01*
X111404957Y-70407208D01*
X111356287Y-70399500D01*
X111143713Y-70399500D01*
X111095042Y-70407208D01*
X110933760Y-70432753D01*
X110731585Y-70498444D01*
X110542179Y-70594951D01*
X110370213Y-70719890D01*
X110219890Y-70870213D01*
X110094949Y-71042182D01*
X110090484Y-71050946D01*
X110042509Y-71101742D01*
X109974688Y-71118536D01*
X109908553Y-71095998D01*
X109869516Y-71050946D01*
X109865050Y-71042182D01*
X109740109Y-70870213D01*
X109589786Y-70719890D01*
X109417820Y-70594951D01*
X109228414Y-70498444D01*
X109228413Y-70498443D01*
X109228412Y-70498443D01*
X109026243Y-70432754D01*
X109026241Y-70432753D01*
X109026240Y-70432753D01*
X108864957Y-70407208D01*
X108816287Y-70399500D01*
X108603713Y-70399500D01*
X108555042Y-70407208D01*
X108393760Y-70432753D01*
X108191585Y-70498444D01*
X108002179Y-70594951D01*
X107830215Y-70719889D01*
X107716285Y-70833819D01*
X107654962Y-70867303D01*
X107585270Y-70862319D01*
X107529337Y-70820447D01*
X107512422Y-70789470D01*
X107463354Y-70657913D01*
X107463350Y-70657906D01*
X107377190Y-70542812D01*
X107377187Y-70542809D01*
X107262093Y-70456649D01*
X107262086Y-70456645D01*
X107127379Y-70406403D01*
X107127372Y-70406401D01*
X107067844Y-70400000D01*
X106420000Y-70400000D01*
X106420000Y-71316988D01*
X106362993Y-71284075D01*
X106235826Y-71250000D01*
X106104174Y-71250000D01*
X105977007Y-71284075D01*
X105920000Y-71316988D01*
X105920000Y-70400000D01*
X105272155Y-70400000D01*
X105212627Y-70406401D01*
X105212620Y-70406403D01*
X105077913Y-70456645D01*
X105077906Y-70456649D01*
X104962812Y-70542809D01*
X104962809Y-70542812D01*
X104876649Y-70657906D01*
X104876645Y-70657913D01*
X104826403Y-70792620D01*
X104826401Y-70792627D01*
X104820000Y-70852155D01*
X104820000Y-71500000D01*
X105736988Y-71500000D01*
X105704075Y-71557007D01*
X105670000Y-71684174D01*
X105670000Y-71815826D01*
X105704075Y-71942993D01*
X105736988Y-72000000D01*
X104820000Y-72000000D01*
X104820000Y-72647844D01*
X104826401Y-72707372D01*
X104826403Y-72707379D01*
X104876645Y-72842086D01*
X104876649Y-72842093D01*
X104962809Y-72957187D01*
X104962812Y-72957190D01*
X105077906Y-73043350D01*
X105077913Y-73043354D01*
X105212620Y-73093596D01*
X105212627Y-73093598D01*
X105272155Y-73099999D01*
X105272172Y-73100000D01*
X105920000Y-73100000D01*
X105920000Y-72183012D01*
X105977007Y-72215925D01*
X106104174Y-72250000D01*
X106235826Y-72250000D01*
X106362993Y-72215925D01*
X106420000Y-72183012D01*
X106420000Y-73100000D01*
X107067828Y-73100000D01*
X107067844Y-73099999D01*
X107127372Y-73093598D01*
X107127379Y-73093596D01*
X107262086Y-73043354D01*
X107262093Y-73043350D01*
X107377187Y-72957190D01*
X107377190Y-72957187D01*
X107463350Y-72842093D01*
X107463354Y-72842086D01*
X107512422Y-72710529D01*
X107554293Y-72654595D01*
X107619757Y-72630178D01*
X107688030Y-72645030D01*
X107716285Y-72666181D01*
X107830213Y-72780109D01*
X108002179Y-72905048D01*
X108002181Y-72905049D01*
X108002184Y-72905051D01*
X108191588Y-73001557D01*
X108393757Y-73067246D01*
X108603713Y-73100500D01*
X108603714Y-73100500D01*
X108816286Y-73100500D01*
X108816287Y-73100500D01*
X109026243Y-73067246D01*
X109228412Y-73001557D01*
X109417816Y-72905051D01*
X109504471Y-72842093D01*
X109589786Y-72780109D01*
X109589788Y-72780106D01*
X109589792Y-72780104D01*
X109740104Y-72629792D01*
X109740106Y-72629788D01*
X109740109Y-72629786D01*
X109849086Y-72479789D01*
X109865051Y-72457816D01*
X109869514Y-72449054D01*
X109917488Y-72398259D01*
X109985308Y-72381463D01*
X110051444Y-72403999D01*
X110090486Y-72449056D01*
X110094951Y-72457820D01*
X110219890Y-72629786D01*
X110370213Y-72780109D01*
X110542184Y-72905051D01*
X110542184Y-72905052D01*
X110581793Y-72925233D01*
X110632590Y-72973206D01*
X110649500Y-73035718D01*
X110649500Y-73913330D01*
X110649499Y-73913348D01*
X110649499Y-74079054D01*
X110649498Y-74079054D01*
X110649499Y-74079057D01*
X110690423Y-74231785D01*
X110719360Y-74281904D01*
X110762888Y-74357298D01*
X110762895Y-74357325D01*
X110779500Y-74419296D01*
X110779500Y-82490397D01*
X110759815Y-82557436D01*
X110711800Y-82600879D01*
X110698389Y-82607712D01*
X110532786Y-82728028D01*
X110388028Y-82872786D01*
X110267715Y-83038386D01*
X110220485Y-83131080D01*
X110172510Y-83181876D01*
X110104689Y-83198671D01*
X110038554Y-83176134D01*
X109999515Y-83131080D01*
X109995782Y-83123754D01*
X109952287Y-83038390D01*
X109917919Y-82991086D01*
X109831971Y-82872786D01*
X109687213Y-82728028D01*
X109521613Y-82607715D01*
X109521612Y-82607714D01*
X109521610Y-82607713D01*
X109464653Y-82578691D01*
X109339223Y-82514781D01*
X109144534Y-82451522D01*
X108969995Y-82423878D01*
X108942352Y-82419500D01*
X108737648Y-82419500D01*
X108713329Y-82423351D01*
X108535465Y-82451522D01*
X108340776Y-82514781D01*
X108158386Y-82607715D01*
X107992786Y-82728028D01*
X107848028Y-82872786D01*
X107727715Y-83038386D01*
X107680485Y-83131080D01*
X107632510Y-83181876D01*
X107564689Y-83198671D01*
X107498554Y-83176134D01*
X107459515Y-83131080D01*
X107455782Y-83123754D01*
X107412287Y-83038390D01*
X107377919Y-82991086D01*
X107291971Y-82872786D01*
X107147213Y-82728028D01*
X106981613Y-82607715D01*
X106981612Y-82607714D01*
X106981610Y-82607713D01*
X106924653Y-82578691D01*
X106799223Y-82514781D01*
X106604534Y-82451522D01*
X106429995Y-82423878D01*
X106402352Y-82419500D01*
X106197648Y-82419500D01*
X106173329Y-82423351D01*
X105995465Y-82451522D01*
X105800776Y-82514781D01*
X105618386Y-82607715D01*
X105452786Y-82728028D01*
X105308028Y-82872786D01*
X105187715Y-83038386D01*
X105140485Y-83131080D01*
X105092510Y-83181876D01*
X105024689Y-83198671D01*
X104958554Y-83176134D01*
X104919515Y-83131080D01*
X104915782Y-83123754D01*
X104872287Y-83038390D01*
X104837919Y-82991086D01*
X104751971Y-82872786D01*
X104607213Y-82728028D01*
X104441613Y-82607715D01*
X104441612Y-82607714D01*
X104441610Y-82607713D01*
X104384653Y-82578691D01*
X104259223Y-82514781D01*
X104064534Y-82451522D01*
X103889995Y-82423878D01*
X103862352Y-82419500D01*
X103657648Y-82419500D01*
X103633329Y-82423351D01*
X103455465Y-82451522D01*
X103260776Y-82514781D01*
X103078386Y-82607715D01*
X102912786Y-82728028D01*
X102768028Y-82872786D01*
X102647713Y-83038388D01*
X102604216Y-83123755D01*
X102556241Y-83174550D01*
X102488420Y-83191345D01*
X102422286Y-83168807D01*
X102384374Y-83125912D01*
X102349265Y-83060228D01*
X102349263Y-83060226D01*
X102349259Y-83060217D01*
X102334675Y-83038390D01*
X102261721Y-82929206D01*
X102261712Y-82929194D01*
X102261709Y-82929189D01*
X102198843Y-82852588D01*
X102087412Y-82741157D01*
X102010811Y-82678291D01*
X102010804Y-82678286D01*
X102010793Y-82678278D01*
X101879799Y-82590751D01*
X101879771Y-82590734D01*
X101792396Y-82544031D01*
X101792391Y-82544029D01*
X101646799Y-82483722D01*
X101621190Y-82475954D01*
X101551968Y-82454956D01*
X101397410Y-82424213D01*
X101397406Y-82424212D01*
X101397398Y-82424211D01*
X101317926Y-82416384D01*
X101298793Y-82414500D01*
X101141207Y-82414500D01*
X101122073Y-82416384D01*
X101042602Y-82424211D01*
X101042599Y-82424211D01*
X100905296Y-82451522D01*
X100888032Y-82454956D01*
X100844416Y-82468186D01*
X100793200Y-82483722D01*
X100647608Y-82544029D01*
X100647603Y-82544031D01*
X100560228Y-82590734D01*
X100560200Y-82590751D01*
X100429206Y-82678278D01*
X100429194Y-82678287D01*
X100429189Y-82678290D01*
X100429189Y-82678291D01*
X100352588Y-82741157D01*
X100352585Y-82741160D01*
X100352582Y-82741162D01*
X100241162Y-82852582D01*
X100241160Y-82852585D01*
X100241157Y-82852588D01*
X100224585Y-82872781D01*
X100178287Y-82929194D01*
X100178278Y-82929206D01*
X100090751Y-83060200D01*
X100090734Y-83060228D01*
X100055624Y-83125914D01*
X100006661Y-83175757D01*
X99938524Y-83191217D01*
X99872844Y-83167384D01*
X99835782Y-83123754D01*
X99792287Y-83038390D01*
X99792285Y-83038387D01*
X99792284Y-83038385D01*
X99671971Y-82872786D01*
X99527213Y-82728028D01*
X99361613Y-82607715D01*
X99361612Y-82607714D01*
X99361610Y-82607713D01*
X99304653Y-82578691D01*
X99179223Y-82514781D01*
X98984534Y-82451522D01*
X98809995Y-82423878D01*
X98782352Y-82419500D01*
X98577648Y-82419500D01*
X98553329Y-82423351D01*
X98375465Y-82451522D01*
X98180776Y-82514781D01*
X97998386Y-82607715D01*
X97832786Y-82728028D01*
X97688028Y-82872786D01*
X97567715Y-83038386D01*
X97520485Y-83131080D01*
X97472510Y-83181876D01*
X97404689Y-83198671D01*
X97338554Y-83176134D01*
X97299515Y-83131080D01*
X97295782Y-83123754D01*
X97252287Y-83038390D01*
X97217919Y-82991086D01*
X97131971Y-82872786D01*
X96987213Y-82728028D01*
X96821613Y-82607715D01*
X96821612Y-82607714D01*
X96821610Y-82607713D01*
X96764653Y-82578691D01*
X96639223Y-82514781D01*
X96444534Y-82451522D01*
X96269995Y-82423878D01*
X96242352Y-82419500D01*
X96037648Y-82419500D01*
X96013329Y-82423351D01*
X95835465Y-82451522D01*
X95640776Y-82514781D01*
X95458386Y-82607715D01*
X95292786Y-82728028D01*
X95148028Y-82872786D01*
X95027715Y-83038386D01*
X94980485Y-83131080D01*
X94932510Y-83181876D01*
X94864689Y-83198671D01*
X94798554Y-83176134D01*
X94759515Y-83131080D01*
X94755782Y-83123754D01*
X94712287Y-83038390D01*
X94677919Y-82991086D01*
X94591971Y-82872786D01*
X94447213Y-82728028D01*
X94281613Y-82607715D01*
X94281612Y-82607714D01*
X94281610Y-82607713D01*
X94224653Y-82578691D01*
X94099223Y-82514781D01*
X93904534Y-82451522D01*
X93729995Y-82423878D01*
X93702352Y-82419500D01*
X93497648Y-82419500D01*
X93473329Y-82423351D01*
X93295465Y-82451522D01*
X93100776Y-82514781D01*
X92918386Y-82607715D01*
X92752786Y-82728028D01*
X92608028Y-82872786D01*
X92487715Y-83038386D01*
X92440485Y-83131080D01*
X92392510Y-83181876D01*
X92324689Y-83198671D01*
X92258554Y-83176134D01*
X92219515Y-83131080D01*
X92215782Y-83123754D01*
X92172287Y-83038390D01*
X92137919Y-82991086D01*
X92051971Y-82872786D01*
X91907213Y-82728028D01*
X91741613Y-82607715D01*
X91741612Y-82607714D01*
X91741610Y-82607713D01*
X91684653Y-82578691D01*
X91559223Y-82514781D01*
X91364534Y-82451522D01*
X91189995Y-82423878D01*
X91162352Y-82419500D01*
X90957648Y-82419500D01*
X90933329Y-82423351D01*
X90755465Y-82451522D01*
X90560776Y-82514781D01*
X90378386Y-82607715D01*
X90212786Y-82728028D01*
X90068028Y-82872786D01*
X89947715Y-83038386D01*
X89903942Y-83124295D01*
X89855967Y-83175091D01*
X89788146Y-83191886D01*
X89722011Y-83169348D01*
X89684099Y-83126454D01*
X89648844Y-83060498D01*
X89648838Y-83060488D01*
X89602465Y-82991085D01*
X89002962Y-83590588D01*
X88985925Y-83527007D01*
X88920099Y-83412993D01*
X88827007Y-83319901D01*
X88712993Y-83254075D01*
X88649410Y-83237037D01*
X89248912Y-82637534D01*
X89179511Y-82591161D01*
X89179501Y-82591155D01*
X89092198Y-82544490D01*
X88946612Y-82484185D01*
X88851864Y-82455444D01*
X88697300Y-82424701D01*
X88598790Y-82415000D01*
X88441210Y-82415000D01*
X88342700Y-82424701D01*
X88342697Y-82424701D01*
X88188135Y-82455444D01*
X88093387Y-82484185D01*
X87947801Y-82544490D01*
X87860493Y-82591158D01*
X87791086Y-82637534D01*
X87791085Y-82637534D01*
X88390589Y-83237037D01*
X88327007Y-83254075D01*
X88212993Y-83319901D01*
X88119901Y-83412993D01*
X88054075Y-83527007D01*
X88037037Y-83590588D01*
X87437534Y-82991085D01*
X87437534Y-82991086D01*
X87391155Y-83060497D01*
X87355899Y-83126455D01*
X87306936Y-83176299D01*
X87238798Y-83191758D01*
X87173119Y-83167925D01*
X87136057Y-83124294D01*
X87135782Y-83123755D01*
X87092287Y-83038390D01*
X87092286Y-83038388D01*
X86971971Y-82872786D01*
X86827213Y-82728028D01*
X86661613Y-82607715D01*
X86661612Y-82607714D01*
X86661610Y-82607713D01*
X86604653Y-82578691D01*
X86479223Y-82514781D01*
X86284534Y-82451522D01*
X86109995Y-82423878D01*
X86082352Y-82419500D01*
X85877648Y-82419500D01*
X85853329Y-82423351D01*
X85675465Y-82451522D01*
X85480776Y-82514781D01*
X85298386Y-82607715D01*
X85132786Y-82728028D01*
X84988028Y-82872786D01*
X84867715Y-83038386D01*
X84820485Y-83131080D01*
X84772510Y-83181876D01*
X84704689Y-83198671D01*
X84638554Y-83176134D01*
X84599515Y-83131080D01*
X84595782Y-83123754D01*
X84552287Y-83038390D01*
X84517919Y-82991086D01*
X84431971Y-82872786D01*
X84287213Y-82728028D01*
X84121613Y-82607715D01*
X84121612Y-82607714D01*
X84121610Y-82607713D01*
X84064653Y-82578691D01*
X83939223Y-82514781D01*
X83744534Y-82451522D01*
X83569995Y-82423878D01*
X83542352Y-82419500D01*
X83337648Y-82419500D01*
X83313329Y-82423351D01*
X83135465Y-82451522D01*
X82940776Y-82514781D01*
X82758386Y-82607715D01*
X82592786Y-82728028D01*
X82448028Y-82872786D01*
X82327715Y-83038386D01*
X82234781Y-83220776D01*
X82171522Y-83415465D01*
X82139500Y-83617648D01*
X78500500Y-83617648D01*
X78500500Y-69624500D01*
X78520185Y-69557461D01*
X78572989Y-69511706D01*
X78624500Y-69500500D01*
X144876000Y-69500500D01*
X144943039Y-69520185D01*
G37*
%TD.AperFunction*%
%TD*%
M02*
