%TF.GenerationSoftware,KiCad,Pcbnew,9.0.7-1.fc43*%
%TF.CreationDate,2026-03-15T02:47:29+01:00*%
%TF.ProjectId,homemon,686f6d65-6d6f-46e2-9e6b-696361645f70,rev?*%
%TF.SameCoordinates,Original*%
%TF.FileFunction,Soldermask,Bot*%
%TF.FilePolarity,Negative*%
%FSLAX46Y46*%
G04 Gerber Fmt 4.6, Leading zero omitted, Abs format (unit mm)*
G04 Created by KiCad (PCBNEW 9.0.7-1.fc43) date 2026-03-15 02:47:29*
%MOMM*%
%LPD*%
G01*
G04 APERTURE LIST*
G04 Aperture macros list*
%AMRoundRect*
0 Rectangle with rounded corners*
0 $1 Rounding radius*
0 $2 $3 $4 $5 $6 $7 $8 $9 X,Y pos of 4 corners*
0 Add a 4 corners polygon primitive as box body*
4,1,4,$2,$3,$4,$5,$6,$7,$8,$9,$2,$3,0*
0 Add four circle primitives for the rounded corners*
1,1,$1+$1,$2,$3*
1,1,$1+$1,$4,$5*
1,1,$1+$1,$6,$7*
1,1,$1+$1,$8,$9*
0 Add four rect primitives between the rounded corners*
20,1,$1+$1,$2,$3,$4,$5,0*
20,1,$1+$1,$4,$5,$6,$7,0*
20,1,$1+$1,$6,$7,$8,$9,0*
20,1,$1+$1,$8,$9,$2,$3,0*%
%AMFreePoly0*
4,1,37,0.603843,0.796157,0.639018,0.796157,0.711114,0.766294,0.766294,0.711114,0.796157,0.639018,0.796157,0.603843,0.800000,0.600000,0.800000,-0.600000,0.796157,-0.603843,0.796157,-0.639018,0.766294,-0.711114,0.711114,-0.766294,0.639018,-0.796157,0.603843,-0.796157,0.600000,-0.800000,0.000000,-0.800000,0.000000,-0.796148,-0.078414,-0.796148,-0.232228,-0.765552,-0.377117,-0.705537,
-0.507515,-0.618408,-0.618408,-0.507515,-0.705537,-0.377117,-0.765552,-0.232228,-0.796148,-0.078414,-0.796148,0.078414,-0.765552,0.232228,-0.705537,0.377117,-0.618408,0.507515,-0.507515,0.618408,-0.377117,0.705537,-0.232228,0.765552,-0.078414,0.796148,0.000000,0.796148,0.000000,0.800000,0.600000,0.800000,0.603843,0.796157,0.603843,0.796157,$1*%
%AMFreePoly1*
4,1,37,0.000000,0.796148,0.078414,0.796148,0.232228,0.765552,0.377117,0.705537,0.507515,0.618408,0.618408,0.507515,0.705537,0.377117,0.765552,0.232228,0.796148,0.078414,0.796148,-0.078414,0.765552,-0.232228,0.705537,-0.377117,0.618408,-0.507515,0.507515,-0.618408,0.377117,-0.705537,0.232228,-0.765552,0.078414,-0.796148,0.000000,-0.796148,0.000000,-0.800000,-0.600000,-0.800000,
-0.603843,-0.796157,-0.639018,-0.796157,-0.711114,-0.766294,-0.766294,-0.711114,-0.796157,-0.639018,-0.796157,-0.603843,-0.800000,-0.600000,-0.800000,0.600000,-0.796157,0.603843,-0.796157,0.639018,-0.766294,0.711114,-0.711114,0.766294,-0.639018,0.796157,-0.603843,0.796157,-0.600000,0.800000,0.000000,0.800000,0.000000,0.796148,0.000000,0.796148,$1*%
G04 Aperture macros list end*
%ADD10C,1.700000*%
%ADD11R,1.700000X1.700000*%
%ADD12C,3.000000*%
%ADD13R,1.800000X2.600000*%
%ADD14O,1.800000X2.600000*%
%ADD15C,1.600000*%
%ADD16RoundRect,0.200000X0.600000X-0.600000X0.600000X0.600000X-0.600000X0.600000X-0.600000X-0.600000X0*%
%ADD17FreePoly0,90.000000*%
%ADD18FreePoly1,90.000000*%
G04 APERTURE END LIST*
D10*
%TO.C,U1*%
X111250000Y-71750000D03*
X108710000Y-71750000D03*
D11*
X106170000Y-71750000D03*
%TD*%
D12*
%TO.C,DS1*%
X84480900Y-108600000D03*
X84480900Y-139600700D03*
X159479480Y-139600700D03*
X159480000Y-108600000D03*
D13*
X89980000Y-108600000D03*
D14*
X92520000Y-108600000D03*
X95060000Y-108600000D03*
X97600000Y-108600000D03*
X100140000Y-108600000D03*
X102680000Y-108600000D03*
X105220000Y-108600000D03*
X107760000Y-108600000D03*
X110300000Y-108600000D03*
X112840000Y-108600000D03*
X115380000Y-108600000D03*
X117920000Y-108600000D03*
X120460000Y-108600000D03*
X123000000Y-108600000D03*
X125540000Y-108600000D03*
X128080000Y-108600000D03*
%TD*%
D10*
%TO.C,U2*%
X138000000Y-90480000D03*
X138000000Y-87940000D03*
D11*
X138000000Y-85400000D03*
%TD*%
D15*
%TO.C,R2*%
X142410000Y-108750000D03*
X132250000Y-108750000D03*
%TD*%
%TO.C,R1*%
X105160000Y-114000000D03*
X95000000Y-114000000D03*
%TD*%
D11*
%TO.C,U3*%
X133000000Y-72000000D03*
D10*
X130460000Y-72000000D03*
X127920000Y-72000000D03*
%TD*%
D16*
%TO.C,A1*%
X83440000Y-101500000D03*
D15*
X85980000Y-101500000D03*
D17*
X88520000Y-101500000D03*
D15*
X91060000Y-101500000D03*
X93600000Y-101500000D03*
X96140000Y-101500000D03*
X98680000Y-101500000D03*
D17*
X101220000Y-101500000D03*
D15*
X103760000Y-101500000D03*
X106300000Y-101500000D03*
X108840000Y-101500000D03*
X111380000Y-101500000D03*
D17*
X113920000Y-101500000D03*
D15*
X116460000Y-101500000D03*
X119000000Y-101500000D03*
X121540000Y-101500000D03*
X124080000Y-101500000D03*
D17*
X126620000Y-101500000D03*
D15*
X129160000Y-101500000D03*
X131700000Y-101500000D03*
X131700000Y-83720000D03*
X129160000Y-83720000D03*
D18*
X126620000Y-83720000D03*
D15*
X124080000Y-83720000D03*
X121540000Y-83720000D03*
X119000000Y-83720000D03*
X116460000Y-83720000D03*
D18*
X113920000Y-83720000D03*
D15*
X111380000Y-83720000D03*
X108840000Y-83720000D03*
X106300000Y-83720000D03*
X103760000Y-83720000D03*
D18*
X101220000Y-83720000D03*
D15*
X98680000Y-83720000D03*
X96140000Y-83720000D03*
X93600000Y-83720000D03*
X91060000Y-83720000D03*
D18*
X88520000Y-83720000D03*
D15*
X85980000Y-83720000D03*
X83440000Y-83720000D03*
%TD*%
M02*
