%TF.GenerationSoftware,KiCad,Pcbnew,9.0.7-1.fc43*%
%TF.CreationDate,2026-03-15T02:47:29+01:00*%
%TF.ProjectId,homemon,686f6d65-6d6f-46e2-9e6b-696361645f70,rev?*%
%TF.SameCoordinates,Original*%
%TF.FileFunction,Profile,NP*%
%FSLAX46Y46*%
G04 Gerber Fmt 4.6, Leading zero omitted, Abs format (unit mm)*
G04 Created by KiCad (PCBNEW 9.0.7-1.fc43) date 2026-03-15 02:47:29*
%MOMM*%
%LPD*%
G01*
G04 APERTURE LIST*
%TA.AperFunction,Profile*%
%ADD10C,0.050000*%
%TD*%
G04 APERTURE END LIST*
D10*
X78000000Y-69000000D02*
X164000000Y-69000000D01*
X164000000Y-144000000D01*
X78000000Y-144000000D01*
X78000000Y-69000000D01*
%TO.C,U2*%
X136800000Y-76050000D02*
X136800000Y-72650000D01*
X136800000Y-103250000D02*
X136800000Y-99850000D01*
X137800000Y-71650000D02*
X141200000Y-71650000D01*
X137800000Y-98850000D02*
X141200000Y-98850000D01*
X141200000Y-77050000D02*
X137800000Y-77050000D01*
X141200000Y-104250000D02*
X137800000Y-104250000D01*
X142200000Y-72650000D02*
X142200000Y-76050000D01*
X142200000Y-99850000D02*
X142200000Y-103250000D01*
X151000000Y-103250000D02*
X151000000Y-72650000D01*
X152000000Y-71650000D02*
X160000000Y-71650000D01*
X160000000Y-104250000D02*
X152000000Y-104250000D01*
X161000000Y-72650000D02*
X161000000Y-103250000D01*
X136800000Y-72650000D02*
G75*
G02*
X137800000Y-71650000I999999J1D01*
G01*
X136800000Y-99850000D02*
G75*
G02*
X137800000Y-98850000I999999J1D01*
G01*
X137800000Y-77050000D02*
G75*
G02*
X136800000Y-76050000I-1J999999D01*
G01*
X137800000Y-104250000D02*
G75*
G02*
X136800000Y-103250000I-1J999999D01*
G01*
X141200000Y-71650000D02*
G75*
G02*
X142200000Y-72650000I0J-1000000D01*
G01*
X141200000Y-98850000D02*
G75*
G02*
X142200000Y-99850000I0J-1000000D01*
G01*
X142200000Y-76050000D02*
G75*
G02*
X141200000Y-77050000I-1000000J0D01*
G01*
X142200000Y-103250000D02*
G75*
G02*
X141200000Y-104250000I-1000000J0D01*
G01*
X151000000Y-72650000D02*
G75*
G02*
X152000000Y-71650000I1000000J0D01*
G01*
X152000000Y-104250394D02*
G75*
G02*
X151000006Y-103250394I0J999994D01*
G01*
X160000000Y-71650000D02*
G75*
G02*
X161000000Y-72650000I0J-1000000D01*
G01*
X161000000Y-103250000D02*
G75*
G02*
X160000000Y-104250000I-1000000J0D01*
G01*
%TD*%
M02*
