M48
; DRILL file {KiCad 9.0.7-1.fc43} date 2026-03-15T02:47:33+0100
; FORMAT={-:-/ absolute / metric / decimal}
; #@! TF.CreationDate,2026-03-15T02:47:33+01:00
; #@! TF.GenerationSoftware,Kicad,Pcbnew,9.0.7-1.fc43
; #@! TF.FileFunction,Plated,1,2,PTH
FMAT,2
METRIC
; #@! TA.AperFunction,Plated,PTH,ComponentDrill
T1C0.800
; #@! TA.AperFunction,Plated,PTH,ComponentDrill
T2C1.000
; #@! TA.AperFunction,Plated,PTH,ComponentDrill
T3C1.200
; #@! TA.AperFunction,Plated,PTH,ComponentDrill
T4C2.500
%
G90
G05
T1
X95.0Y-114.0
X105.16Y-114.0
X132.25Y-108.75
X142.41Y-108.75
T2
X83.44Y-83.72
X83.44Y-101.5
X85.98Y-83.72
X85.98Y-101.5
X88.52Y-83.72
X88.52Y-101.5
X91.06Y-83.72
X91.06Y-101.5
X93.6Y-83.72
X93.6Y-101.5
X96.14Y-83.72
X96.14Y-101.5
X98.68Y-83.72
X98.68Y-101.5
X101.22Y-83.72
X101.22Y-101.5
X103.76Y-83.72
X103.76Y-101.5
X106.17Y-71.75
X106.3Y-83.72
X106.3Y-101.5
X108.71Y-71.75
X108.84Y-83.72
X108.84Y-101.5
X111.25Y-71.75
X111.38Y-83.72
X111.38Y-101.5
X113.92Y-83.72
X113.92Y-101.5
X116.46Y-83.72
X116.46Y-101.5
X119.0Y-83.72
X119.0Y-101.5
X121.54Y-83.72
X121.54Y-101.5
X124.08Y-83.72
X124.08Y-101.5
X126.62Y-83.72
X126.62Y-101.5
X127.92Y-72.0
X129.16Y-83.72
X129.16Y-101.5
X130.46Y-72.0
X131.7Y-83.72
X131.7Y-101.5
X133.0Y-72.0
X138.0Y-85.4
X138.0Y-87.94
X138.0Y-90.48
T3
X89.98Y-108.6
X92.52Y-108.6
X95.06Y-108.6
X97.6Y-108.6
X100.14Y-108.6
X102.68Y-108.6
X105.22Y-108.6
X107.76Y-108.6
X110.3Y-108.6
X112.84Y-108.6
X115.38Y-108.6
X117.92Y-108.6
X120.46Y-108.6
X123.0Y-108.6
X125.54Y-108.6
X128.08Y-108.6
T4
X84.481Y-108.6
X84.481Y-139.601
X159.479Y-139.601
X159.48Y-108.6
M30
