%TF.GenerationSoftware,KiCad,Pcbnew,9.0.7-1.fc43*%
%TF.CreationDate,2026-03-15T02:47:28+01:00*%
%TF.ProjectId,homemon,686f6d65-6d6f-46e2-9e6b-696361645f70,rev?*%
%TF.SameCoordinates,Original*%
%TF.FileFunction,Legend,Top*%
%TF.FilePolarity,Positive*%
%FSLAX46Y46*%
G04 Gerber Fmt 4.6, Leading zero omitted, Abs format (unit mm)*
G04 Created by KiCad (PCBNEW 9.0.7-1.fc43) date 2026-03-15 02:47:28*
%MOMM*%
%LPD*%
G01*
G04 APERTURE LIST*
%ADD10C,0.300000*%
%ADD11C,0.150000*%
%ADD12C,0.120000*%
%ADD13C,0.100000*%
G04 APERTURE END LIST*
D10*
X96661653Y-93367257D02*
X96661653Y-91367257D01*
X96661653Y-91652971D02*
X96804510Y-91510114D01*
X96804510Y-91510114D02*
X97090225Y-91367257D01*
X97090225Y-91367257D02*
X97518796Y-91367257D01*
X97518796Y-91367257D02*
X97804510Y-91510114D01*
X97804510Y-91510114D02*
X97947368Y-91795828D01*
X97947368Y-91795828D02*
X97947368Y-93367257D01*
X97947368Y-91795828D02*
X98090225Y-91510114D01*
X98090225Y-91510114D02*
X98375939Y-91367257D01*
X98375939Y-91367257D02*
X98804510Y-91367257D01*
X98804510Y-91367257D02*
X99090225Y-91510114D01*
X99090225Y-91510114D02*
X99233082Y-91795828D01*
X99233082Y-91795828D02*
X99233082Y-93367257D01*
X101804510Y-93224400D02*
X101518796Y-93367257D01*
X101518796Y-93367257D02*
X100947368Y-93367257D01*
X100947368Y-93367257D02*
X100661653Y-93224400D01*
X100661653Y-93224400D02*
X100518796Y-92938685D01*
X100518796Y-92938685D02*
X100518796Y-91795828D01*
X100518796Y-91795828D02*
X100661653Y-91510114D01*
X100661653Y-91510114D02*
X100947368Y-91367257D01*
X100947368Y-91367257D02*
X101518796Y-91367257D01*
X101518796Y-91367257D02*
X101804510Y-91510114D01*
X101804510Y-91510114D02*
X101947368Y-91795828D01*
X101947368Y-91795828D02*
X101947368Y-92081542D01*
X101947368Y-92081542D02*
X100518796Y-92367257D01*
X103661654Y-93367257D02*
X103375939Y-93224400D01*
X103375939Y-93224400D02*
X103233082Y-93081542D01*
X103233082Y-93081542D02*
X103090225Y-92795828D01*
X103090225Y-92795828D02*
X103090225Y-91938685D01*
X103090225Y-91938685D02*
X103233082Y-91652971D01*
X103233082Y-91652971D02*
X103375939Y-91510114D01*
X103375939Y-91510114D02*
X103661654Y-91367257D01*
X103661654Y-91367257D02*
X104090225Y-91367257D01*
X104090225Y-91367257D02*
X104375939Y-91510114D01*
X104375939Y-91510114D02*
X104518797Y-91652971D01*
X104518797Y-91652971D02*
X104661654Y-91938685D01*
X104661654Y-91938685D02*
X104661654Y-92795828D01*
X104661654Y-92795828D02*
X104518797Y-93081542D01*
X104518797Y-93081542D02*
X104375939Y-93224400D01*
X104375939Y-93224400D02*
X104090225Y-93367257D01*
X104090225Y-93367257D02*
X103661654Y-93367257D01*
X105661654Y-91367257D02*
X106233083Y-93367257D01*
X106233083Y-93367257D02*
X106804511Y-91938685D01*
X106804511Y-91938685D02*
X107375940Y-93367257D01*
X107375940Y-93367257D02*
X107947368Y-91367257D01*
X111375939Y-93367257D02*
X111375939Y-91367257D01*
X111375939Y-91652971D02*
X111518796Y-91510114D01*
X111518796Y-91510114D02*
X111804511Y-91367257D01*
X111804511Y-91367257D02*
X112233082Y-91367257D01*
X112233082Y-91367257D02*
X112518796Y-91510114D01*
X112518796Y-91510114D02*
X112661654Y-91795828D01*
X112661654Y-91795828D02*
X112661654Y-93367257D01*
X112661654Y-91795828D02*
X112804511Y-91510114D01*
X112804511Y-91510114D02*
X113090225Y-91367257D01*
X113090225Y-91367257D02*
X113518796Y-91367257D01*
X113518796Y-91367257D02*
X113804511Y-91510114D01*
X113804511Y-91510114D02*
X113947368Y-91795828D01*
X113947368Y-91795828D02*
X113947368Y-93367257D01*
X116518796Y-93224400D02*
X116233082Y-93367257D01*
X116233082Y-93367257D02*
X115661654Y-93367257D01*
X115661654Y-93367257D02*
X115375939Y-93224400D01*
X115375939Y-93224400D02*
X115233082Y-92938685D01*
X115233082Y-92938685D02*
X115233082Y-91795828D01*
X115233082Y-91795828D02*
X115375939Y-91510114D01*
X115375939Y-91510114D02*
X115661654Y-91367257D01*
X115661654Y-91367257D02*
X116233082Y-91367257D01*
X116233082Y-91367257D02*
X116518796Y-91510114D01*
X116518796Y-91510114D02*
X116661654Y-91795828D01*
X116661654Y-91795828D02*
X116661654Y-92081542D01*
X116661654Y-92081542D02*
X115233082Y-92367257D01*
X118375940Y-93367257D02*
X118090225Y-93224400D01*
X118090225Y-93224400D02*
X117947368Y-93081542D01*
X117947368Y-93081542D02*
X117804511Y-92795828D01*
X117804511Y-92795828D02*
X117804511Y-91938685D01*
X117804511Y-91938685D02*
X117947368Y-91652971D01*
X117947368Y-91652971D02*
X118090225Y-91510114D01*
X118090225Y-91510114D02*
X118375940Y-91367257D01*
X118375940Y-91367257D02*
X118804511Y-91367257D01*
X118804511Y-91367257D02*
X119090225Y-91510114D01*
X119090225Y-91510114D02*
X119233083Y-91652971D01*
X119233083Y-91652971D02*
X119375940Y-91938685D01*
X119375940Y-91938685D02*
X119375940Y-92795828D01*
X119375940Y-92795828D02*
X119233083Y-93081542D01*
X119233083Y-93081542D02*
X119090225Y-93224400D01*
X119090225Y-93224400D02*
X118804511Y-93367257D01*
X118804511Y-93367257D02*
X118375940Y-93367257D01*
X120375940Y-91367257D02*
X120947369Y-93367257D01*
X120947369Y-93367257D02*
X121518797Y-91938685D01*
X121518797Y-91938685D02*
X122090226Y-93367257D01*
X122090226Y-93367257D02*
X122661654Y-91367257D01*
D11*
X103244819Y-72511904D02*
X104054342Y-72511904D01*
X104054342Y-72511904D02*
X104149580Y-72464285D01*
X104149580Y-72464285D02*
X104197200Y-72416666D01*
X104197200Y-72416666D02*
X104244819Y-72321428D01*
X104244819Y-72321428D02*
X104244819Y-72130952D01*
X104244819Y-72130952D02*
X104197200Y-72035714D01*
X104197200Y-72035714D02*
X104149580Y-71988095D01*
X104149580Y-71988095D02*
X104054342Y-71940476D01*
X104054342Y-71940476D02*
X103244819Y-71940476D01*
X104244819Y-70940476D02*
X104244819Y-71511904D01*
X104244819Y-71226190D02*
X103244819Y-71226190D01*
X103244819Y-71226190D02*
X103387676Y-71321428D01*
X103387676Y-71321428D02*
X103482914Y-71416666D01*
X103482914Y-71416666D02*
X103530533Y-71511904D01*
X82945714Y-105244819D02*
X82945714Y-104244819D01*
X82945714Y-104244819D02*
X83183809Y-104244819D01*
X83183809Y-104244819D02*
X83326666Y-104292438D01*
X83326666Y-104292438D02*
X83421904Y-104387676D01*
X83421904Y-104387676D02*
X83469523Y-104482914D01*
X83469523Y-104482914D02*
X83517142Y-104673390D01*
X83517142Y-104673390D02*
X83517142Y-104816247D01*
X83517142Y-104816247D02*
X83469523Y-105006723D01*
X83469523Y-105006723D02*
X83421904Y-105101961D01*
X83421904Y-105101961D02*
X83326666Y-105197200D01*
X83326666Y-105197200D02*
X83183809Y-105244819D01*
X83183809Y-105244819D02*
X82945714Y-105244819D01*
X83898095Y-105197200D02*
X84040952Y-105244819D01*
X84040952Y-105244819D02*
X84279047Y-105244819D01*
X84279047Y-105244819D02*
X84374285Y-105197200D01*
X84374285Y-105197200D02*
X84421904Y-105149580D01*
X84421904Y-105149580D02*
X84469523Y-105054342D01*
X84469523Y-105054342D02*
X84469523Y-104959104D01*
X84469523Y-104959104D02*
X84421904Y-104863866D01*
X84421904Y-104863866D02*
X84374285Y-104816247D01*
X84374285Y-104816247D02*
X84279047Y-104768628D01*
X84279047Y-104768628D02*
X84088571Y-104721009D01*
X84088571Y-104721009D02*
X83993333Y-104673390D01*
X83993333Y-104673390D02*
X83945714Y-104625771D01*
X83945714Y-104625771D02*
X83898095Y-104530533D01*
X83898095Y-104530533D02*
X83898095Y-104435295D01*
X83898095Y-104435295D02*
X83945714Y-104340057D01*
X83945714Y-104340057D02*
X83993333Y-104292438D01*
X83993333Y-104292438D02*
X84088571Y-104244819D01*
X84088571Y-104244819D02*
X84326666Y-104244819D01*
X84326666Y-104244819D02*
X84469523Y-104292438D01*
X85421904Y-105244819D02*
X84850476Y-105244819D01*
X85136190Y-105244819D02*
X85136190Y-104244819D01*
X85136190Y-104244819D02*
X85040952Y-104387676D01*
X85040952Y-104387676D02*
X84945714Y-104482914D01*
X84945714Y-104482914D02*
X84850476Y-104530533D01*
X137138095Y-82384819D02*
X137138095Y-83194342D01*
X137138095Y-83194342D02*
X137185714Y-83289580D01*
X137185714Y-83289580D02*
X137233333Y-83337200D01*
X137233333Y-83337200D02*
X137328571Y-83384819D01*
X137328571Y-83384819D02*
X137519047Y-83384819D01*
X137519047Y-83384819D02*
X137614285Y-83337200D01*
X137614285Y-83337200D02*
X137661904Y-83289580D01*
X137661904Y-83289580D02*
X137709523Y-83194342D01*
X137709523Y-83194342D02*
X137709523Y-82384819D01*
X138138095Y-82480057D02*
X138185714Y-82432438D01*
X138185714Y-82432438D02*
X138280952Y-82384819D01*
X138280952Y-82384819D02*
X138519047Y-82384819D01*
X138519047Y-82384819D02*
X138614285Y-82432438D01*
X138614285Y-82432438D02*
X138661904Y-82480057D01*
X138661904Y-82480057D02*
X138709523Y-82575295D01*
X138709523Y-82575295D02*
X138709523Y-82670533D01*
X138709523Y-82670533D02*
X138661904Y-82813390D01*
X138661904Y-82813390D02*
X138090476Y-83384819D01*
X138090476Y-83384819D02*
X138709523Y-83384819D01*
X134834819Y-72761904D02*
X135644342Y-72761904D01*
X135644342Y-72761904D02*
X135739580Y-72714285D01*
X135739580Y-72714285D02*
X135787200Y-72666666D01*
X135787200Y-72666666D02*
X135834819Y-72571428D01*
X135834819Y-72571428D02*
X135834819Y-72380952D01*
X135834819Y-72380952D02*
X135787200Y-72285714D01*
X135787200Y-72285714D02*
X135739580Y-72238095D01*
X135739580Y-72238095D02*
X135644342Y-72190476D01*
X135644342Y-72190476D02*
X134834819Y-72190476D01*
X134834819Y-71809523D02*
X134834819Y-71190476D01*
X134834819Y-71190476D02*
X135215771Y-71523809D01*
X135215771Y-71523809D02*
X135215771Y-71380952D01*
X135215771Y-71380952D02*
X135263390Y-71285714D01*
X135263390Y-71285714D02*
X135311009Y-71238095D01*
X135311009Y-71238095D02*
X135406247Y-71190476D01*
X135406247Y-71190476D02*
X135644342Y-71190476D01*
X135644342Y-71190476D02*
X135739580Y-71238095D01*
X135739580Y-71238095D02*
X135787200Y-71285714D01*
X135787200Y-71285714D02*
X135834819Y-71380952D01*
X135834819Y-71380952D02*
X135834819Y-71666666D01*
X135834819Y-71666666D02*
X135787200Y-71761904D01*
X135787200Y-71761904D02*
X135739580Y-71809523D01*
X132504104Y-80573339D02*
X132504104Y-80097149D01*
X132789819Y-80668577D02*
X131789819Y-80335244D01*
X131789819Y-80335244D02*
X132789819Y-80001911D01*
X132789819Y-79144768D02*
X132789819Y-79716196D01*
X132789819Y-79430482D02*
X131789819Y-79430482D01*
X131789819Y-79430482D02*
X131932676Y-79525720D01*
X131932676Y-79525720D02*
X132027914Y-79620958D01*
X132027914Y-79620958D02*
X132075533Y-79716196D01*
D12*
%TO.C,U1*%
X107440000Y-70370000D02*
X112630000Y-70370000D01*
X112630000Y-73130000D02*
X112630000Y-70370000D01*
X107440000Y-73130000D02*
X107440000Y-70370000D01*
X107440000Y-73130000D02*
X112630000Y-73130000D01*
X106170000Y-73130000D02*
X104790000Y-73130000D01*
X104790000Y-73130000D02*
X104790000Y-71750000D01*
%TO.C,DS1*%
X81840000Y-105960000D02*
X81840000Y-142240000D01*
X81840000Y-142240000D02*
X162120000Y-142240000D01*
X81850000Y-105960000D02*
X82640000Y-105960000D01*
X84980000Y-111600000D02*
X157980000Y-111600000D01*
X84980000Y-136600000D02*
X84980000Y-111600000D01*
X88480000Y-105600000D02*
X91480000Y-105600000D01*
X89680280Y-131099320D02*
X89680280Y-117100000D01*
X90180000Y-116600000D02*
X153680000Y-116600000D01*
X153680660Y-131600000D02*
X90180000Y-131600000D01*
X154180000Y-117100000D02*
X154180000Y-131100000D01*
X157980000Y-111600000D02*
X157980000Y-136600000D01*
X157980000Y-136600000D02*
X84980000Y-136600000D01*
X162120000Y-105960000D02*
X82640000Y-105960000D01*
X162120000Y-142240000D02*
X162120000Y-105960000D01*
X89680280Y-117098840D02*
G75*
G02*
X90180660Y-116598460I500380J0D01*
G01*
X90180660Y-131599700D02*
G75*
G02*
X89680280Y-131099320I0J500380D01*
G01*
X153680000Y-116600000D02*
G75*
G02*
X154180000Y-117100000I0J-500000D01*
G01*
X154181040Y-131099320D02*
G75*
G02*
X153680660Y-131599640I-500340J20D01*
G01*
%TO.C,U2*%
D13*
X137000000Y-84380000D02*
X139001046Y-84380000D01*
X139001046Y-91488423D01*
X137000000Y-91488423D01*
X137000000Y-84380000D01*
D12*
%TO.C,U3*%
X134380000Y-70620000D02*
X134380000Y-72000000D01*
X133000000Y-70620000D02*
X134380000Y-70620000D01*
X131730000Y-70620000D02*
X126540000Y-70620000D01*
X131730000Y-70620000D02*
X131730000Y-73380000D01*
X126540000Y-70620000D02*
X126540000Y-73380000D01*
X131730000Y-73380000D02*
X126540000Y-73380000D01*
%TO.C,A1*%
X84240000Y-103540000D02*
X82640000Y-103540000D01*
X82570000Y-103220000D02*
X132570000Y-103220000D01*
X82023000Y-102880000D02*
X133117000Y-102880000D01*
X81960000Y-102610000D02*
X81960000Y-100120000D01*
X133180000Y-102610000D02*
X133180000Y-98772061D01*
X81960000Y-100120000D02*
X82873520Y-100120000D01*
X81960000Y-100120000D02*
X81960000Y-98772060D01*
X85266480Y-100120000D02*
X129873520Y-100120000D01*
X132266480Y-100120000D02*
X133180000Y-100120000D01*
X81960000Y-97847939D02*
X81960000Y-96845000D01*
X81960000Y-96845000D02*
X81960000Y-88375000D01*
X80660000Y-96720000D02*
X81480000Y-96720000D01*
X80660000Y-96720000D02*
X80660000Y-88500000D01*
X81480000Y-96720000D02*
X81480000Y-96510000D01*
X81480000Y-96510000D02*
X82876000Y-96510000D01*
X85264000Y-96510000D02*
X86480000Y-96510000D01*
X133180000Y-96210000D02*
X133180000Y-97847939D01*
X133180000Y-89010000D02*
X133180000Y-96210000D01*
X81480000Y-88710000D02*
X82876000Y-88710000D01*
X85264000Y-88710000D02*
X86480000Y-88710000D01*
X86480000Y-88710000D02*
X86480000Y-96510000D01*
X80660000Y-88500000D02*
X81480000Y-88500000D01*
X81480000Y-88500000D02*
X81480000Y-88710000D01*
X81960000Y-88375000D02*
X81960000Y-87372061D01*
X133180000Y-87372061D02*
X133180000Y-89010000D01*
X81960000Y-86447939D02*
X81960000Y-85100000D01*
X133180000Y-86447939D02*
X133180000Y-82610000D01*
X81960000Y-85100000D02*
X82873520Y-85100000D01*
X85266480Y-85100000D02*
X129873520Y-85100000D01*
X132266480Y-85100000D02*
X133180000Y-85100000D01*
X81960000Y-82610000D02*
X81960000Y-85100000D01*
X133117000Y-82340000D02*
X82023000Y-82340000D01*
X82570000Y-82000000D02*
X132570000Y-82000000D01*
X82570000Y-103220000D02*
G75*
G02*
X81960000Y-102610000I0J610000D01*
G01*
X133180000Y-102610000D02*
G75*
G02*
X132570000Y-103220000I-609901J-99D01*
G01*
X81960000Y-82610000D02*
G75*
G02*
X82570000Y-82000000I610000J0D01*
G01*
X132570000Y-82000000D02*
G75*
G02*
X133180000Y-82610000I0J-610000D01*
G01*
%TD*%
M02*
