%TF.GenerationSoftware,KiCad,Pcbnew,9.0.7-1.fc43*%
%TF.CreationDate,2026-03-15T02:47:28+01:00*%
%TF.ProjectId,homemon,686f6d65-6d6f-46e2-9e6b-696361645f70,rev?*%
%TF.SameCoordinates,Original*%
%TF.FileFunction,Copper,L1,Top*%
%TF.FilePolarity,Positive*%
%FSLAX46Y46*%
G04 Gerber Fmt 4.6, Leading zero omitted, Abs format (unit mm)*
G04 Created by KiCad (PCBNEW 9.0.7-1.fc43) date 2026-03-15 02:47:28*
%MOMM*%
%LPD*%
G01*
G04 APERTURE LIST*
G04 Aperture macros list*
%AMRoundRect*
0 Rectangle with rounded corners*
0 $1 Rounding radius*
0 $2 $3 $4 $5 $6 $7 $8 $9 X,Y pos of 4 corners*
0 Add a 4 corners polygon primitive as box body*
4,1,4,$2,$3,$4,$5,$6,$7,$8,$9,$2,$3,0*
0 Add four circle primitives for the rounded corners*
1,1,$1+$1,$2,$3*
1,1,$1+$1,$4,$5*
1,1,$1+$1,$6,$7*
1,1,$1+$1,$8,$9*
0 Add four rect primitives between the rounded corners*
20,1,$1+$1,$2,$3,$4,$5,0*
20,1,$1+$1,$4,$5,$6,$7,0*
20,1,$1+$1,$6,$7,$8,$9,0*
20,1,$1+$1,$8,$9,$2,$3,0*%
%AMFreePoly0*
4,1,37,0.603843,0.796157,0.639018,0.796157,0.711114,0.766294,0.766294,0.711114,0.796157,0.639018,0.796157,0.603843,0.800000,0.600000,0.800000,-0.600000,0.796157,-0.603843,0.796157,-0.639018,0.766294,-0.711114,0.711114,-0.766294,0.639018,-0.796157,0.603843,-0.796157,0.600000,-0.800000,0.000000,-0.800000,0.000000,-0.796148,-0.078414,-0.796148,-0.232228,-0.765552,-0.377117,-0.705537,
-0.507515,-0.618408,-0.618408,-0.507515,-0.705537,-0.377117,-0.765552,-0.232228,-0.796148,-0.078414,-0.796148,0.078414,-0.765552,0.232228,-0.705537,0.377117,-0.618408,0.507515,-0.507515,0.618408,-0.377117,0.705537,-0.232228,0.765552,-0.078414,0.796148,0.000000,0.796148,0.000000,0.800000,0.600000,0.800000,0.603843,0.796157,0.603843,0.796157,$1*%
%AMFreePoly1*
4,1,37,0.000000,0.796148,0.078414,0.796148,0.232228,0.765552,0.377117,0.705537,0.507515,0.618408,0.618408,0.507515,0.705537,0.377117,0.765552,0.232228,0.796148,0.078414,0.796148,-0.078414,0.765552,-0.232228,0.705537,-0.377117,0.618408,-0.507515,0.507515,-0.618408,0.377117,-0.705537,0.232228,-0.765552,0.078414,-0.796148,0.000000,-0.796148,0.000000,-0.800000,-0.600000,-0.800000,
-0.603843,-0.796157,-0.639018,-0.796157,-0.711114,-0.766294,-0.766294,-0.711114,-0.796157,-0.639018,-0.796157,-0.603843,-0.800000,-0.600000,-0.800000,0.600000,-0.796157,0.603843,-0.796157,0.639018,-0.766294,0.711114,-0.711114,0.766294,-0.639018,0.796157,-0.603843,0.796157,-0.600000,0.800000,0.000000,0.800000,0.000000,0.796148,0.000000,0.796148,$1*%
G04 Aperture macros list end*
%TA.AperFunction,ComponentPad*%
%ADD10C,1.700000*%
%TD*%
%TA.AperFunction,ComponentPad*%
%ADD11R,1.700000X1.700000*%
%TD*%
%TA.AperFunction,ComponentPad*%
%ADD12C,3.000000*%
%TD*%
%TA.AperFunction,ComponentPad*%
%ADD13R,1.800000X2.600000*%
%TD*%
%TA.AperFunction,ComponentPad*%
%ADD14O,1.800000X2.600000*%
%TD*%
%TA.AperFunction,ComponentPad*%
%ADD15C,1.600000*%
%TD*%
%TA.AperFunction,ComponentPad*%
%ADD16RoundRect,0.200000X0.600000X-0.600000X0.600000X0.600000X-0.600000X0.600000X-0.600000X-0.600000X0*%
%TD*%
%TA.AperFunction,ComponentPad*%
%ADD17FreePoly0,90.000000*%
%TD*%
%TA.AperFunction,ComponentPad*%
%ADD18FreePoly1,90.000000*%
%TD*%
%TA.AperFunction,Conductor*%
%ADD19C,0.500000*%
%TD*%
%TA.AperFunction,Conductor*%
%ADD20C,0.200000*%
%TD*%
G04 APERTURE END LIST*
D10*
%TO.P,U1,2,DATA*%
%TO.N,Net-(A1-GPIO22)*%
X111250000Y-71750000D03*
%TO.P,U1,1,VDD*%
%TO.N,+3V3*%
X108710000Y-71750000D03*
D11*
%TO.P,U1,4,GND*%
%TO.N,GND*%
X106170000Y-71750000D03*
%TD*%
D12*
%TO.P,DS1,*%
%TO.N,*%
X84480900Y-108600000D03*
X84480900Y-139600700D03*
X159479480Y-139600700D03*
X159480000Y-108600000D03*
D13*
%TO.P,DS1,1,VSS*%
%TO.N,+3V3*%
X89980000Y-108600000D03*
D14*
%TO.P,DS1,2,VDD*%
%TO.N,GND*%
X92520000Y-108600000D03*
%TO.P,DS1,3,VO*%
%TO.N,Net-(DS1-VO)*%
X95060000Y-108600000D03*
%TO.P,DS1,4,RS*%
%TO.N,Net-(A1-GPIO2)*%
X97600000Y-108600000D03*
%TO.P,DS1,5,R/W*%
%TO.N,GND*%
X100140000Y-108600000D03*
%TO.P,DS1,6,E*%
%TO.N,Net-(A1-GPIO3)*%
X102680000Y-108600000D03*
%TO.P,DS1,7,D0*%
%TO.N,unconnected-(DS1-D0-Pad7)*%
X105220000Y-108600000D03*
%TO.P,DS1,8,D1*%
%TO.N,unconnected-(DS1-D1-Pad8)*%
X107760000Y-108600000D03*
%TO.P,DS1,9,D2*%
%TO.N,unconnected-(DS1-D2-Pad9)*%
X110300000Y-108600000D03*
%TO.P,DS1,10,D3*%
%TO.N,unconnected-(DS1-D3-Pad10)*%
X112840000Y-108600000D03*
%TO.P,DS1,11,D4*%
%TO.N,/D4*%
X115380000Y-108600000D03*
%TO.P,DS1,12,D5*%
%TO.N,/D5*%
X117920000Y-108600000D03*
%TO.P,DS1,13,D6*%
%TO.N,/D6*%
X120460000Y-108600000D03*
%TO.P,DS1,14,D7*%
%TO.N,/D7*%
X123000000Y-108600000D03*
%TO.P,DS1,15,LED(+)*%
%TO.N,Net-(DS1-LED(+))*%
X125540000Y-108600000D03*
%TO.P,DS1,16,LED(-)*%
%TO.N,GND*%
X128080000Y-108600000D03*
%TD*%
D10*
%TO.P,U2,1,VCC*%
%TO.N,+3V3*%
X138000000Y-90480000D03*
%TO.P,U2,2,DO*%
%TO.N,Net-(A1-GPIO14)*%
X138000000Y-87940000D03*
D11*
%TO.P,U2,3,GND*%
%TO.N,GND*%
X138000000Y-85400000D03*
%TD*%
D15*
%TO.P,R2,2*%
%TO.N,/BACKLIGHT*%
X142410000Y-108750000D03*
%TO.P,R2,1*%
%TO.N,Net-(DS1-LED(+))*%
X132250000Y-108750000D03*
%TD*%
%TO.P,R1,2*%
%TO.N,GND*%
X105160000Y-114000000D03*
%TO.P,R1,1*%
%TO.N,Net-(DS1-VO)*%
X95000000Y-114000000D03*
%TD*%
D11*
%TO.P,U3,2,DO*%
%TO.N,Net-(A1-GPIO16)*%
X133000000Y-72000000D03*
D10*
%TO.P,U3,3,GND*%
%TO.N,GND*%
X130460000Y-72000000D03*
%TO.P,U3,1,VCC*%
%TO.N,+3V3*%
X127920000Y-72000000D03*
%TD*%
D16*
%TO.P,A1,1,GPIO0*%
%TO.N,unconnected-(A1-GPIO0-Pad1)*%
X83440000Y-101500000D03*
D15*
%TO.P,A1,2,GPIO1*%
%TO.N,unconnected-(A1-GPIO1-Pad2)*%
X85980000Y-101500000D03*
D17*
%TO.P,A1,3,GND*%
%TO.N,GND*%
X88520000Y-101500000D03*
D15*
%TO.P,A1,4,GPIO2*%
%TO.N,Net-(A1-GPIO2)*%
X91060000Y-101500000D03*
%TO.P,A1,5,GPIO3*%
%TO.N,Net-(A1-GPIO3)*%
X93600000Y-101500000D03*
%TO.P,A1,6,GPIO4*%
%TO.N,/D4*%
X96140000Y-101500000D03*
%TO.P,A1,7,GPIO5*%
%TO.N,/D5*%
X98680000Y-101500000D03*
D17*
%TO.P,A1,8,GND*%
%TO.N,GND*%
X101220000Y-101500000D03*
D15*
%TO.P,A1,9,GPIO6*%
%TO.N,/D6*%
X103760000Y-101500000D03*
%TO.P,A1,10,GPIO7*%
%TO.N,/D7*%
X106300000Y-101500000D03*
%TO.P,A1,11,GPIO8*%
%TO.N,unconnected-(A1-GPIO8-Pad11)*%
X108840000Y-101500000D03*
%TO.P,A1,12,GPIO9*%
%TO.N,unconnected-(A1-GPIO9-Pad12)*%
X111380000Y-101500000D03*
D17*
%TO.P,A1,13,GND*%
%TO.N,GND*%
X113920000Y-101500000D03*
D15*
%TO.P,A1,14,GPIO10*%
%TO.N,unconnected-(A1-GPIO10-Pad14)*%
X116460000Y-101500000D03*
%TO.P,A1,15,GPIO11*%
%TO.N,unconnected-(A1-GPIO11-Pad15)*%
X119000000Y-101500000D03*
%TO.P,A1,16,GPIO12*%
%TO.N,unconnected-(A1-GPIO12-Pad16)*%
X121540000Y-101500000D03*
%TO.P,A1,17,GPIO13*%
%TO.N,unconnected-(A1-GPIO13-Pad17)*%
X124080000Y-101500000D03*
D17*
%TO.P,A1,18,GND*%
%TO.N,GND*%
X126620000Y-101500000D03*
D15*
%TO.P,A1,19,GPIO14*%
%TO.N,Net-(A1-GPIO14)*%
X129160000Y-101500000D03*
%TO.P,A1,20,GPIO15*%
%TO.N,/BACKLIGHT*%
X131700000Y-101500000D03*
%TO.P,A1,21,GPIO16*%
%TO.N,Net-(A1-GPIO16)*%
X131700000Y-83720000D03*
%TO.P,A1,22,GPIO17*%
%TO.N,unconnected-(A1-GPIO17-Pad22)*%
X129160000Y-83720000D03*
D18*
%TO.P,A1,23,GND*%
%TO.N,GND*%
X126620000Y-83720000D03*
D15*
%TO.P,A1,24,GPIO18*%
%TO.N,unconnected-(A1-GPIO18-Pad24)*%
X124080000Y-83720000D03*
%TO.P,A1,25,GPIO19*%
%TO.N,unconnected-(A1-GPIO19-Pad25)*%
X121540000Y-83720000D03*
%TO.P,A1,26,GPIO20*%
%TO.N,unconnected-(A1-GPIO20-Pad26)*%
X119000000Y-83720000D03*
%TO.P,A1,27,GPIO21*%
%TO.N,unconnected-(A1-GPIO21-Pad27)*%
X116460000Y-83720000D03*
D18*
%TO.P,A1,28,GND*%
%TO.N,GND*%
X113920000Y-83720000D03*
D15*
%TO.P,A1,29,GPIO22*%
%TO.N,Net-(A1-GPIO22)*%
X111380000Y-83720000D03*
%TO.P,A1,30,RUN*%
%TO.N,unconnected-(A1-RUN-Pad30)*%
X108840000Y-83720000D03*
%TO.P,A1,31,GPIO26_ADC0*%
%TO.N,unconnected-(A1-GPIO26_ADC0-Pad31)*%
X106300000Y-83720000D03*
%TO.P,A1,32,GPIO27_ADC1*%
%TO.N,unconnected-(A1-GPIO27_ADC1-Pad32)*%
X103760000Y-83720000D03*
D18*
%TO.P,A1,33,AGND*%
%TO.N,unconnected-(A1-AGND-Pad33)*%
X101220000Y-83720000D03*
D15*
%TO.P,A1,34,GPIO28_ADC2*%
%TO.N,unconnected-(A1-GPIO28_ADC2-Pad34)*%
X98680000Y-83720000D03*
%TO.P,A1,35,ADC_VREF*%
%TO.N,unconnected-(A1-ADC_VREF-Pad35)*%
X96140000Y-83720000D03*
%TO.P,A1,36,3V3*%
%TO.N,+3V3*%
X93600000Y-83720000D03*
%TO.P,A1,37,3V3_EN*%
%TO.N,unconnected-(A1-3V3_EN-Pad37)*%
X91060000Y-83720000D03*
D18*
%TO.P,A1,38,GND*%
%TO.N,GND*%
X88520000Y-83720000D03*
D15*
%TO.P,A1,39,VSYS*%
%TO.N,unconnected-(A1-VSYS-Pad39)*%
X85980000Y-83720000D03*
%TO.P,A1,40,VBUS*%
%TO.N,unconnected-(A1-VBUS-Pad40)*%
X83440000Y-83720000D03*
%TD*%
D19*
%TO.N,+3V3*%
X100070000Y-77250000D02*
X103210000Y-77250000D01*
X103210000Y-77250000D02*
X108710000Y-71750000D01*
X122250000Y-77250000D02*
X133750000Y-77250000D01*
X122670000Y-77250000D02*
X127920000Y-72000000D01*
X122250000Y-77250000D02*
X122670000Y-77250000D01*
X141500000Y-85000000D02*
X144750000Y-88250000D01*
X141500000Y-85000000D02*
X141500000Y-86980000D01*
X141500000Y-86980000D02*
X138000000Y-90480000D01*
X93600000Y-83720000D02*
X100070000Y-77250000D01*
X100070000Y-77250000D02*
X122250000Y-77250000D01*
X89980000Y-111980000D02*
X89980000Y-108600000D01*
X133750000Y-77250000D02*
X141500000Y-85000000D01*
X144750000Y-88250000D02*
X144750000Y-111750000D01*
X144750000Y-111750000D02*
X139500000Y-117000000D01*
X139500000Y-117000000D02*
X95000000Y-117000000D01*
X95000000Y-117000000D02*
X89980000Y-111980000D01*
D20*
%TO.N,Net-(A1-GPIO14)*%
X129160000Y-101500000D02*
X135750000Y-94910000D01*
X135750000Y-94910000D02*
X135750000Y-90190000D01*
X135750000Y-90190000D02*
X138000000Y-87940000D01*
%TO.N,/D4*%
X96140000Y-101500000D02*
X98890000Y-104250000D01*
X98890000Y-104250000D02*
X102250000Y-104250000D01*
X102250000Y-104250000D02*
X104500000Y-106500000D01*
X104500000Y-106500000D02*
X114000000Y-106500000D01*
X114000000Y-106500000D02*
X115380000Y-107880000D01*
X115380000Y-107880000D02*
X115380000Y-108600000D01*
%TO.N,/D5*%
X106000000Y-105750000D02*
X116750000Y-105750000D01*
X103750000Y-103500000D02*
X106000000Y-105750000D01*
X116750000Y-105750000D02*
X117920000Y-106920000D01*
X98680000Y-101500000D02*
X100680000Y-103500000D01*
X117920000Y-106920000D02*
X117920000Y-108600000D01*
X100680000Y-103500000D02*
X103750000Y-103500000D01*
%TO.N,/BACKLIGHT*%
X131700000Y-101500000D02*
X136200000Y-106000000D01*
X136200000Y-106000000D02*
X141250000Y-106000000D01*
X141250000Y-106000000D02*
X142410000Y-107160000D01*
X142410000Y-107160000D02*
X142410000Y-108750000D01*
%TO.N,Net-(DS1-LED(+))*%
X131000000Y-106000000D02*
X126750000Y-106000000D01*
X132250000Y-108750000D02*
X132250000Y-107250000D01*
X132250000Y-107250000D02*
X131000000Y-106000000D01*
X126750000Y-106000000D02*
X125540000Y-107210000D01*
X125540000Y-107210000D02*
X125540000Y-108600000D01*
%TO.N,Net-(DS1-VO)*%
X95060000Y-108600000D02*
X95060000Y-113940000D01*
X95060000Y-113940000D02*
X95000000Y-114000000D01*
%TO.N,/D6*%
X103760000Y-101500000D02*
X107260000Y-105000000D01*
X107260000Y-105000000D02*
X119000000Y-105000000D01*
X119000000Y-105000000D02*
X120460000Y-106460000D01*
X120460000Y-106460000D02*
X120460000Y-108600000D01*
%TO.N,/D7*%
X106300000Y-101500000D02*
X108800000Y-104000000D01*
X108800000Y-104000000D02*
X120000000Y-104000000D01*
X120000000Y-104000000D02*
X123000000Y-107000000D01*
X123000000Y-107000000D02*
X123000000Y-108600000D01*
%TO.N,Net-(A1-GPIO3)*%
X97100000Y-105000000D02*
X100000000Y-105000000D01*
X93600000Y-101500000D02*
X97100000Y-105000000D01*
X100000000Y-105000000D02*
X102680000Y-107680000D01*
X102680000Y-107680000D02*
X102680000Y-108600000D01*
%TO.N,Net-(A1-GPIO2)*%
X91060000Y-101500000D02*
X97600000Y-108040000D01*
X97600000Y-108040000D02*
X97600000Y-108600000D01*
%TD*%
M02*
